<?xml version="1.0" encoding="utf-8" standalone="no"?>
<!DOCTYPE svg PUBLIC "-//W3C//DTD SVG 1.1//EN"
  "http://www.w3.org/Graphics/SVG/1.1/DTD/svg11.dtd">
<!-- Created with matplotlib (http://matplotlib.org/) -->
<svg height="432pt" version="1.1" viewBox="0 0 432 432" width="432pt" xmlns="http://www.w3.org/2000/svg" xmlns:xlink="http://www.w3.org/1999/xlink">
 <defs>
  <style type="text/css">
*{stroke-linecap:butt;stroke-linejoin:round;}
  </style>
 </defs>
 <g id="figure_1">
  <g id="patch_1">
   <path d="M 0 432 
L 432 432 
L 432 0 
L 0 0 
z
" style="fill:#ffffff;"/>
  </g>
  <g id="axes_1">
   <g id="patch_2">
    <path d="M 54 384.48 
L 388.8 384.48 
L 388.8 51.84 
L 54 51.84 
z
" style="fill:#ffffff;"/>
   </g>
   <g id="PathCollection_1">
    <defs>
     <path d="M 0 3 
C 0.795609 3 1.55874 2.683901 2.12132 2.12132 
C 2.683901 1.55874 3 0.795609 3 0 
C 3 -0.795609 2.683901 -1.55874 2.12132 -2.12132 
C 1.55874 -2.683901 0.795609 -3 0 -3 
C -0.795609 -3 -1.55874 -2.683901 -2.12132 -2.12132 
C -2.683901 -1.55874 -3 -0.795609 -3 0 
C -3 0.795609 -2.683901 1.55874 -2.12132 2.12132 
C -1.55874 2.683901 -0.795609 3 0 3 
z
" id="m77a81d57e3" style="stroke:#1f77b4;"/>
    </defs>
    <g clip-path="url(#pa871419be4)">
     <use style="fill:#1f77b4;stroke:#1f77b4;" x="202.367291" xlink:href="#m77a81d57e3" y="237.374504"/>
     <use style="fill:#1f77b4;stroke:#1f77b4;" x="102.420625" xlink:href="#m77a81d57e3" y="74.303772"/>
     <use style="fill:#1f77b4;stroke:#1f77b4;" x="372.713589" xlink:href="#m77a81d57e3" y="384.273251"/>
     <use style="fill:#1f77b4;stroke:#1f77b4;" x="126.725669" xlink:href="#m77a81d57e3" y="83.739304"/>
     <use style="fill:#1f77b4;stroke:#1f77b4;" x="70.339293" xlink:href="#m77a81d57e3" y="71.901787"/>
     <use style="fill:#1f77b4;stroke:#1f77b4;" x="275.040436" xlink:href="#m77a81d57e3" y="376.413076"/>
     <use style="fill:#1f77b4;stroke:#1f77b4;" x="102.811448" xlink:href="#m77a81d57e3" y="75.658506"/>
     <use style="fill:#1f77b4;stroke:#1f77b4;" x="140.155458" xlink:href="#m77a81d57e3" y="93.936454"/>
     <use style="fill:#1f77b4;stroke:#1f77b4;" x="234.056331" xlink:href="#m77a81d57e3" y="331.859018"/>
     <use style="fill:#1f77b4;stroke:#1f77b4;" x="102.798576" xlink:href="#m77a81d57e3" y="72.381193"/>
     <use style="fill:#1f77b4;stroke:#1f77b4;" x="176.939773" xlink:href="#m77a81d57e3" y="151.809808"/>
     <use style="fill:#1f77b4;stroke:#1f77b4;" x="91.963818" xlink:href="#m77a81d57e3" y="72.31287"/>
     <use style="fill:#1f77b4;stroke:#1f77b4;" x="338.695243" xlink:href="#m77a81d57e3" y="384.028231"/>
     <use style="fill:#1f77b4;stroke:#1f77b4;" x="63.879555" xlink:href="#m77a81d57e3" y="67.850488"/>
     <use style="fill:#1f77b4;stroke:#1f77b4;" x="133.664222" xlink:href="#m77a81d57e3" y="86.36889"/>
     <use style="fill:#1f77b4;stroke:#1f77b4;" x="257.473364" xlink:href="#m77a81d57e3" y="365.166925"/>
     <use style="fill:#1f77b4;stroke:#1f77b4;" x="361.937372" xlink:href="#m77a81d57e3" y="384.284075"/>
     <use style="fill:#1f77b4;stroke:#1f77b4;" x="110.266812" xlink:href="#m77a81d57e3" y="78.662906"/>
     <use style="fill:#1f77b4;stroke:#1f77b4;" x="364.351738" xlink:href="#m77a81d57e3" y="384.235471"/>
     <use style="fill:#1f77b4;stroke:#1f77b4;" x="95.415015" xlink:href="#m77a81d57e3" y="71.441788"/>
     <use style="fill:#1f77b4;stroke:#1f77b4;" x="296.413537" xlink:href="#m77a81d57e3" y="381.542627"/>
     <use style="fill:#1f77b4;stroke:#1f77b4;" x="116.727535" xlink:href="#m77a81d57e3" y="79.809742"/>
     <use style="fill:#1f77b4;stroke:#1f77b4;" x="114.621837" xlink:href="#m77a81d57e3" y="79.550712"/>
     <use style="fill:#1f77b4;stroke:#1f77b4;" x="213.89406" xlink:href="#m77a81d57e3" y="276.571473"/>
     <use style="fill:#1f77b4;stroke:#1f77b4;" x="224.377836" xlink:href="#m77a81d57e3" y="307.535595"/>
     <use style="fill:#1f77b4;stroke:#1f77b4;" x="283.102771" xlink:href="#m77a81d57e3" y="378.733068"/>
     <use style="fill:#1f77b4;stroke:#1f77b4;" x="333.069441" xlink:href="#m77a81d57e3" y="383.981269"/>
     <use style="fill:#1f77b4;stroke:#1f77b4;" x="228.808229" xlink:href="#m77a81d57e3" y="319.815823"/>
     <use style="fill:#1f77b4;stroke:#1f77b4;" x="156.737476" xlink:href="#m77a81d57e3" y="112.588677"/>
     <use style="fill:#1f77b4;stroke:#1f77b4;" x="97.574481" xlink:href="#m77a81d57e3" y="72.604991"/>
     <use style="fill:#1f77b4;stroke:#1f77b4;" x="122.378676" xlink:href="#m77a81d57e3" y="79.864465"/>
     <use style="fill:#1f77b4;stroke:#1f77b4;" x="169.753349" xlink:href="#m77a81d57e3" y="137.968115"/>
     <use style="fill:#1f77b4;stroke:#1f77b4;" x="259.459312" xlink:href="#m77a81d57e3" y="367.364423"/>
     <use style="fill:#1f77b4;stroke:#1f77b4;" x="65.140931" xlink:href="#m77a81d57e3" y="69.162639"/>
     <use style="fill:#1f77b4;stroke:#1f77b4;" x="341.042676" xlink:href="#m77a81d57e3" y="384.022031"/>
     <use style="fill:#1f77b4;stroke:#1f77b4;" x="261.516624" xlink:href="#m77a81d57e3" y="368.937492"/>
     <use style="fill:#1f77b4;stroke:#1f77b4;" x="230.856633" xlink:href="#m77a81d57e3" y="325.314364"/>
     <use style="fill:#1f77b4;stroke:#1f77b4;" x="103.737458" xlink:href="#m77a81d57e3" y="72.789548"/>
     <use style="fill:#1f77b4;stroke:#1f77b4;" x="185.265528" xlink:href="#m77a81d57e3" y="178.818204"/>
     <use style="fill:#1f77b4;stroke:#1f77b4;" x="221.38893" xlink:href="#m77a81d57e3" y="299.248694"/>
     <use style="fill:#1f77b4;stroke:#1f77b4;" x="80.278141" xlink:href="#m77a81d57e3" y="71.234346"/>
     <use style="fill:#1f77b4;stroke:#1f77b4;" x="265.752683" xlink:href="#m77a81d57e3" y="371.278616"/>
     <use style="fill:#1f77b4;stroke:#1f77b4;" x="199.010604" xlink:href="#m77a81d57e3" y="223.965404"/>
     <use style="fill:#1f77b4;stroke:#1f77b4;" x="300.590828" xlink:href="#m77a81d57e3" y="382.012679"/>
     <use style="fill:#1f77b4;stroke:#1f77b4;" x="308.815301" xlink:href="#m77a81d57e3" y="382.972669"/>
     <use style="fill:#1f77b4;stroke:#1f77b4;" x="99.909524" xlink:href="#m77a81d57e3" y="76.06806"/>
     <use style="fill:#1f77b4;stroke:#1f77b4;" x="267.77362" xlink:href="#m77a81d57e3" y="372.561766"/>
     <use style="fill:#1f77b4;stroke:#1f77b4;" x="372.66487" xlink:href="#m77a81d57e3" y="384.266706"/>
     <use style="fill:#1f77b4;stroke:#1f77b4;" x="73.347662" xlink:href="#m77a81d57e3" y="70.039596"/>
     <use style="fill:#1f77b4;stroke:#1f77b4;" x="139.517099" xlink:href="#m77a81d57e3" y="91.0265"/>
     <use style="fill:#1f77b4;stroke:#1f77b4;" x="102.619018" xlink:href="#m77a81d57e3" y="74.544394"/>
     <use style="fill:#1f77b4;stroke:#1f77b4;" x="102.351488" xlink:href="#m77a81d57e3" y="74.852371"/>
     <use style="fill:#1f77b4;stroke:#1f77b4;" x="253.597677" xlink:href="#m77a81d57e3" y="361.457055"/>
     <use style="fill:#1f77b4;stroke:#1f77b4;" x="149.527484" xlink:href="#m77a81d57e3" y="104.007065"/>
     <use style="fill:#1f77b4;stroke:#1f77b4;" x="222.522002" xlink:href="#m77a81d57e3" y="303.513009"/>
     <use style="fill:#1f77b4;stroke:#1f77b4;" x="173.492169" xlink:href="#m77a81d57e3" y="142.326061"/>
     <use style="fill:#1f77b4;stroke:#1f77b4;" x="67.980836" xlink:href="#m77a81d57e3" y="70.285552"/>
     <use style="fill:#1f77b4;stroke:#1f77b4;" x="130.044257" xlink:href="#m77a81d57e3" y="85.279496"/>
     <use style="fill:#1f77b4;stroke:#1f77b4;" x="109.22621" xlink:href="#m77a81d57e3" y="73.245848"/>
     <use style="fill:#1f77b4;stroke:#1f77b4;" x="149.535844" xlink:href="#m77a81d57e3" y="103.841709"/>
     <use style="fill:#1f77b4;stroke:#1f77b4;" x="181.37819" xlink:href="#m77a81d57e3" y="164.035854"/>
     <use style="fill:#1f77b4;stroke:#1f77b4;" x="299.238911" xlink:href="#m77a81d57e3" y="382.009428"/>
     <use style="fill:#1f77b4;stroke:#1f77b4;" x="320.815159" xlink:href="#m77a81d57e3" y="383.596377"/>
     <use style="fill:#1f77b4;stroke:#1f77b4;" x="350.25317" xlink:href="#m77a81d57e3" y="384.153245"/>
     <use style="fill:#1f77b4;stroke:#1f77b4;" x="316.215349" xlink:href="#m77a81d57e3" y="383.473018"/>
     <use style="fill:#1f77b4;stroke:#1f77b4;" x="238.98562" xlink:href="#m77a81d57e3" y="340.652953"/>
     <use style="fill:#1f77b4;stroke:#1f77b4;" x="175.143394" xlink:href="#m77a81d57e3" y="148.06407"/>
     <use style="fill:#1f77b4;stroke:#1f77b4;" x="349.689893" xlink:href="#m77a81d57e3" y="384.123839"/>
     <use style="fill:#1f77b4;stroke:#1f77b4;" x="136.902985" xlink:href="#m77a81d57e3" y="90.618237"/>
     <use style="fill:#1f77b4;stroke:#1f77b4;" x="128.918707" xlink:href="#m77a81d57e3" y="84.755343"/>
     <use style="fill:#1f77b4;stroke:#1f77b4;" x="260.889396" xlink:href="#m77a81d57e3" y="367.680272"/>
     <use style="fill:#1f77b4;stroke:#1f77b4;" x="287.10488" xlink:href="#m77a81d57e3" y="379.795478"/>
     <use style="fill:#1f77b4;stroke:#1f77b4;" x="197.883516" xlink:href="#m77a81d57e3" y="221.076187"/>
     <use style="fill:#1f77b4;stroke:#1f77b4;" x="214.31527" xlink:href="#m77a81d57e3" y="279.024598"/>
     <use style="fill:#1f77b4;stroke:#1f77b4;" x="54" xlink:href="#m77a81d57e3" y="68.591995"/>
     <use style="fill:#1f77b4;stroke:#1f77b4;" x="104.459354" xlink:href="#m77a81d57e3" y="72.380609"/>
     <use style="fill:#1f77b4;stroke:#1f77b4;" x="364.180384" xlink:href="#m77a81d57e3" y="384.242571"/>
     <use style="fill:#1f77b4;stroke:#1f77b4;" x="150.643156" xlink:href="#m77a81d57e3" y="103.126268"/>
     <use style="fill:#1f77b4;stroke:#1f77b4;" x="336.80954" xlink:href="#m77a81d57e3" y="384.073908"/>
     <use style="fill:#1f77b4;stroke:#1f77b4;" x="148.240351" xlink:href="#m77a81d57e3" y="100.812357"/>
     <use style="fill:#1f77b4;stroke:#1f77b4;" x="258.562073" xlink:href="#m77a81d57e3" y="366.112253"/>
     <use style="fill:#1f77b4;stroke:#1f77b4;" x="251.733621" xlink:href="#m77a81d57e3" y="359.412764"/>
     <use style="fill:#1f77b4;stroke:#1f77b4;" x="115.473014" xlink:href="#m77a81d57e3" y="77.519453"/>
     <use style="fill:#1f77b4;stroke:#1f77b4;" x="246.139696" xlink:href="#m77a81d57e3" y="352.567227"/>
     <use style="fill:#1f77b4;stroke:#1f77b4;" x="230.958332" xlink:href="#m77a81d57e3" y="324.487488"/>
     <use style="fill:#1f77b4;stroke:#1f77b4;" x="114.778954" xlink:href="#m77a81d57e3" y="76.964148"/>
     <use style="fill:#1f77b4;stroke:#1f77b4;" x="216.54115" xlink:href="#m77a81d57e3" y="285.755402"/>
     <use style="fill:#1f77b4;stroke:#1f77b4;" x="120.255552" xlink:href="#m77a81d57e3" y="81.024811"/>
     <use style="fill:#1f77b4;stroke:#1f77b4;" x="238.511821" xlink:href="#m77a81d57e3" y="340.427753"/>
     <use style="fill:#1f77b4;stroke:#1f77b4;" x="362.366485" xlink:href="#m77a81d57e3" y="384.306402"/>
     <use style="fill:#1f77b4;stroke:#1f77b4;" x="356.132697" xlink:href="#m77a81d57e3" y="384.247149"/>
     <use style="fill:#1f77b4;stroke:#1f77b4;" x="231.03079" xlink:href="#m77a81d57e3" y="325.11158"/>
     <use style="fill:#1f77b4;stroke:#1f77b4;" x="121.232732" xlink:href="#m77a81d57e3" y="81.89788"/>
     <use style="fill:#1f77b4;stroke:#1f77b4;" x="109.70071" xlink:href="#m77a81d57e3" y="74.602741"/>
     <use style="fill:#1f77b4;stroke:#1f77b4;" x="196.437853" xlink:href="#m77a81d57e3" y="216.360486"/>
     <use style="fill:#1f77b4;stroke:#1f77b4;" x="349.110472" xlink:href="#m77a81d57e3" y="384.159362"/>
     <use style="fill:#1f77b4;stroke:#1f77b4;" x="78.226052" xlink:href="#m77a81d57e3" y="74.007457"/>
     <use style="fill:#1f77b4;stroke:#1f77b4;" x="248.958415" xlink:href="#m77a81d57e3" y="356.064217"/>
     <use style="fill:#1f77b4;stroke:#1f77b4;" x="160.414307" xlink:href="#m77a81d57e3" y="121.325172"/>
     <use style="fill:#1f77b4;stroke:#1f77b4;" x="86.378155" xlink:href="#m77a81d57e3" y="70.859218"/>
    </g>
   </g>
   <g id="matplotlib.axis_1">
    <g id="xtick_1">
     <g id="line2d_1">
      <defs>
       <path d="M 0 0 
L 0 3.5 
" id="m5d3b44a836" style="stroke:#000000;stroke-width:0.8;"/>
      </defs>
      <g>
       <use style="stroke:#000000;stroke-width:0.8;" x="99.270917" xlink:href="#m5d3b44a836" y="384.48"/>
      </g>
     </g>
     <g id="text_1">
      <!-- $\mathdefault{10^{-6}}$ -->
      <defs>
       <path d="M 12.40625 8.296875 
L 28.515625 8.296875 
L 28.515625 63.921875 
L 10.984375 60.40625 
L 10.984375 69.390625 
L 28.421875 72.90625 
L 38.28125 72.90625 
L 38.28125 8.296875 
L 54.390625 8.296875 
L 54.390625 0 
L 12.40625 0 
z
" id="DejaVuSans-31"/>
       <path d="M 31.78125 66.40625 
Q 24.171875 66.40625 20.328125 58.90625 
Q 16.5 51.421875 16.5 36.375 
Q 16.5 21.390625 20.328125 13.890625 
Q 24.171875 6.390625 31.78125 6.390625 
Q 39.453125 6.390625 43.28125 13.890625 
Q 47.125 21.390625 47.125 36.375 
Q 47.125 51.421875 43.28125 58.90625 
Q 39.453125 66.40625 31.78125 66.40625 
z
M 31.78125 74.21875 
Q 44.046875 74.21875 50.515625 64.515625 
Q 56.984375 54.828125 56.984375 36.375 
Q 56.984375 17.96875 50.515625 8.265625 
Q 44.046875 -1.421875 31.78125 -1.421875 
Q 19.53125 -1.421875 13.0625 8.265625 
Q 6.59375 17.96875 6.59375 36.375 
Q 6.59375 54.828125 13.0625 64.515625 
Q 19.53125 74.21875 31.78125 74.21875 
z
" id="DejaVuSans-30"/>
       <path d="M 10.59375 35.5 
L 73.1875 35.5 
L 73.1875 27.203125 
L 10.59375 27.203125 
z
" id="DejaVuSans-2212"/>
       <path d="M 33.015625 40.375 
Q 26.375 40.375 22.484375 35.828125 
Q 18.609375 31.296875 18.609375 23.390625 
Q 18.609375 15.53125 22.484375 10.953125 
Q 26.375 6.390625 33.015625 6.390625 
Q 39.65625 6.390625 43.53125 10.953125 
Q 47.40625 15.53125 47.40625 23.390625 
Q 47.40625 31.296875 43.53125 35.828125 
Q 39.65625 40.375 33.015625 40.375 
z
M 52.59375 71.296875 
L 52.59375 62.3125 
Q 48.875 64.0625 45.09375 64.984375 
Q 41.3125 65.921875 37.59375 65.921875 
Q 27.828125 65.921875 22.671875 59.328125 
Q 17.53125 52.734375 16.796875 39.40625 
Q 19.671875 43.65625 24.015625 45.921875 
Q 28.375 48.1875 33.59375 48.1875 
Q 44.578125 48.1875 50.953125 41.515625 
Q 57.328125 34.859375 57.328125 23.390625 
Q 57.328125 12.15625 50.6875 5.359375 
Q 44.046875 -1.421875 33.015625 -1.421875 
Q 20.359375 -1.421875 13.671875 8.265625 
Q 6.984375 17.96875 6.984375 36.375 
Q 6.984375 53.65625 15.1875 63.9375 
Q 23.390625 74.21875 37.203125 74.21875 
Q 40.921875 74.21875 44.703125 73.484375 
Q 48.484375 72.75 52.59375 71.296875 
z
" id="DejaVuSans-36"/>
      </defs>
      <g transform="translate(87.520917 399.078438)scale(0.1 -0.1)">
       <use transform="translate(0 0.765625)" xlink:href="#DejaVuSans-31"/>
       <use transform="translate(63.623047 0.765625)" xlink:href="#DejaVuSans-30"/>
       <use transform="translate(128.203125 39.046875)scale(0.7)" xlink:href="#DejaVuSans-2212"/>
       <use transform="translate(186.855469 39.046875)scale(0.7)" xlink:href="#DejaVuSans-36"/>
      </g>
     </g>
    </g>
    <g id="xtick_2">
     <g id="line2d_2">
      <g>
       <use style="stroke:#000000;stroke-width:0.8;" x="145.218863" xlink:href="#m5d3b44a836" y="384.48"/>
      </g>
     </g>
     <g id="text_2">
      <!-- $\mathdefault{10^{-5}}$ -->
      <defs>
       <path d="M 10.796875 72.90625 
L 49.515625 72.90625 
L 49.515625 64.59375 
L 19.828125 64.59375 
L 19.828125 46.734375 
Q 21.96875 47.46875 24.109375 47.828125 
Q 26.265625 48.1875 28.421875 48.1875 
Q 40.625 48.1875 47.75 41.5 
Q 54.890625 34.8125 54.890625 23.390625 
Q 54.890625 11.625 47.5625 5.09375 
Q 40.234375 -1.421875 26.90625 -1.421875 
Q 22.3125 -1.421875 17.546875 -0.640625 
Q 12.796875 0.140625 7.71875 1.703125 
L 7.71875 11.625 
Q 12.109375 9.234375 16.796875 8.0625 
Q 21.484375 6.890625 26.703125 6.890625 
Q 35.15625 6.890625 40.078125 11.328125 
Q 45.015625 15.765625 45.015625 23.390625 
Q 45.015625 31 40.078125 35.4375 
Q 35.15625 39.890625 26.703125 39.890625 
Q 22.75 39.890625 18.8125 39.015625 
Q 14.890625 38.140625 10.796875 36.28125 
z
" id="DejaVuSans-35"/>
      </defs>
      <g transform="translate(133.468863 399.078438)scale(0.1 -0.1)">
       <use transform="translate(0 0.684375)" xlink:href="#DejaVuSans-31"/>
       <use transform="translate(63.623047 0.684375)" xlink:href="#DejaVuSans-30"/>
       <use transform="translate(128.203125 38.965625)scale(0.7)" xlink:href="#DejaVuSans-2212"/>
       <use transform="translate(186.855469 38.965625)scale(0.7)" xlink:href="#DejaVuSans-35"/>
      </g>
     </g>
    </g>
    <g id="xtick_3">
     <g id="line2d_3">
      <g>
       <use style="stroke:#000000;stroke-width:0.8;" x="191.16681" xlink:href="#m5d3b44a836" y="384.48"/>
      </g>
     </g>
     <g id="text_3">
      <!-- $\mathdefault{10^{-4}}$ -->
      <defs>
       <path d="M 37.796875 64.3125 
L 12.890625 25.390625 
L 37.796875 25.390625 
z
M 35.203125 72.90625 
L 47.609375 72.90625 
L 47.609375 25.390625 
L 58.015625 25.390625 
L 58.015625 17.1875 
L 47.609375 17.1875 
L 47.609375 0 
L 37.796875 0 
L 37.796875 17.1875 
L 4.890625 17.1875 
L 4.890625 26.703125 
z
" id="DejaVuSans-34"/>
      </defs>
      <g transform="translate(179.41681 399.078438)scale(0.1 -0.1)">
       <use transform="translate(0 0.684375)" xlink:href="#DejaVuSans-31"/>
       <use transform="translate(63.623047 0.684375)" xlink:href="#DejaVuSans-30"/>
       <use transform="translate(128.203125 38.965625)scale(0.7)" xlink:href="#DejaVuSans-2212"/>
       <use transform="translate(186.855469 38.965625)scale(0.7)" xlink:href="#DejaVuSans-34"/>
      </g>
     </g>
    </g>
    <g id="xtick_4">
     <g id="line2d_4">
      <g>
       <use style="stroke:#000000;stroke-width:0.8;" x="237.114756" xlink:href="#m5d3b44a836" y="384.48"/>
      </g>
     </g>
     <g id="text_4">
      <!-- $\mathdefault{10^{-3}}$ -->
      <defs>
       <path d="M 40.578125 39.3125 
Q 47.65625 37.796875 51.625 33 
Q 55.609375 28.21875 55.609375 21.1875 
Q 55.609375 10.40625 48.1875 4.484375 
Q 40.765625 -1.421875 27.09375 -1.421875 
Q 22.515625 -1.421875 17.65625 -0.515625 
Q 12.796875 0.390625 7.625 2.203125 
L 7.625 11.71875 
Q 11.71875 9.328125 16.59375 8.109375 
Q 21.484375 6.890625 26.8125 6.890625 
Q 36.078125 6.890625 40.9375 10.546875 
Q 45.796875 14.203125 45.796875 21.1875 
Q 45.796875 27.640625 41.28125 31.265625 
Q 36.765625 34.90625 28.71875 34.90625 
L 20.21875 34.90625 
L 20.21875 43.015625 
L 29.109375 43.015625 
Q 36.375 43.015625 40.234375 45.921875 
Q 44.09375 48.828125 44.09375 54.296875 
Q 44.09375 59.90625 40.109375 62.90625 
Q 36.140625 65.921875 28.71875 65.921875 
Q 24.65625 65.921875 20.015625 65.03125 
Q 15.375 64.15625 9.8125 62.3125 
L 9.8125 71.09375 
Q 15.4375 72.65625 20.34375 73.4375 
Q 25.25 74.21875 29.59375 74.21875 
Q 40.828125 74.21875 47.359375 69.109375 
Q 53.90625 64.015625 53.90625 55.328125 
Q 53.90625 49.265625 50.4375 45.09375 
Q 46.96875 40.921875 40.578125 39.3125 
z
" id="DejaVuSans-33"/>
      </defs>
      <g transform="translate(225.364756 399.078438)scale(0.1 -0.1)">
       <use transform="translate(0 0.765625)" xlink:href="#DejaVuSans-31"/>
       <use transform="translate(63.623047 0.765625)" xlink:href="#DejaVuSans-30"/>
       <use transform="translate(128.203125 39.046875)scale(0.7)" xlink:href="#DejaVuSans-2212"/>
       <use transform="translate(186.855469 39.046875)scale(0.7)" xlink:href="#DejaVuSans-33"/>
      </g>
     </g>
    </g>
    <g id="xtick_5">
     <g id="line2d_5">
      <g>
       <use style="stroke:#000000;stroke-width:0.8;" x="283.062702" xlink:href="#m5d3b44a836" y="384.48"/>
      </g>
     </g>
     <g id="text_5">
      <!-- $\mathdefault{10^{-2}}$ -->
      <defs>
       <path d="M 19.1875 8.296875 
L 53.609375 8.296875 
L 53.609375 0 
L 7.328125 0 
L 7.328125 8.296875 
Q 12.9375 14.109375 22.625 23.890625 
Q 32.328125 33.6875 34.8125 36.53125 
Q 39.546875 41.84375 41.421875 45.53125 
Q 43.3125 49.21875 43.3125 52.78125 
Q 43.3125 58.59375 39.234375 62.25 
Q 35.15625 65.921875 28.609375 65.921875 
Q 23.96875 65.921875 18.8125 64.3125 
Q 13.671875 62.703125 7.8125 59.421875 
L 7.8125 69.390625 
Q 13.765625 71.78125 18.9375 73 
Q 24.125 74.21875 28.421875 74.21875 
Q 39.75 74.21875 46.484375 68.546875 
Q 53.21875 62.890625 53.21875 53.421875 
Q 53.21875 48.921875 51.53125 44.890625 
Q 49.859375 40.875 45.40625 35.40625 
Q 44.1875 33.984375 37.640625 27.21875 
Q 31.109375 20.453125 19.1875 8.296875 
z
" id="DejaVuSans-32"/>
      </defs>
      <g transform="translate(271.312702 399.078438)scale(0.1 -0.1)">
       <use transform="translate(0 0.765625)" xlink:href="#DejaVuSans-31"/>
       <use transform="translate(63.623047 0.765625)" xlink:href="#DejaVuSans-30"/>
       <use transform="translate(128.203125 39.046875)scale(0.7)" xlink:href="#DejaVuSans-2212"/>
       <use transform="translate(186.855469 39.046875)scale(0.7)" xlink:href="#DejaVuSans-32"/>
      </g>
     </g>
    </g>
    <g id="xtick_6">
     <g id="line2d_6">
      <g>
       <use style="stroke:#000000;stroke-width:0.8;" x="329.010648" xlink:href="#m5d3b44a836" y="384.48"/>
      </g>
     </g>
     <g id="text_6">
      <!-- $\mathdefault{10^{-1}}$ -->
      <g transform="translate(317.260648 399.078438)scale(0.1 -0.1)">
       <use transform="translate(0 0.684375)" xlink:href="#DejaVuSans-31"/>
       <use transform="translate(63.623047 0.684375)" xlink:href="#DejaVuSans-30"/>
       <use transform="translate(128.203125 38.965625)scale(0.7)" xlink:href="#DejaVuSans-2212"/>
       <use transform="translate(186.855469 38.965625)scale(0.7)" xlink:href="#DejaVuSans-31"/>
      </g>
     </g>
    </g>
    <g id="xtick_7">
     <g id="line2d_7">
      <g>
       <use style="stroke:#000000;stroke-width:0.8;" x="374.958594" xlink:href="#m5d3b44a836" y="384.48"/>
      </g>
     </g>
     <g id="text_7">
      <!-- $\mathdefault{10^{0}}$ -->
      <g transform="translate(366.158594 399.078438)scale(0.1 -0.1)">
       <use transform="translate(0 0.765625)" xlink:href="#DejaVuSans-31"/>
       <use transform="translate(63.623047 0.765625)" xlink:href="#DejaVuSans-30"/>
       <use transform="translate(128.203125 39.046875)scale(0.7)" xlink:href="#DejaVuSans-30"/>
      </g>
     </g>
    </g>
    <g id="xtick_8">
     <g id="line2d_8">
      <defs>
       <path d="M 0 0 
L 0 2 
" id="m6eb54861bf" style="stroke:#000000;stroke-width:0.6;"/>
      </defs>
      <g>
       <use style="stroke:#000000;stroke-width:0.6;" x="67.154681" xlink:href="#m6eb54861bf" y="384.48"/>
      </g>
     </g>
    </g>
    <g id="xtick_9">
     <g id="line2d_9">
      <g>
       <use style="stroke:#000000;stroke-width:0.6;" x="75.245713" xlink:href="#m6eb54861bf" y="384.48"/>
      </g>
     </g>
    </g>
    <g id="xtick_10">
     <g id="line2d_10">
      <g>
       <use style="stroke:#000000;stroke-width:0.6;" x="80.986391" xlink:href="#m6eb54861bf" y="384.48"/>
      </g>
     </g>
    </g>
    <g id="xtick_11">
     <g id="line2d_11">
      <g>
       <use style="stroke:#000000;stroke-width:0.6;" x="85.439207" xlink:href="#m6eb54861bf" y="384.48"/>
      </g>
     </g>
    </g>
    <g id="xtick_12">
     <g id="line2d_12">
      <g>
       <use style="stroke:#000000;stroke-width:0.6;" x="89.077423" xlink:href="#m6eb54861bf" y="384.48"/>
      </g>
     </g>
    </g>
    <g id="xtick_13">
     <g id="line2d_13">
      <g>
       <use style="stroke:#000000;stroke-width:0.6;" x="92.15349" xlink:href="#m6eb54861bf" y="384.48"/>
      </g>
     </g>
    </g>
    <g id="xtick_14">
     <g id="line2d_14">
      <g>
       <use style="stroke:#000000;stroke-width:0.6;" x="94.818101" xlink:href="#m6eb54861bf" y="384.48"/>
      </g>
     </g>
    </g>
    <g id="xtick_15">
     <g id="line2d_15">
      <g>
       <use style="stroke:#000000;stroke-width:0.6;" x="97.168455" xlink:href="#m6eb54861bf" y="384.48"/>
      </g>
     </g>
    </g>
    <g id="xtick_16">
     <g id="line2d_16">
      <g>
       <use style="stroke:#000000;stroke-width:0.6;" x="113.102627" xlink:href="#m6eb54861bf" y="384.48"/>
      </g>
     </g>
    </g>
    <g id="xtick_17">
     <g id="line2d_17">
      <g>
       <use style="stroke:#000000;stroke-width:0.6;" x="121.193659" xlink:href="#m6eb54861bf" y="384.48"/>
      </g>
     </g>
    </g>
    <g id="xtick_18">
     <g id="line2d_18">
      <g>
       <use style="stroke:#000000;stroke-width:0.6;" x="126.934337" xlink:href="#m6eb54861bf" y="384.48"/>
      </g>
     </g>
    </g>
    <g id="xtick_19">
     <g id="line2d_19">
      <g>
       <use style="stroke:#000000;stroke-width:0.6;" x="131.387153" xlink:href="#m6eb54861bf" y="384.48"/>
      </g>
     </g>
    </g>
    <g id="xtick_20">
     <g id="line2d_20">
      <g>
       <use style="stroke:#000000;stroke-width:0.6;" x="135.025369" xlink:href="#m6eb54861bf" y="384.48"/>
      </g>
     </g>
    </g>
    <g id="xtick_21">
     <g id="line2d_21">
      <g>
       <use style="stroke:#000000;stroke-width:0.6;" x="138.101437" xlink:href="#m6eb54861bf" y="384.48"/>
      </g>
     </g>
    </g>
    <g id="xtick_22">
     <g id="line2d_22">
      <g>
       <use style="stroke:#000000;stroke-width:0.6;" x="140.766047" xlink:href="#m6eb54861bf" y="384.48"/>
      </g>
     </g>
    </g>
    <g id="xtick_23">
     <g id="line2d_23">
      <g>
       <use style="stroke:#000000;stroke-width:0.6;" x="143.116401" xlink:href="#m6eb54861bf" y="384.48"/>
      </g>
     </g>
    </g>
    <g id="xtick_24">
     <g id="line2d_24">
      <g>
       <use style="stroke:#000000;stroke-width:0.6;" x="159.050573" xlink:href="#m6eb54861bf" y="384.48"/>
      </g>
     </g>
    </g>
    <g id="xtick_25">
     <g id="line2d_25">
      <g>
       <use style="stroke:#000000;stroke-width:0.6;" x="167.141605" xlink:href="#m6eb54861bf" y="384.48"/>
      </g>
     </g>
    </g>
    <g id="xtick_26">
     <g id="line2d_26">
      <g>
       <use style="stroke:#000000;stroke-width:0.6;" x="172.882284" xlink:href="#m6eb54861bf" y="384.48"/>
      </g>
     </g>
    </g>
    <g id="xtick_27">
     <g id="line2d_27">
      <g>
       <use style="stroke:#000000;stroke-width:0.6;" x="177.3351" xlink:href="#m6eb54861bf" y="384.48"/>
      </g>
     </g>
    </g>
    <g id="xtick_28">
     <g id="line2d_28">
      <g>
       <use style="stroke:#000000;stroke-width:0.6;" x="180.973315" xlink:href="#m6eb54861bf" y="384.48"/>
      </g>
     </g>
    </g>
    <g id="xtick_29">
     <g id="line2d_29">
      <g>
       <use style="stroke:#000000;stroke-width:0.6;" x="184.049383" xlink:href="#m6eb54861bf" y="384.48"/>
      </g>
     </g>
    </g>
    <g id="xtick_30">
     <g id="line2d_30">
      <g>
       <use style="stroke:#000000;stroke-width:0.6;" x="186.713994" xlink:href="#m6eb54861bf" y="384.48"/>
      </g>
     </g>
    </g>
    <g id="xtick_31">
     <g id="line2d_31">
      <g>
       <use style="stroke:#000000;stroke-width:0.6;" x="189.064347" xlink:href="#m6eb54861bf" y="384.48"/>
      </g>
     </g>
    </g>
    <g id="xtick_32">
     <g id="line2d_32">
      <g>
       <use style="stroke:#000000;stroke-width:0.6;" x="204.99852" xlink:href="#m6eb54861bf" y="384.48"/>
      </g>
     </g>
    </g>
    <g id="xtick_33">
     <g id="line2d_33">
      <g>
       <use style="stroke:#000000;stroke-width:0.6;" x="213.089551" xlink:href="#m6eb54861bf" y="384.48"/>
      </g>
     </g>
    </g>
    <g id="xtick_34">
     <g id="line2d_34">
      <g>
       <use style="stroke:#000000;stroke-width:0.6;" x="218.83023" xlink:href="#m6eb54861bf" y="384.48"/>
      </g>
     </g>
    </g>
    <g id="xtick_35">
     <g id="line2d_35">
      <g>
       <use style="stroke:#000000;stroke-width:0.6;" x="223.283046" xlink:href="#m6eb54861bf" y="384.48"/>
      </g>
     </g>
    </g>
    <g id="xtick_36">
     <g id="line2d_36">
      <g>
       <use style="stroke:#000000;stroke-width:0.6;" x="226.921261" xlink:href="#m6eb54861bf" y="384.48"/>
      </g>
     </g>
    </g>
    <g id="xtick_37">
     <g id="line2d_37">
      <g>
       <use style="stroke:#000000;stroke-width:0.6;" x="229.997329" xlink:href="#m6eb54861bf" y="384.48"/>
      </g>
     </g>
    </g>
    <g id="xtick_38">
     <g id="line2d_38">
      <g>
       <use style="stroke:#000000;stroke-width:0.6;" x="232.66194" xlink:href="#m6eb54861bf" y="384.48"/>
      </g>
     </g>
    </g>
    <g id="xtick_39">
     <g id="line2d_39">
      <g>
       <use style="stroke:#000000;stroke-width:0.6;" x="235.012293" xlink:href="#m6eb54861bf" y="384.48"/>
      </g>
     </g>
    </g>
    <g id="xtick_40">
     <g id="line2d_40">
      <g>
       <use style="stroke:#000000;stroke-width:0.6;" x="250.946466" xlink:href="#m6eb54861bf" y="384.48"/>
      </g>
     </g>
    </g>
    <g id="xtick_41">
     <g id="line2d_41">
      <g>
       <use style="stroke:#000000;stroke-width:0.6;" x="259.037497" xlink:href="#m6eb54861bf" y="384.48"/>
      </g>
     </g>
    </g>
    <g id="xtick_42">
     <g id="line2d_42">
      <g>
       <use style="stroke:#000000;stroke-width:0.6;" x="264.778176" xlink:href="#m6eb54861bf" y="384.48"/>
      </g>
     </g>
    </g>
    <g id="xtick_43">
     <g id="line2d_43">
      <g>
       <use style="stroke:#000000;stroke-width:0.6;" x="269.230992" xlink:href="#m6eb54861bf" y="384.48"/>
      </g>
     </g>
    </g>
    <g id="xtick_44">
     <g id="line2d_44">
      <g>
       <use style="stroke:#000000;stroke-width:0.6;" x="272.869208" xlink:href="#m6eb54861bf" y="384.48"/>
      </g>
     </g>
    </g>
    <g id="xtick_45">
     <g id="line2d_45">
      <g>
       <use style="stroke:#000000;stroke-width:0.6;" x="275.945275" xlink:href="#m6eb54861bf" y="384.48"/>
      </g>
     </g>
    </g>
    <g id="xtick_46">
     <g id="line2d_46">
      <g>
       <use style="stroke:#000000;stroke-width:0.6;" x="278.609886" xlink:href="#m6eb54861bf" y="384.48"/>
      </g>
     </g>
    </g>
    <g id="xtick_47">
     <g id="line2d_47">
      <g>
       <use style="stroke:#000000;stroke-width:0.6;" x="280.960239" xlink:href="#m6eb54861bf" y="384.48"/>
      </g>
     </g>
    </g>
    <g id="xtick_48">
     <g id="line2d_48">
      <g>
       <use style="stroke:#000000;stroke-width:0.6;" x="296.894412" xlink:href="#m6eb54861bf" y="384.48"/>
      </g>
     </g>
    </g>
    <g id="xtick_49">
     <g id="line2d_49">
      <g>
       <use style="stroke:#000000;stroke-width:0.6;" x="304.985444" xlink:href="#m6eb54861bf" y="384.48"/>
      </g>
     </g>
    </g>
    <g id="xtick_50">
     <g id="line2d_50">
      <g>
       <use style="stroke:#000000;stroke-width:0.6;" x="310.726122" xlink:href="#m6eb54861bf" y="384.48"/>
      </g>
     </g>
    </g>
    <g id="xtick_51">
     <g id="line2d_51">
      <g>
       <use style="stroke:#000000;stroke-width:0.6;" x="315.178938" xlink:href="#m6eb54861bf" y="384.48"/>
      </g>
     </g>
    </g>
    <g id="xtick_52">
     <g id="line2d_52">
      <g>
       <use style="stroke:#000000;stroke-width:0.6;" x="318.817154" xlink:href="#m6eb54861bf" y="384.48"/>
      </g>
     </g>
    </g>
    <g id="xtick_53">
     <g id="line2d_53">
      <g>
       <use style="stroke:#000000;stroke-width:0.6;" x="321.893221" xlink:href="#m6eb54861bf" y="384.48"/>
      </g>
     </g>
    </g>
    <g id="xtick_54">
     <g id="line2d_54">
      <g>
       <use style="stroke:#000000;stroke-width:0.6;" x="324.557832" xlink:href="#m6eb54861bf" y="384.48"/>
      </g>
     </g>
    </g>
    <g id="xtick_55">
     <g id="line2d_55">
      <g>
       <use style="stroke:#000000;stroke-width:0.6;" x="326.908185" xlink:href="#m6eb54861bf" y="384.48"/>
      </g>
     </g>
    </g>
    <g id="xtick_56">
     <g id="line2d_56">
      <g>
       <use style="stroke:#000000;stroke-width:0.6;" x="342.842358" xlink:href="#m6eb54861bf" y="384.48"/>
      </g>
     </g>
    </g>
    <g id="xtick_57">
     <g id="line2d_57">
      <g>
       <use style="stroke:#000000;stroke-width:0.6;" x="350.93339" xlink:href="#m6eb54861bf" y="384.48"/>
      </g>
     </g>
    </g>
    <g id="xtick_58">
     <g id="line2d_58">
      <g>
       <use style="stroke:#000000;stroke-width:0.6;" x="356.674068" xlink:href="#m6eb54861bf" y="384.48"/>
      </g>
     </g>
    </g>
    <g id="xtick_59">
     <g id="line2d_59">
      <g>
       <use style="stroke:#000000;stroke-width:0.6;" x="361.126884" xlink:href="#m6eb54861bf" y="384.48"/>
      </g>
     </g>
    </g>
    <g id="xtick_60">
     <g id="line2d_60">
      <g>
       <use style="stroke:#000000;stroke-width:0.6;" x="364.7651" xlink:href="#m6eb54861bf" y="384.48"/>
      </g>
     </g>
    </g>
    <g id="xtick_61">
     <g id="line2d_61">
      <g>
       <use style="stroke:#000000;stroke-width:0.6;" x="367.841167" xlink:href="#m6eb54861bf" y="384.48"/>
      </g>
     </g>
    </g>
    <g id="xtick_62">
     <g id="line2d_62">
      <g>
       <use style="stroke:#000000;stroke-width:0.6;" x="370.505778" xlink:href="#m6eb54861bf" y="384.48"/>
      </g>
     </g>
    </g>
    <g id="xtick_63">
     <g id="line2d_63">
      <g>
       <use style="stroke:#000000;stroke-width:0.6;" x="372.856132" xlink:href="#m6eb54861bf" y="384.48"/>
      </g>
     </g>
    </g>
    <g id="xtick_64">
     <g id="line2d_64">
      <g>
       <use style="stroke:#000000;stroke-width:0.6;" x="388.790304" xlink:href="#m6eb54861bf" y="384.48"/>
      </g>
     </g>
    </g>
    <g id="text_8">
     <!-- cl_diff -->
     <defs>
      <path d="M 48.78125 52.59375 
L 48.78125 44.1875 
Q 44.96875 46.296875 41.140625 47.34375 
Q 37.3125 48.390625 33.40625 48.390625 
Q 24.65625 48.390625 19.8125 42.84375 
Q 14.984375 37.3125 14.984375 27.296875 
Q 14.984375 17.28125 19.8125 11.734375 
Q 24.65625 6.203125 33.40625 6.203125 
Q 37.3125 6.203125 41.140625 7.25 
Q 44.96875 8.296875 48.78125 10.40625 
L 48.78125 2.09375 
Q 45.015625 0.34375 40.984375 -0.53125 
Q 36.96875 -1.421875 32.421875 -1.421875 
Q 20.0625 -1.421875 12.78125 6.34375 
Q 5.515625 14.109375 5.515625 27.296875 
Q 5.515625 40.671875 12.859375 48.328125 
Q 20.21875 56 33.015625 56 
Q 37.15625 56 41.109375 55.140625 
Q 45.0625 54.296875 48.78125 52.59375 
z
" id="DejaVuSans-63"/>
      <path d="M 9.421875 75.984375 
L 18.40625 75.984375 
L 18.40625 0 
L 9.421875 0 
z
" id="DejaVuSans-6c"/>
      <path d="M 50.984375 -16.609375 
L 50.984375 -23.578125 
L -0.984375 -23.578125 
L -0.984375 -16.609375 
z
" id="DejaVuSans-5f"/>
      <path d="M 45.40625 46.390625 
L 45.40625 75.984375 
L 54.390625 75.984375 
L 54.390625 0 
L 45.40625 0 
L 45.40625 8.203125 
Q 42.578125 3.328125 38.25 0.953125 
Q 33.9375 -1.421875 27.875 -1.421875 
Q 17.96875 -1.421875 11.734375 6.484375 
Q 5.515625 14.40625 5.515625 27.296875 
Q 5.515625 40.1875 11.734375 48.09375 
Q 17.96875 56 27.875 56 
Q 33.9375 56 38.25 53.625 
Q 42.578125 51.265625 45.40625 46.390625 
z
M 14.796875 27.296875 
Q 14.796875 17.390625 18.875 11.75 
Q 22.953125 6.109375 30.078125 6.109375 
Q 37.203125 6.109375 41.296875 11.75 
Q 45.40625 17.390625 45.40625 27.296875 
Q 45.40625 37.203125 41.296875 42.84375 
Q 37.203125 48.484375 30.078125 48.484375 
Q 22.953125 48.484375 18.875 42.84375 
Q 14.796875 37.203125 14.796875 27.296875 
z
" id="DejaVuSans-64"/>
      <path d="M 9.421875 54.6875 
L 18.40625 54.6875 
L 18.40625 0 
L 9.421875 0 
z
M 9.421875 75.984375 
L 18.40625 75.984375 
L 18.40625 64.59375 
L 9.421875 64.59375 
z
" id="DejaVuSans-69"/>
      <path d="M 37.109375 75.984375 
L 37.109375 68.5 
L 28.515625 68.5 
Q 23.6875 68.5 21.796875 66.546875 
Q 19.921875 64.59375 19.921875 59.515625 
L 19.921875 54.6875 
L 34.71875 54.6875 
L 34.71875 47.703125 
L 19.921875 47.703125 
L 19.921875 0 
L 10.890625 0 
L 10.890625 47.703125 
L 2.296875 47.703125 
L 2.296875 54.6875 
L 10.890625 54.6875 
L 10.890625 58.5 
Q 10.890625 67.625 15.140625 71.796875 
Q 19.390625 75.984375 28.609375 75.984375 
z
" id="DejaVuSans-66"/>
     </defs>
     <g transform="translate(206.678125 412.756563)scale(0.1 -0.1)">
      <use xlink:href="#DejaVuSans-63"/>
      <use x="54.980469" xlink:href="#DejaVuSans-6c"/>
      <use x="82.763672" xlink:href="#DejaVuSans-5f"/>
      <use x="132.763672" xlink:href="#DejaVuSans-64"/>
      <use x="196.240234" xlink:href="#DejaVuSans-69"/>
      <use x="224.023438" xlink:href="#DejaVuSans-66"/>
      <use x="259.228516" xlink:href="#DejaVuSans-66"/>
     </g>
    </g>
   </g>
   <g id="matplotlib.axis_2">
    <g id="ytick_1">
     <g id="line2d_65">
      <defs>
       <path d="M 0 0 
L -3.5 0 
" id="m01bd64b04b" style="stroke:#000000;stroke-width:0.8;"/>
      </defs>
      <g>
       <use style="stroke:#000000;stroke-width:0.8;" x="54" xlink:href="#m01bd64b04b" y="384.48"/>
      </g>
     </g>
     <g id="text_9">
      <!-- 0 -->
      <g transform="translate(40.6375 388.279219)scale(0.1 -0.1)">
       <use xlink:href="#DejaVuSans-30"/>
      </g>
     </g>
    </g>
    <g id="ytick_2">
     <g id="line2d_66">
      <g>
       <use style="stroke:#000000;stroke-width:0.8;" x="54" xlink:href="#m01bd64b04b" y="331.926057"/>
      </g>
     </g>
     <g id="text_10">
      <!-- 2 -->
      <g transform="translate(40.6375 335.725275)scale(0.1 -0.1)">
       <use xlink:href="#DejaVuSans-32"/>
      </g>
     </g>
    </g>
    <g id="ytick_3">
     <g id="line2d_67">
      <g>
       <use style="stroke:#000000;stroke-width:0.8;" x="54" xlink:href="#m01bd64b04b" y="279.372113"/>
      </g>
     </g>
     <g id="text_11">
      <!-- 4 -->
      <g transform="translate(40.6375 283.171332)scale(0.1 -0.1)">
       <use xlink:href="#DejaVuSans-34"/>
      </g>
     </g>
    </g>
    <g id="ytick_4">
     <g id="line2d_68">
      <g>
       <use style="stroke:#000000;stroke-width:0.8;" x="54" xlink:href="#m01bd64b04b" y="226.81817"/>
      </g>
     </g>
     <g id="text_12">
      <!-- 6 -->
      <g transform="translate(40.6375 230.617389)scale(0.1 -0.1)">
       <use xlink:href="#DejaVuSans-36"/>
      </g>
     </g>
    </g>
    <g id="ytick_5">
     <g id="line2d_69">
      <g>
       <use style="stroke:#000000;stroke-width:0.8;" x="54" xlink:href="#m01bd64b04b" y="174.264227"/>
      </g>
     </g>
     <g id="text_13">
      <!-- 8 -->
      <defs>
       <path d="M 31.78125 34.625 
Q 24.75 34.625 20.71875 30.859375 
Q 16.703125 27.09375 16.703125 20.515625 
Q 16.703125 13.921875 20.71875 10.15625 
Q 24.75 6.390625 31.78125 6.390625 
Q 38.8125 6.390625 42.859375 10.171875 
Q 46.921875 13.96875 46.921875 20.515625 
Q 46.921875 27.09375 42.890625 30.859375 
Q 38.875 34.625 31.78125 34.625 
z
M 21.921875 38.8125 
Q 15.578125 40.375 12.03125 44.71875 
Q 8.5 49.078125 8.5 55.328125 
Q 8.5 64.0625 14.71875 69.140625 
Q 20.953125 74.21875 31.78125 74.21875 
Q 42.671875 74.21875 48.875 69.140625 
Q 55.078125 64.0625 55.078125 55.328125 
Q 55.078125 49.078125 51.53125 44.71875 
Q 48 40.375 41.703125 38.8125 
Q 48.828125 37.15625 52.796875 32.3125 
Q 56.78125 27.484375 56.78125 20.515625 
Q 56.78125 9.90625 50.3125 4.234375 
Q 43.84375 -1.421875 31.78125 -1.421875 
Q 19.734375 -1.421875 13.25 4.234375 
Q 6.78125 9.90625 6.78125 20.515625 
Q 6.78125 27.484375 10.78125 32.3125 
Q 14.796875 37.15625 21.921875 38.8125 
z
M 18.3125 54.390625 
Q 18.3125 48.734375 21.84375 45.5625 
Q 25.390625 42.390625 31.78125 42.390625 
Q 38.140625 42.390625 41.71875 45.5625 
Q 45.3125 48.734375 45.3125 54.390625 
Q 45.3125 60.0625 41.71875 63.234375 
Q 38.140625 66.40625 31.78125 66.40625 
Q 25.390625 66.40625 21.84375 63.234375 
Q 18.3125 60.0625 18.3125 54.390625 
z
" id="DejaVuSans-38"/>
      </defs>
      <g transform="translate(40.6375 178.063446)scale(0.1 -0.1)">
       <use xlink:href="#DejaVuSans-38"/>
      </g>
     </g>
    </g>
    <g id="ytick_6">
     <g id="line2d_70">
      <g>
       <use style="stroke:#000000;stroke-width:0.8;" x="54" xlink:href="#m01bd64b04b" y="121.710283"/>
      </g>
     </g>
     <g id="text_14">
      <!-- 10 -->
      <g transform="translate(34.275 125.509502)scale(0.1 -0.1)">
       <use xlink:href="#DejaVuSans-31"/>
       <use x="63.623047" xlink:href="#DejaVuSans-30"/>
      </g>
     </g>
    </g>
    <g id="ytick_7">
     <g id="line2d_71">
      <g>
       <use style="stroke:#000000;stroke-width:0.8;" x="54" xlink:href="#m01bd64b04b" y="69.15634"/>
      </g>
     </g>
     <g id="text_15">
      <!-- 12 -->
      <g transform="translate(34.275 72.955559)scale(0.1 -0.1)">
       <use xlink:href="#DejaVuSans-31"/>
       <use x="63.623047" xlink:href="#DejaVuSans-32"/>
      </g>
     </g>
    </g>
    <g id="text_16">
     <!-- force -->
     <defs>
      <path d="M 30.609375 48.390625 
Q 23.390625 48.390625 19.1875 42.75 
Q 14.984375 37.109375 14.984375 27.296875 
Q 14.984375 17.484375 19.15625 11.84375 
Q 23.34375 6.203125 30.609375 6.203125 
Q 37.796875 6.203125 41.984375 11.859375 
Q 46.1875 17.53125 46.1875 27.296875 
Q 46.1875 37.015625 41.984375 42.703125 
Q 37.796875 48.390625 30.609375 48.390625 
z
M 30.609375 56 
Q 42.328125 56 49.015625 48.375 
Q 55.71875 40.765625 55.71875 27.296875 
Q 55.71875 13.875 49.015625 6.21875 
Q 42.328125 -1.421875 30.609375 -1.421875 
Q 18.84375 -1.421875 12.171875 6.21875 
Q 5.515625 13.875 5.515625 27.296875 
Q 5.515625 40.765625 12.171875 48.375 
Q 18.84375 56 30.609375 56 
z
" id="DejaVuSans-6f"/>
      <path d="M 41.109375 46.296875 
Q 39.59375 47.171875 37.8125 47.578125 
Q 36.03125 48 33.890625 48 
Q 26.265625 48 22.1875 43.046875 
Q 18.109375 38.09375 18.109375 28.8125 
L 18.109375 0 
L 9.078125 0 
L 9.078125 54.6875 
L 18.109375 54.6875 
L 18.109375 46.1875 
Q 20.953125 51.171875 25.484375 53.578125 
Q 30.03125 56 36.53125 56 
Q 37.453125 56 38.578125 55.875 
Q 39.703125 55.765625 41.0625 55.515625 
z
" id="DejaVuSans-72"/>
      <path d="M 56.203125 29.59375 
L 56.203125 25.203125 
L 14.890625 25.203125 
Q 15.484375 15.921875 20.484375 11.0625 
Q 25.484375 6.203125 34.421875 6.203125 
Q 39.59375 6.203125 44.453125 7.46875 
Q 49.3125 8.734375 54.109375 11.28125 
L 54.109375 2.78125 
Q 49.265625 0.734375 44.1875 -0.34375 
Q 39.109375 -1.421875 33.890625 -1.421875 
Q 20.796875 -1.421875 13.15625 6.1875 
Q 5.515625 13.8125 5.515625 26.8125 
Q 5.515625 40.234375 12.765625 48.109375 
Q 20.015625 56 32.328125 56 
Q 43.359375 56 49.78125 48.890625 
Q 56.203125 41.796875 56.203125 29.59375 
z
M 47.21875 32.234375 
Q 47.125 39.59375 43.09375 43.984375 
Q 39.0625 48.390625 32.421875 48.390625 
Q 24.90625 48.390625 20.390625 44.140625 
Q 15.875 39.890625 15.1875 32.171875 
z
" id="DejaVuSans-65"/>
     </defs>
     <g transform="translate(28.195312 230.859219)rotate(-90)scale(0.1 -0.1)">
      <use xlink:href="#DejaVuSans-66"/>
      <use x="35.205078" xlink:href="#DejaVuSans-6f"/>
      <use x="96.386719" xlink:href="#DejaVuSans-72"/>
      <use x="137.46875" xlink:href="#DejaVuSans-63"/>
      <use x="192.449219" xlink:href="#DejaVuSans-65"/>
     </g>
    </g>
   </g>
   <g id="line2d_72">
    <path clip-path="url(#pa871419be4)" d="M 54 69.389172 
L 63.879555 69.538155 
L 65.140931 69.563037 
L 67.980836 69.625146 
L 70.339293 69.683862 
L 73.347662 69.769531 
L 78.226052 69.93893 
L 80.278141 70.023459 
L 86.378155 70.33235 
L 91.963818 70.710347 
L 95.415015 71.002036 
L 97.574481 71.211605 
L 99.909524 71.464871 
L 102.351488 71.762904 
L 102.420625 71.771876 
L 102.619018 71.79779 
L 102.798576 71.821464 
L 102.811448 71.823169 
L 103.737458 71.948718 
L 104.459354 72.050641 
L 109.22621 72.822523 
L 109.70071 72.909694 
L 110.266812 73.016376 
L 114.621837 73.943504 
L 114.778954 73.980766 
L 115.473014 74.148815 
L 116.727535 74.467301 
L 120.255552 75.473817 
L 121.232732 75.784215 
L 122.378676 76.167262 
L 126.725669 77.826721 
L 128.918707 78.80311 
L 130.044257 79.344783 
L 133.664222 81.293294 
L 136.902985 83.335862 
L 139.517099 85.21945 
L 140.155458 85.714197 
L 148.240351 93.350837 
L 149.527484 94.831602 
L 149.535844 94.841484 
L 150.643156 96.181447 
L 156.737476 104.744669 
L 160.414307 110.989793 
L 169.753349 131.055319 
L 173.492169 140.908099 
L 175.143394 145.597405 
L 176.939773 150.930644 
L 181.37819 165.102391 
L 185.265528 178.577204 
L 196.437853 221.119212 
L 197.883516 226.827742 
L 199.010604 231.279053 
L 202.367291 244.466386 
L 213.89406 286.887222 
L 214.31527 288.303897 
L 216.54115 295.593659 
L 221.38893 310.251641 
L 222.522002 313.425722 
L 224.377836 318.413786 
L 228.808229 329.264264 
L 230.856633 333.784994 
L 230.958332 334.001446 
L 231.03079 334.155205 
L 234.056331 340.241832 
L 238.511821 348.072095 
L 238.98562 348.829779 
L 246.139696 358.692229 
L 248.958415 361.845441 
L 251.733621 364.598933 
L 253.597677 366.26959 
L 257.473364 369.32973 
L 258.562073 370.097468 
L 259.459312 370.7022 
L 260.889396 371.616172 
L 261.516624 371.998466 
L 265.752683 374.308714 
L 267.77362 375.259721 
L 275.040436 378.016255 
L 283.102771 380.135032 
L 287.10488 380.915697 
L 296.413537 382.234996 
L 299.238911 382.52955 
L 300.590828 382.656575 
L 308.815301 383.270122 
L 316.215349 383.644002 
L 320.815159 383.815747 
L 333.069441 384.120206 
L 336.80954 384.18164 
L 338.695243 384.20852 
L 341.042676 384.238626 
L 349.110472 384.318856 
L 349.689893 384.323465 
L 350.25317 384.32782 
L 356.132697 384.366642 
L 361.937372 384.395246 
L 362.366485 384.397049 
L 364.180384 384.404255 
L 364.351738 384.404902 
L 372.66487 384.430485 
L 372.713589 384.430606 
" style="fill:none;stroke:#1f77b4;stroke-linecap:square;stroke-width:1.5;"/>
   </g>
   <g id="line2d_73">
    <path clip-path="url(#pa871419be4)" d="M 54 69.226226 
L 63.879555 69.270982 
L 65.140931 69.27846 
L 67.980836 69.297128 
L 70.339293 69.314782 
L 73.347662 69.340548 
L 78.226052 69.391526 
L 80.278141 69.416977 
L 86.378155 69.510067 
L 91.963818 69.624156 
L 95.415015 69.712327 
L 97.574481 69.775746 
L 99.909524 69.852467 
L 102.351488 69.942861 
L 102.420625 69.945583 
L 102.619018 69.953449 
L 102.798576 69.960636 
L 102.811448 69.961153 
L 103.737458 69.999279 
L 104.459354 70.030245 
L 109.22621 70.26522 
L 109.70071 70.291807 
L 110.266812 70.32436 
L 114.621837 70.607916 
L 114.778954 70.619337 
L 115.473014 70.670868 
L 116.727535 70.768637 
L 120.255552 71.078541 
L 121.232732 71.174395 
L 122.378676 71.292869 
L 126.725669 71.808502 
L 128.918707 72.113704 
L 130.044257 72.283605 
L 133.664222 72.898246 
L 136.902985 73.54845 
L 139.517099 74.153466 
L 140.155458 74.313252 
L 148.240351 76.826665 
L 149.527484 77.324483 
L 149.535844 77.327817 
L 150.643156 77.78132 
L 156.737476 80.74868 
L 160.414307 82.991188 
L 169.753349 90.684226 
L 173.492169 94.760165 
L 175.143394 96.775481 
L 176.939773 99.129846 
L 181.37819 105.730187 
L 185.265528 112.514683 
L 196.437853 137.953999 
L 197.883516 141.930135 
L 199.010604 145.139834 
L 202.367291 155.25837 
L 213.89406 195.584744 
L 214.31527 197.186697 
L 216.54115 205.750204 
L 221.38893 224.774452 
L 222.522002 229.250287 
L 224.377836 236.569388 
L 228.808229 253.815275 
L 230.856633 261.594913 
L 230.958332 261.976908 
L 231.03079 262.248803 
L 234.056331 273.386362 
L 238.511821 288.876884 
L 238.98562 290.451172 
L 246.139696 312.295357 
L 248.958415 319.85551 
L 251.733621 326.708839 
L 253.597677 330.987 
L 257.473364 339.069973 
L 258.562073 341.149773 
L 259.459312 342.803086 
L 260.889396 345.327494 
L 261.516624 346.392668 
L 265.752683 352.948918 
L 267.77362 355.708749 
L 275.040436 363.917687 
L 283.102771 370.44793 
L 287.10488 372.904302 
L 296.413537 377.118939 
L 299.238911 378.071001 
L 300.590828 378.482835 
L 308.815301 380.482858 
L 316.215349 381.710472 
L 320.815159 382.276654 
L 333.069441 383.28387 
L 336.80954 383.487658 
L 338.695243 383.576882 
L 341.042676 383.676856 
L 349.110472 383.943492 
L 349.689893 383.958821 
L 350.25317 383.973304 
L 356.132697 384.102458 
L 361.937372 384.197665 
L 362.366485 384.203666 
L 364.180384 384.227658 
L 364.351738 384.229814 
L 372.66487 384.315011 
L 372.713589 384.315413 
" style="fill:none;stroke:#1f77b4;stroke-linecap:square;stroke-width:1.5;"/>
   </g>
   <g id="patch_3">
    <path d="M 54 384.48 
L 54 51.84 
" style="fill:none;stroke:#000000;stroke-linecap:square;stroke-linejoin:miter;stroke-width:0.8;"/>
   </g>
   <g id="patch_4">
    <path d="M 388.8 384.48 
L 388.8 51.84 
" style="fill:none;stroke:#000000;stroke-linecap:square;stroke-linejoin:miter;stroke-width:0.8;"/>
   </g>
   <g id="patch_5">
    <path d="M 54 384.48 
L 388.8 384.48 
" style="fill:none;stroke:#000000;stroke-linecap:square;stroke-linejoin:miter;stroke-width:0.8;"/>
   </g>
   <g id="patch_6">
    <path d="M 54 51.84 
L 388.8 51.84 
" style="fill:none;stroke:#000000;stroke-linecap:square;stroke-linejoin:miter;stroke-width:0.8;"/>
   </g>
   <g id="text_17">
    <!-- ../data_summary/runs1_new -->
    <defs>
     <path d="M 10.6875 12.40625 
L 21 12.40625 
L 21 0 
L 10.6875 0 
z
" id="DejaVuSans-2e"/>
     <path d="M 25.390625 72.90625 
L 33.6875 72.90625 
L 8.296875 -9.28125 
L 0 -9.28125 
z
" id="DejaVuSans-2f"/>
     <path d="M 34.28125 27.484375 
Q 23.390625 27.484375 19.1875 25 
Q 14.984375 22.515625 14.984375 16.5 
Q 14.984375 11.71875 18.140625 8.90625 
Q 21.296875 6.109375 26.703125 6.109375 
Q 34.1875 6.109375 38.703125 11.40625 
Q 43.21875 16.703125 43.21875 25.484375 
L 43.21875 27.484375 
z
M 52.203125 31.203125 
L 52.203125 0 
L 43.21875 0 
L 43.21875 8.296875 
Q 40.140625 3.328125 35.546875 0.953125 
Q 30.953125 -1.421875 24.3125 -1.421875 
Q 15.921875 -1.421875 10.953125 3.296875 
Q 6 8.015625 6 15.921875 
Q 6 25.140625 12.171875 29.828125 
Q 18.359375 34.515625 30.609375 34.515625 
L 43.21875 34.515625 
L 43.21875 35.40625 
Q 43.21875 41.609375 39.140625 45 
Q 35.0625 48.390625 27.6875 48.390625 
Q 23 48.390625 18.546875 47.265625 
Q 14.109375 46.140625 10.015625 43.890625 
L 10.015625 52.203125 
Q 14.9375 54.109375 19.578125 55.046875 
Q 24.21875 56 28.609375 56 
Q 40.484375 56 46.34375 49.84375 
Q 52.203125 43.703125 52.203125 31.203125 
z
" id="DejaVuSans-61"/>
     <path d="M 18.3125 70.21875 
L 18.3125 54.6875 
L 36.8125 54.6875 
L 36.8125 47.703125 
L 18.3125 47.703125 
L 18.3125 18.015625 
Q 18.3125 11.328125 20.140625 9.421875 
Q 21.96875 7.515625 27.59375 7.515625 
L 36.8125 7.515625 
L 36.8125 0 
L 27.59375 0 
Q 17.1875 0 13.234375 3.875 
Q 9.28125 7.765625 9.28125 18.015625 
L 9.28125 47.703125 
L 2.6875 47.703125 
L 2.6875 54.6875 
L 9.28125 54.6875 
L 9.28125 70.21875 
z
" id="DejaVuSans-74"/>
     <path d="M 44.28125 53.078125 
L 44.28125 44.578125 
Q 40.484375 46.53125 36.375 47.5 
Q 32.28125 48.484375 27.875 48.484375 
Q 21.1875 48.484375 17.84375 46.4375 
Q 14.5 44.390625 14.5 40.28125 
Q 14.5 37.15625 16.890625 35.375 
Q 19.28125 33.59375 26.515625 31.984375 
L 29.59375 31.296875 
Q 39.15625 29.25 43.1875 25.515625 
Q 47.21875 21.78125 47.21875 15.09375 
Q 47.21875 7.46875 41.1875 3.015625 
Q 35.15625 -1.421875 24.609375 -1.421875 
Q 20.21875 -1.421875 15.453125 -0.5625 
Q 10.6875 0.296875 5.421875 2 
L 5.421875 11.28125 
Q 10.40625 8.6875 15.234375 7.390625 
Q 20.0625 6.109375 24.8125 6.109375 
Q 31.15625 6.109375 34.5625 8.28125 
Q 37.984375 10.453125 37.984375 14.40625 
Q 37.984375 18.0625 35.515625 20.015625 
Q 33.0625 21.96875 24.703125 23.78125 
L 21.578125 24.515625 
Q 13.234375 26.265625 9.515625 29.90625 
Q 5.8125 33.546875 5.8125 39.890625 
Q 5.8125 47.609375 11.28125 51.796875 
Q 16.75 56 26.8125 56 
Q 31.78125 56 36.171875 55.265625 
Q 40.578125 54.546875 44.28125 53.078125 
z
" id="DejaVuSans-73"/>
     <path d="M 8.5 21.578125 
L 8.5 54.6875 
L 17.484375 54.6875 
L 17.484375 21.921875 
Q 17.484375 14.15625 20.5 10.265625 
Q 23.53125 6.390625 29.59375 6.390625 
Q 36.859375 6.390625 41.078125 11.03125 
Q 45.3125 15.671875 45.3125 23.6875 
L 45.3125 54.6875 
L 54.296875 54.6875 
L 54.296875 0 
L 45.3125 0 
L 45.3125 8.40625 
Q 42.046875 3.421875 37.71875 1 
Q 33.40625 -1.421875 27.6875 -1.421875 
Q 18.265625 -1.421875 13.375 4.4375 
Q 8.5 10.296875 8.5 21.578125 
z
M 31.109375 56 
z
" id="DejaVuSans-75"/>
     <path d="M 52 44.1875 
Q 55.375 50.25 60.0625 53.125 
Q 64.75 56 71.09375 56 
Q 79.640625 56 84.28125 50.015625 
Q 88.921875 44.046875 88.921875 33.015625 
L 88.921875 0 
L 79.890625 0 
L 79.890625 32.71875 
Q 79.890625 40.578125 77.09375 44.375 
Q 74.3125 48.1875 68.609375 48.1875 
Q 61.625 48.1875 57.5625 43.546875 
Q 53.515625 38.921875 53.515625 30.90625 
L 53.515625 0 
L 44.484375 0 
L 44.484375 32.71875 
Q 44.484375 40.625 41.703125 44.40625 
Q 38.921875 48.1875 33.109375 48.1875 
Q 26.21875 48.1875 22.15625 43.53125 
Q 18.109375 38.875 18.109375 30.90625 
L 18.109375 0 
L 9.078125 0 
L 9.078125 54.6875 
L 18.109375 54.6875 
L 18.109375 46.1875 
Q 21.1875 51.21875 25.484375 53.609375 
Q 29.78125 56 35.6875 56 
Q 41.65625 56 45.828125 52.96875 
Q 50 49.953125 52 44.1875 
z
" id="DejaVuSans-6d"/>
     <path d="M 32.171875 -5.078125 
Q 28.375 -14.84375 24.75 -17.8125 
Q 21.140625 -20.796875 15.09375 -20.796875 
L 7.90625 -20.796875 
L 7.90625 -13.28125 
L 13.1875 -13.28125 
Q 16.890625 -13.28125 18.9375 -11.515625 
Q 21 -9.765625 23.484375 -3.21875 
L 25.09375 0.875 
L 2.984375 54.6875 
L 12.5 54.6875 
L 29.59375 11.921875 
L 46.6875 54.6875 
L 56.203125 54.6875 
z
" id="DejaVuSans-79"/>
     <path d="M 54.890625 33.015625 
L 54.890625 0 
L 45.90625 0 
L 45.90625 32.71875 
Q 45.90625 40.484375 42.875 44.328125 
Q 39.84375 48.1875 33.796875 48.1875 
Q 26.515625 48.1875 22.3125 43.546875 
Q 18.109375 38.921875 18.109375 30.90625 
L 18.109375 0 
L 9.078125 0 
L 9.078125 54.6875 
L 18.109375 54.6875 
L 18.109375 46.1875 
Q 21.34375 51.125 25.703125 53.5625 
Q 30.078125 56 35.796875 56 
Q 45.21875 56 50.046875 50.171875 
Q 54.890625 44.34375 54.890625 33.015625 
z
" id="DejaVuSans-6e"/>
     <path d="M 4.203125 54.6875 
L 13.1875 54.6875 
L 24.421875 12.015625 
L 35.59375 54.6875 
L 46.1875 54.6875 
L 57.421875 12.015625 
L 68.609375 54.6875 
L 77.59375 54.6875 
L 63.28125 0 
L 52.6875 0 
L 40.921875 44.828125 
L 29.109375 0 
L 18.5 0 
z
" id="DejaVuSans-77"/>
    </defs>
    <g transform="translate(136.30125 45.84)scale(0.12 -0.12)">
     <use xlink:href="#DejaVuSans-2e"/>
     <use x="31.787109" xlink:href="#DejaVuSans-2e"/>
     <use x="63.574219" xlink:href="#DejaVuSans-2f"/>
     <use x="97.265625" xlink:href="#DejaVuSans-64"/>
     <use x="160.742188" xlink:href="#DejaVuSans-61"/>
     <use x="222.021484" xlink:href="#DejaVuSans-74"/>
     <use x="261.230469" xlink:href="#DejaVuSans-61"/>
     <use x="322.509766" xlink:href="#DejaVuSans-5f"/>
     <use x="372.509766" xlink:href="#DejaVuSans-73"/>
     <use x="424.609375" xlink:href="#DejaVuSans-75"/>
     <use x="487.988281" xlink:href="#DejaVuSans-6d"/>
     <use x="585.400391" xlink:href="#DejaVuSans-6d"/>
     <use x="682.8125" xlink:href="#DejaVuSans-61"/>
     <use x="744.091797" xlink:href="#DejaVuSans-72"/>
     <use x="785.205078" xlink:href="#DejaVuSans-79"/>
     <use x="844.384766" xlink:href="#DejaVuSans-2f"/>
     <use x="878.076172" xlink:href="#DejaVuSans-72"/>
     <use x="919.189453" xlink:href="#DejaVuSans-75"/>
     <use x="982.568359" xlink:href="#DejaVuSans-6e"/>
     <use x="1045.947266" xlink:href="#DejaVuSans-73"/>
     <use x="1098.046875" xlink:href="#DejaVuSans-31"/>
     <use x="1161.669922" xlink:href="#DejaVuSans-5f"/>
     <use x="1211.669922" xlink:href="#DejaVuSans-6e"/>
     <use x="1275.048828" xlink:href="#DejaVuSans-65"/>
     <use x="1336.572266" xlink:href="#DejaVuSans-77"/>
    </g>
   </g>
   <g id="legend_1">
    <g id="patch_7">
     <path d="M 247.442187 74.79625 
L 381.8 74.79625 
Q 383.8 74.79625 383.8 72.79625 
L 383.8 58.84 
Q 383.8 56.84 381.8 56.84 
L 247.442187 56.84 
Q 245.442187 56.84 245.442187 58.84 
L 245.442187 72.79625 
Q 245.442187 74.79625 247.442187 74.79625 
z
" style="fill:#ffffff;opacity:0.8;stroke:#cccccc;stroke-linejoin:miter;"/>
    </g>
    <g id="PathCollection_2">
     <g>
      <use style="fill:#1f77b4;stroke:#1f77b4;" x="259.442187" xlink:href="#m77a81d57e3" y="65.813437"/>
     </g>
    </g>
    <g id="text_18">
     <!-- couple_stiffness 100 -->
     <defs>
      <path d="M 18.109375 8.203125 
L 18.109375 -20.796875 
L 9.078125 -20.796875 
L 9.078125 54.6875 
L 18.109375 54.6875 
L 18.109375 46.390625 
Q 20.953125 51.265625 25.265625 53.625 
Q 29.59375 56 35.59375 56 
Q 45.5625 56 51.78125 48.09375 
Q 58.015625 40.1875 58.015625 27.296875 
Q 58.015625 14.40625 51.78125 6.484375 
Q 45.5625 -1.421875 35.59375 -1.421875 
Q 29.59375 -1.421875 25.265625 0.953125 
Q 20.953125 3.328125 18.109375 8.203125 
z
M 48.6875 27.296875 
Q 48.6875 37.203125 44.609375 42.84375 
Q 40.53125 48.484375 33.40625 48.484375 
Q 26.265625 48.484375 22.1875 42.84375 
Q 18.109375 37.203125 18.109375 27.296875 
Q 18.109375 17.390625 22.1875 11.75 
Q 26.265625 6.109375 33.40625 6.109375 
Q 40.53125 6.109375 44.609375 11.75 
Q 48.6875 17.390625 48.6875 27.296875 
z
" id="DejaVuSans-70"/>
      <path id="DejaVuSans-20"/>
     </defs>
     <g transform="translate(277.442187 68.438437)scale(0.1 -0.1)">
      <use xlink:href="#DejaVuSans-63"/>
      <use x="54.980469" xlink:href="#DejaVuSans-6f"/>
      <use x="116.162109" xlink:href="#DejaVuSans-75"/>
      <use x="179.541016" xlink:href="#DejaVuSans-70"/>
      <use x="243.017578" xlink:href="#DejaVuSans-6c"/>
      <use x="270.800781" xlink:href="#DejaVuSans-65"/>
      <use x="332.324219" xlink:href="#DejaVuSans-5f"/>
      <use x="382.324219" xlink:href="#DejaVuSans-73"/>
      <use x="434.423828" xlink:href="#DejaVuSans-74"/>
      <use x="473.632812" xlink:href="#DejaVuSans-69"/>
      <use x="501.416016" xlink:href="#DejaVuSans-66"/>
      <use x="536.621094" xlink:href="#DejaVuSans-66"/>
      <use x="571.826172" xlink:href="#DejaVuSans-6e"/>
      <use x="635.205078" xlink:href="#DejaVuSans-65"/>
      <use x="696.728516" xlink:href="#DejaVuSans-73"/>
      <use x="748.828125" xlink:href="#DejaVuSans-73"/>
      <use x="800.927734" xlink:href="#DejaVuSans-20"/>
      <use x="832.714844" xlink:href="#DejaVuSans-31"/>
      <use x="896.337891" xlink:href="#DejaVuSans-30"/>
      <use x="959.960938" xlink:href="#DejaVuSans-30"/>
     </g>
    </g>
   </g>
  </g>
 </g>
 <defs>
  <clipPath id="pa871419be4">
   <rect height="332.64" width="334.8" x="54" y="51.84"/>
  </clipPath>
 </defs>
</svg>
