<?xml version="1.0" encoding="utf-8" standalone="no"?>
<!DOCTYPE svg PUBLIC "-//W3C//DTD SVG 1.1//EN"
  "http://www.w3.org/Graphics/SVG/1.1/DTD/svg11.dtd">
<!-- Created with matplotlib (http://matplotlib.org/) -->
<svg height="432pt" version="1.1" viewBox="0 0 432 432" width="432pt" xmlns="http://www.w3.org/2000/svg" xmlns:xlink="http://www.w3.org/1999/xlink">
 <defs>
  <style type="text/css">
*{stroke-linecap:butt;stroke-linejoin:round;}
  </style>
 </defs>
 <g id="figure_1">
  <g id="patch_1">
   <path d="M 0 432 
L 432 432 
L 432 0 
L 0 0 
z
" style="fill:#ffffff;"/>
  </g>
  <g id="axes_1">
   <g id="patch_2">
    <path d="M 54 384.48 
L 388.8 384.48 
L 388.8 51.84 
L 54 51.84 
z
" style="fill:#ffffff;"/>
   </g>
   <g id="PathCollection_1">
    <defs>
     <path d="M 0 3 
C 0.795609 3 1.55874 2.683901 2.12132 2.12132 
C 2.683901 1.55874 3 0.795609 3 0 
C 3 -0.795609 2.683901 -1.55874 2.12132 -2.12132 
C 1.55874 -2.683901 0.795609 -3 0 -3 
C -0.795609 -3 -1.55874 -2.683901 -2.12132 -2.12132 
C -2.683901 -1.55874 -3 -0.795609 -3 0 
C -3 0.795609 -2.683901 1.55874 -2.12132 2.12132 
C -1.55874 2.683901 -0.795609 3 0 3 
z
" id="md5ca9861d7" style="stroke:#1f77b4;"/>
    </defs>
    <g clip-path="url(#pff0550342a)">
     <use style="fill:#1f77b4;stroke:#1f77b4;" x="328.075134" xlink:href="#md5ca9861d7" y="258.427429"/>
     <use style="fill:#1f77b4;stroke:#1f77b4;" x="361.138166" xlink:href="#md5ca9861d7" y="235.630056"/>
     <use style="fill:#1f77b4;stroke:#1f77b4;" x="141.878059" xlink:href="#md5ca9861d7" y="154.618844"/>
     <use style="fill:#1f77b4;stroke:#1f77b4;" x="225.405719" xlink:href="#md5ca9861d7" y="227.038047"/>
     <use style="fill:#1f77b4;stroke:#1f77b4;" x="65.311037" xlink:href="#md5ca9861d7" y="91.549761"/>
     <use style="fill:#1f77b4;stroke:#1f77b4;" x="87.933112" xlink:href="#md5ca9861d7" y="114.860521"/>
     <use style="fill:#1f77b4;stroke:#1f77b4;" x="147.098538" xlink:href="#md5ca9861d7" y="218.017897"/>
     <use style="fill:#1f77b4;stroke:#1f77b4;" x="66.181117" xlink:href="#md5ca9861d7" y="89.266688"/>
     <use style="fill:#1f77b4;stroke:#1f77b4;" x="349.827129" xlink:href="#md5ca9861d7" y="306.7561"/>
     <use style="fill:#1f77b4;stroke:#1f77b4;" x="269.779788" xlink:href="#md5ca9861d7" y="286.913272"/>
     <use style="fill:#1f77b4;stroke:#1f77b4;" x="218.445081" xlink:href="#md5ca9861d7" y="299.710188"/>
     <use style="fill:#1f77b4;stroke:#1f77b4;" x="206.263964" xlink:href="#md5ca9861d7" y="209.766691"/>
     <use style="fill:#1f77b4;stroke:#1f77b4;" x="156.669415" xlink:href="#md5ca9861d7" y="161.560646"/>
     <use style="fill:#1f77b4;stroke:#1f77b4;" x="112.295346" xlink:href="#md5ca9861d7" y="139.030359"/>
     <use style="fill:#1f77b4;stroke:#1f77b4;" x="114.035506" xlink:href="#md5ca9861d7" y="169.734818"/>
     <use style="fill:#1f77b4;stroke:#1f77b4;" x="301.972741" xlink:href="#md5ca9861d7" y="240.445297"/>
     <use style="fill:#1f77b4;stroke:#1f77b4;" x="61.830718" xlink:href="#md5ca9861d7" y="86.421318"/>
     <use style="fill:#1f77b4;stroke:#1f77b4;" x="328.945214" xlink:href="#md5ca9861d7" y="305.056808"/>
     <use style="fill:#1f77b4;stroke:#1f77b4;" x="134.047341" xlink:href="#md5ca9861d7" y="195.890773"/>
     <use style="fill:#1f77b4;stroke:#1f77b4;" x="275.000267" xlink:href="#md5ca9861d7" y="225.774409"/>
     <use style="fill:#1f77b4;stroke:#1f77b4;" x="369.838964" xlink:href="#md5ca9861d7" y="278.611583"/>
     <use style="fill:#1f77b4;stroke:#1f77b4;" x="169.720612" xlink:href="#md5ca9861d7" y="213.035836"/>
     <use style="fill:#1f77b4;stroke:#1f77b4;" x="89.673271" xlink:href="#md5ca9861d7" y="114.826633"/>
     <use style="fill:#1f77b4;stroke:#1f77b4;" x="284.571145" xlink:href="#md5ca9861d7" y="249.814459"/>
     <use style="fill:#1f77b4;stroke:#1f77b4;" x="114.905585" xlink:href="#md5ca9861d7" y="157.593477"/>
     <use style="fill:#1f77b4;stroke:#1f77b4;" x="250.638033" xlink:href="#md5ca9861d7" y="244.688111"/>
     <use style="fill:#1f77b4;stroke:#1f77b4;" x="77.492154" xlink:href="#md5ca9861d7" y="205.462214"/>
     <use style="fill:#1f77b4;stroke:#1f77b4;" x="370.709044" xlink:href="#md5ca9861d7" y="256.185056"/>
     <use style="fill:#1f77b4;stroke:#1f77b4;" x="221.9254" xlink:href="#md5ca9861d7" y="194.782775"/>
     <use style="fill:#1f77b4;stroke:#1f77b4;" x="181.901729" xlink:href="#md5ca9861d7" y="226.413914"/>
     <use style="fill:#1f77b4;stroke:#1f77b4;" x="74.881915" xlink:href="#md5ca9861d7" y="125.643022"/>
     <use style="fill:#1f77b4;stroke:#1f77b4;" x="188.862368" xlink:href="#md5ca9861d7" y="214.668225"/>
     <use style="fill:#1f77b4;stroke:#1f77b4;" x="132.307181" xlink:href="#md5ca9861d7" y="159.712876"/>
     <use style="fill:#1f77b4;stroke:#1f77b4;" x="177.55133" xlink:href="#md5ca9861d7" y="179.095595"/>
     <use style="fill:#1f77b4;stroke:#1f77b4;" x="212.354522" xlink:href="#md5ca9861d7" y="209.289813"/>
     <use style="fill:#1f77b4;stroke:#1f77b4;" x="182.771809" xlink:href="#md5ca9861d7" y="208.73398"/>
     <use style="fill:#1f77b4;stroke:#1f77b4;" x="174.071011" xlink:href="#md5ca9861d7" y="283.424903"/>
     <use style="fill:#1f77b4;stroke:#1f77b4;" x="313.283778" xlink:href="#md5ca9861d7" y="292.872671"/>
     <use style="fill:#1f77b4;stroke:#1f77b4;" x="58.350399" xlink:href="#md5ca9861d7" y="96.567458"/>
     <use style="fill:#1f77b4;stroke:#1f77b4;" x="173.200931" xlink:href="#md5ca9861d7" y="185.686464"/>
     <use style="fill:#1f77b4;stroke:#1f77b4;" x="93.153591" xlink:href="#md5ca9861d7" y="122.628212"/>
     <use style="fill:#1f77b4;stroke:#1f77b4;" x="67.921277" xlink:href="#md5ca9861d7" y="98.232687"/>
     <use style="fill:#1f77b4;stroke:#1f77b4;" x="205.393884" xlink:href="#md5ca9861d7" y="192.276634"/>
     <use style="fill:#1f77b4;stroke:#1f77b4;" x="237.586836" xlink:href="#md5ca9861d7" y="228.943986"/>
     <use style="fill:#1f77b4;stroke:#1f77b4;" x="294.142022" xlink:href="#md5ca9861d7" y="247.471121"/>
     <use style="fill:#1f77b4;stroke:#1f77b4;" x="253.248272" xlink:href="#md5ca9861d7" y="249.560474"/>
     <use style="fill:#1f77b4;stroke:#1f77b4;" x="92.283511" xlink:href="#md5ca9861d7" y="143.033162"/>
     <use style="fill:#1f77b4;stroke:#1f77b4;" x="366.358645" xlink:href="#md5ca9861d7" y="244.021531"/>
     <use style="fill:#1f77b4;stroke:#1f77b4;" x="152.319016" xlink:href="#md5ca9861d7" y="194.667311"/>
     <use style="fill:#1f77b4;stroke:#1f77b4;" x="147.968617" xlink:href="#md5ca9861d7" y="168.360432"/>
    </g>
   </g>
   <g id="PathCollection_2">
    <defs>
     <path d="M 0 3 
C 0.795609 3 1.55874 2.683901 2.12132 2.12132 
C 2.683901 1.55874 3 0.795609 3 0 
C 3 -0.795609 2.683901 -1.55874 2.12132 -2.12132 
C 1.55874 -2.683901 0.795609 -3 0 -3 
C -0.795609 -3 -1.55874 -2.683901 -2.12132 -2.12132 
C -2.683901 -1.55874 -3 -0.795609 -3 0 
C -3 0.795609 -2.683901 1.55874 -2.12132 2.12132 
C -1.55874 2.683901 -0.795609 3 0 3 
z
" id="m1191670ce3" style="stroke:#ff7f0e;"/>
    </defs>
    <g clip-path="url(#pff0550342a)">
     <use style="fill:#ff7f0e;stroke:#ff7f0e;" x="328.075134" xlink:href="#m1191670ce3" y="228.237928"/>
     <use style="fill:#ff7f0e;stroke:#ff7f0e;" x="361.138166" xlink:href="#m1191670ce3" y="241.610416"/>
     <use style="fill:#ff7f0e;stroke:#ff7f0e;" x="141.878059" xlink:href="#m1191670ce3" y="137.658593"/>
     <use style="fill:#ff7f0e;stroke:#ff7f0e;" x="225.405719" xlink:href="#m1191670ce3" y="176.210223"/>
     <use style="fill:#ff7f0e;stroke:#ff7f0e;" x="65.311037" xlink:href="#m1191670ce3" y="86.499225"/>
     <use style="fill:#ff7f0e;stroke:#ff7f0e;" x="87.933112" xlink:href="#m1191670ce3" y="129.502412"/>
     <use style="fill:#ff7f0e;stroke:#ff7f0e;" x="147.098538" xlink:href="#m1191670ce3" y="124.62743"/>
     <use style="fill:#ff7f0e;stroke:#ff7f0e;" x="66.181117" xlink:href="#m1191670ce3" y="86.066716"/>
     <use style="fill:#ff7f0e;stroke:#ff7f0e;" x="349.827129" xlink:href="#m1191670ce3" y="209.022727"/>
     <use style="fill:#ff7f0e;stroke:#ff7f0e;" x="269.779788" xlink:href="#m1191670ce3" y="222.836109"/>
     <use style="fill:#ff7f0e;stroke:#ff7f0e;" x="218.445081" xlink:href="#m1191670ce3" y="214.276591"/>
     <use style="fill:#ff7f0e;stroke:#ff7f0e;" x="206.263964" xlink:href="#m1191670ce3" y="206.659474"/>
     <use style="fill:#ff7f0e;stroke:#ff7f0e;" x="156.669415" xlink:href="#m1191670ce3" y="148.225538"/>
     <use style="fill:#ff7f0e;stroke:#ff7f0e;" x="112.295346" xlink:href="#m1191670ce3" y="148.492101"/>
     <use style="fill:#ff7f0e;stroke:#ff7f0e;" x="114.035506" xlink:href="#m1191670ce3" y="114.654048"/>
     <use style="fill:#ff7f0e;stroke:#ff7f0e;" x="301.972741" xlink:href="#m1191670ce3" y="232.866785"/>
     <use style="fill:#ff7f0e;stroke:#ff7f0e;" x="61.830718" xlink:href="#m1191670ce3" y="81.444671"/>
     <use style="fill:#ff7f0e;stroke:#ff7f0e;" x="328.945214" xlink:href="#m1191670ce3" y="216.098159"/>
     <use style="fill:#ff7f0e;stroke:#ff7f0e;" x="134.047341" xlink:href="#m1191670ce3" y="151.934005"/>
     <use style="fill:#ff7f0e;stroke:#ff7f0e;" x="275.000267" xlink:href="#m1191670ce3" y="175.001085"/>
     <use style="fill:#ff7f0e;stroke:#ff7f0e;" x="369.838964" xlink:href="#m1191670ce3" y="241.5098"/>
     <use style="fill:#ff7f0e;stroke:#ff7f0e;" x="169.720612" xlink:href="#m1191670ce3" y="147.884213"/>
     <use style="fill:#ff7f0e;stroke:#ff7f0e;" x="89.673271" xlink:href="#m1191670ce3" y="100.7811"/>
     <use style="fill:#ff7f0e;stroke:#ff7f0e;" x="284.571145" xlink:href="#m1191670ce3" y="205.302731"/>
     <use style="fill:#ff7f0e;stroke:#ff7f0e;" x="114.905585" xlink:href="#m1191670ce3" y="112.28905"/>
     <use style="fill:#ff7f0e;stroke:#ff7f0e;" x="250.638033" xlink:href="#m1191670ce3" y="182.920748"/>
     <use style="fill:#ff7f0e;stroke:#ff7f0e;" x="77.492154" xlink:href="#m1191670ce3" y="99.312562"/>
     <use style="fill:#ff7f0e;stroke:#ff7f0e;" x="370.709044" xlink:href="#m1191670ce3" y="212.67809"/>
     <use style="fill:#ff7f0e;stroke:#ff7f0e;" x="221.9254" xlink:href="#m1191670ce3" y="155.952354"/>
     <use style="fill:#ff7f0e;stroke:#ff7f0e;" x="181.901729" xlink:href="#m1191670ce3" y="160.170014"/>
     <use style="fill:#ff7f0e;stroke:#ff7f0e;" x="74.881915" xlink:href="#m1191670ce3" y="107.695303"/>
     <use style="fill:#ff7f0e;stroke:#ff7f0e;" x="188.862368" xlink:href="#m1191670ce3" y="141.278147"/>
     <use style="fill:#ff7f0e;stroke:#ff7f0e;" x="132.307181" xlink:href="#m1191670ce3" y="130.608664"/>
     <use style="fill:#ff7f0e;stroke:#ff7f0e;" x="177.55133" xlink:href="#m1191670ce3" y="157.423863"/>
     <use style="fill:#ff7f0e;stroke:#ff7f0e;" x="212.354522" xlink:href="#m1191670ce3" y="168.598522"/>
     <use style="fill:#ff7f0e;stroke:#ff7f0e;" x="182.771809" xlink:href="#m1191670ce3" y="152.170697"/>
     <use style="fill:#ff7f0e;stroke:#ff7f0e;" x="174.071011" xlink:href="#m1191670ce3" y="145.385758"/>
     <use style="fill:#ff7f0e;stroke:#ff7f0e;" x="313.283778" xlink:href="#m1191670ce3" y="199.463163"/>
     <use style="fill:#ff7f0e;stroke:#ff7f0e;" x="58.350399" xlink:href="#m1191670ce3" y="79.081244"/>
     <use style="fill:#ff7f0e;stroke:#ff7f0e;" x="173.200931" xlink:href="#m1191670ce3" y="147.779405"/>
     <use style="fill:#ff7f0e;stroke:#ff7f0e;" x="93.153591" xlink:href="#m1191670ce3" y="101.923336"/>
     <use style="fill:#ff7f0e;stroke:#ff7f0e;" x="67.921277" xlink:href="#m1191670ce3" y="89.445211"/>
     <use style="fill:#ff7f0e;stroke:#ff7f0e;" x="205.393884" xlink:href="#m1191670ce3" y="158.658854"/>
     <use style="fill:#ff7f0e;stroke:#ff7f0e;" x="237.586836" xlink:href="#m1191670ce3" y="160.97599"/>
     <use style="fill:#ff7f0e;stroke:#ff7f0e;" x="294.142022" xlink:href="#m1191670ce3" y="182.438455"/>
     <use style="fill:#ff7f0e;stroke:#ff7f0e;" x="253.248272" xlink:href="#m1191670ce3" y="202.941575"/>
     <use style="fill:#ff7f0e;stroke:#ff7f0e;" x="92.283511" xlink:href="#m1191670ce3" y="101.9705"/>
     <use style="fill:#ff7f0e;stroke:#ff7f0e;" x="366.358645" xlink:href="#m1191670ce3" y="214.992781"/>
     <use style="fill:#ff7f0e;stroke:#ff7f0e;" x="152.319016" xlink:href="#m1191670ce3" y="144.368244"/>
     <use style="fill:#ff7f0e;stroke:#ff7f0e;" x="147.968617" xlink:href="#m1191670ce3" y="131.931344"/>
    </g>
   </g>
   <g id="PathCollection_3">
    <defs>
     <path d="M 0 3 
C 0.795609 3 1.55874 2.683901 2.12132 2.12132 
C 2.683901 1.55874 3 0.795609 3 0 
C 3 -0.795609 2.683901 -1.55874 2.12132 -2.12132 
C 1.55874 -2.683901 0.795609 -3 0 -3 
C -0.795609 -3 -1.55874 -2.683901 -2.12132 -2.12132 
C -2.683901 -1.55874 -3 -0.795609 -3 0 
C -3 0.795609 -2.683901 1.55874 -2.12132 2.12132 
C -1.55874 2.683901 -0.795609 3 0 3 
z
" id="mf425726214" style="stroke:#2ca02c;"/>
    </defs>
    <g clip-path="url(#pff0550342a)">
     <use style="fill:#2ca02c;stroke:#2ca02c;" x="328.075134" xlink:href="#mf425726214" y="188.075045"/>
     <use style="fill:#2ca02c;stroke:#2ca02c;" x="361.138166" xlink:href="#mf425726214" y="172.578791"/>
     <use style="fill:#2ca02c;stroke:#2ca02c;" x="141.878059" xlink:href="#mf425726214" y="122.102773"/>
     <use style="fill:#2ca02c;stroke:#2ca02c;" x="225.405719" xlink:href="#mf425726214" y="148.768969"/>
     <use style="fill:#2ca02c;stroke:#2ca02c;" x="65.311037" xlink:href="#mf425726214" y="82.998978"/>
     <use style="fill:#2ca02c;stroke:#2ca02c;" x="87.933112" xlink:href="#mf425726214" y="88.068729"/>
     <use style="fill:#2ca02c;stroke:#2ca02c;" x="147.098538" xlink:href="#mf425726214" y="114.925677"/>
     <use style="fill:#2ca02c;stroke:#2ca02c;" x="66.181117" xlink:href="#mf425726214" y="90.511635"/>
     <use style="fill:#2ca02c;stroke:#2ca02c;" x="349.827129" xlink:href="#mf425726214" y="173.489225"/>
     <use style="fill:#2ca02c;stroke:#2ca02c;" x="269.779788" xlink:href="#mf425726214" y="169.319253"/>
     <use style="fill:#2ca02c;stroke:#2ca02c;" x="218.445081" xlink:href="#mf425726214" y="153.026456"/>
     <use style="fill:#2ca02c;stroke:#2ca02c;" x="206.263964" xlink:href="#mf425726214" y="136.046117"/>
     <use style="fill:#2ca02c;stroke:#2ca02c;" x="156.669415" xlink:href="#mf425726214" y="125.237763"/>
     <use style="fill:#2ca02c;stroke:#2ca02c;" x="112.295346" xlink:href="#mf425726214" y="110.340314"/>
     <use style="fill:#2ca02c;stroke:#2ca02c;" x="114.035506" xlink:href="#mf425726214" y="114.255777"/>
     <use style="fill:#2ca02c;stroke:#2ca02c;" x="301.972741" xlink:href="#mf425726214" y="171.014527"/>
     <use style="fill:#2ca02c;stroke:#2ca02c;" x="61.830718" xlink:href="#mf425726214" y="82.275626"/>
     <use style="fill:#2ca02c;stroke:#2ca02c;" x="328.945214" xlink:href="#mf425726214" y="213.083349"/>
     <use style="fill:#2ca02c;stroke:#2ca02c;" x="134.047341" xlink:href="#mf425726214" y="116.364869"/>
     <use style="fill:#2ca02c;stroke:#2ca02c;" x="275.000267" xlink:href="#mf425726214" y="191.578611"/>
     <use style="fill:#2ca02c;stroke:#2ca02c;" x="369.838964" xlink:href="#mf425726214" y="192.547563"/>
     <use style="fill:#2ca02c;stroke:#2ca02c;" x="169.720612" xlink:href="#mf425726214" y="134.456001"/>
     <use style="fill:#2ca02c;stroke:#2ca02c;" x="89.673271" xlink:href="#mf425726214" y="94.896115"/>
     <use style="fill:#2ca02c;stroke:#2ca02c;" x="284.571145" xlink:href="#mf425726214" y="172.483765"/>
     <use style="fill:#2ca02c;stroke:#2ca02c;" x="114.905585" xlink:href="#mf425726214" y="111.388746"/>
     <use style="fill:#2ca02c;stroke:#2ca02c;" x="250.638033" xlink:href="#mf425726214" y="189.676515"/>
     <use style="fill:#2ca02c;stroke:#2ca02c;" x="77.492154" xlink:href="#mf425726214" y="91.231843"/>
     <use style="fill:#2ca02c;stroke:#2ca02c;" x="370.709044" xlink:href="#mf425726214" y="246.561734"/>
     <use style="fill:#2ca02c;stroke:#2ca02c;" x="221.9254" xlink:href="#mf425726214" y="146.900238"/>
     <use style="fill:#2ca02c;stroke:#2ca02c;" x="181.901729" xlink:href="#mf425726214" y="133.02135"/>
     <use style="fill:#2ca02c;stroke:#2ca02c;" x="74.881915" xlink:href="#mf425726214" y="89.012702"/>
     <use style="fill:#2ca02c;stroke:#2ca02c;" x="188.862368" xlink:href="#mf425726214" y="163.970537"/>
     <use style="fill:#2ca02c;stroke:#2ca02c;" x="132.307181" xlink:href="#mf425726214" y="131.158558"/>
     <use style="fill:#2ca02c;stroke:#2ca02c;" x="177.55133" xlink:href="#mf425726214" y="137.201978"/>
     <use style="fill:#2ca02c;stroke:#2ca02c;" x="212.354522" xlink:href="#mf425726214" y="145.544717"/>
     <use style="fill:#2ca02c;stroke:#2ca02c;" x="182.771809" xlink:href="#mf425726214" y="142.210417"/>
     <use style="fill:#2ca02c;stroke:#2ca02c;" x="174.071011" xlink:href="#mf425726214" y="123.363617"/>
     <use style="fill:#2ca02c;stroke:#2ca02c;" x="313.283778" xlink:href="#mf425726214" y="153.035016"/>
     <use style="fill:#2ca02c;stroke:#2ca02c;" x="58.350399" xlink:href="#mf425726214" y="79.661183"/>
     <use style="fill:#2ca02c;stroke:#2ca02c;" x="173.200931" xlink:href="#mf425726214" y="134.37722"/>
     <use style="fill:#2ca02c;stroke:#2ca02c;" x="93.153591" xlink:href="#mf425726214" y="93.126078"/>
     <use style="fill:#2ca02c;stroke:#2ca02c;" x="67.921277" xlink:href="#mf425726214" y="82.672675"/>
     <use style="fill:#2ca02c;stroke:#2ca02c;" x="205.393884" xlink:href="#mf425726214" y="161.989661"/>
     <use style="fill:#2ca02c;stroke:#2ca02c;" x="237.586836" xlink:href="#mf425726214" y="156.065722"/>
     <use style="fill:#2ca02c;stroke:#2ca02c;" x="294.142022" xlink:href="#mf425726214" y="165.422656"/>
     <use style="fill:#2ca02c;stroke:#2ca02c;" x="253.248272" xlink:href="#mf425726214" y="188.868443"/>
     <use style="fill:#2ca02c;stroke:#2ca02c;" x="92.283511" xlink:href="#mf425726214" y="91.882877"/>
     <use style="fill:#2ca02c;stroke:#2ca02c;" x="366.358645" xlink:href="#mf425726214" y="187.75503"/>
     <use style="fill:#2ca02c;stroke:#2ca02c;" x="152.319016" xlink:href="#mf425726214" y="123.313833"/>
     <use style="fill:#2ca02c;stroke:#2ca02c;" x="147.968617" xlink:href="#mf425726214" y="115.225952"/>
    </g>
   </g>
   <g id="matplotlib.axis_1">
    <g id="xtick_1">
     <g id="line2d_1">
      <defs>
       <path d="M 0 0 
L 0 3.5 
" id="m8e3840c0fa" style="stroke:#000000;stroke-width:0.8;"/>
      </defs>
      <g>
       <use style="stroke:#000000;stroke-width:0.8;" x="54" xlink:href="#m8e3840c0fa" y="384.48"/>
      </g>
     </g>
     <g id="text_1">
      <!-- 0 -->
      <defs>
       <path d="M 31.78125 66.40625 
Q 24.171875 66.40625 20.328125 58.90625 
Q 16.5 51.421875 16.5 36.375 
Q 16.5 21.390625 20.328125 13.890625 
Q 24.171875 6.390625 31.78125 6.390625 
Q 39.453125 6.390625 43.28125 13.890625 
Q 47.125 21.390625 47.125 36.375 
Q 47.125 51.421875 43.28125 58.90625 
Q 39.453125 66.40625 31.78125 66.40625 
z
M 31.78125 74.21875 
Q 44.046875 74.21875 50.515625 64.515625 
Q 56.984375 54.828125 56.984375 36.375 
Q 56.984375 17.96875 50.515625 8.265625 
Q 44.046875 -1.421875 31.78125 -1.421875 
Q 19.53125 -1.421875 13.0625 8.265625 
Q 6.59375 17.96875 6.59375 36.375 
Q 6.59375 54.828125 13.0625 64.515625 
Q 19.53125 74.21875 31.78125 74.21875 
z
" id="DejaVuSans-30"/>
      </defs>
      <g transform="translate(50.81875 399.078438)scale(0.1 -0.1)">
       <use xlink:href="#DejaVuSans-30"/>
      </g>
     </g>
    </g>
    <g id="xtick_2">
     <g id="line2d_2">
      <g>
       <use style="stroke:#000000;stroke-width:0.8;" x="97.50399" xlink:href="#m8e3840c0fa" y="384.48"/>
      </g>
     </g>
     <g id="text_2">
      <!-- 50 -->
      <defs>
       <path d="M 10.796875 72.90625 
L 49.515625 72.90625 
L 49.515625 64.59375 
L 19.828125 64.59375 
L 19.828125 46.734375 
Q 21.96875 47.46875 24.109375 47.828125 
Q 26.265625 48.1875 28.421875 48.1875 
Q 40.625 48.1875 47.75 41.5 
Q 54.890625 34.8125 54.890625 23.390625 
Q 54.890625 11.625 47.5625 5.09375 
Q 40.234375 -1.421875 26.90625 -1.421875 
Q 22.3125 -1.421875 17.546875 -0.640625 
Q 12.796875 0.140625 7.71875 1.703125 
L 7.71875 11.625 
Q 12.109375 9.234375 16.796875 8.0625 
Q 21.484375 6.890625 26.703125 6.890625 
Q 35.15625 6.890625 40.078125 11.328125 
Q 45.015625 15.765625 45.015625 23.390625 
Q 45.015625 31 40.078125 35.4375 
Q 35.15625 39.890625 26.703125 39.890625 
Q 22.75 39.890625 18.8125 39.015625 
Q 14.890625 38.140625 10.796875 36.28125 
z
" id="DejaVuSans-35"/>
      </defs>
      <g transform="translate(91.14149 399.078438)scale(0.1 -0.1)">
       <use xlink:href="#DejaVuSans-35"/>
       <use x="63.623047" xlink:href="#DejaVuSans-30"/>
      </g>
     </g>
    </g>
    <g id="xtick_3">
     <g id="line2d_3">
      <g>
       <use style="stroke:#000000;stroke-width:0.8;" x="141.007979" xlink:href="#m8e3840c0fa" y="384.48"/>
      </g>
     </g>
     <g id="text_3">
      <!-- 100 -->
      <defs>
       <path d="M 12.40625 8.296875 
L 28.515625 8.296875 
L 28.515625 63.921875 
L 10.984375 60.40625 
L 10.984375 69.390625 
L 28.421875 72.90625 
L 38.28125 72.90625 
L 38.28125 8.296875 
L 54.390625 8.296875 
L 54.390625 0 
L 12.40625 0 
z
" id="DejaVuSans-31"/>
      </defs>
      <g transform="translate(131.464229 399.078438)scale(0.1 -0.1)">
       <use xlink:href="#DejaVuSans-31"/>
       <use x="63.623047" xlink:href="#DejaVuSans-30"/>
       <use x="127.246094" xlink:href="#DejaVuSans-30"/>
      </g>
     </g>
    </g>
    <g id="xtick_4">
     <g id="line2d_4">
      <g>
       <use style="stroke:#000000;stroke-width:0.8;" x="184.511969" xlink:href="#m8e3840c0fa" y="384.48"/>
      </g>
     </g>
     <g id="text_4">
      <!-- 150 -->
      <g transform="translate(174.968219 399.078438)scale(0.1 -0.1)">
       <use xlink:href="#DejaVuSans-31"/>
       <use x="63.623047" xlink:href="#DejaVuSans-35"/>
       <use x="127.246094" xlink:href="#DejaVuSans-30"/>
      </g>
     </g>
    </g>
    <g id="xtick_5">
     <g id="line2d_5">
      <g>
       <use style="stroke:#000000;stroke-width:0.8;" x="228.015958" xlink:href="#m8e3840c0fa" y="384.48"/>
      </g>
     </g>
     <g id="text_5">
      <!-- 200 -->
      <defs>
       <path d="M 19.1875 8.296875 
L 53.609375 8.296875 
L 53.609375 0 
L 7.328125 0 
L 7.328125 8.296875 
Q 12.9375 14.109375 22.625 23.890625 
Q 32.328125 33.6875 34.8125 36.53125 
Q 39.546875 41.84375 41.421875 45.53125 
Q 43.3125 49.21875 43.3125 52.78125 
Q 43.3125 58.59375 39.234375 62.25 
Q 35.15625 65.921875 28.609375 65.921875 
Q 23.96875 65.921875 18.8125 64.3125 
Q 13.671875 62.703125 7.8125 59.421875 
L 7.8125 69.390625 
Q 13.765625 71.78125 18.9375 73 
Q 24.125 74.21875 28.421875 74.21875 
Q 39.75 74.21875 46.484375 68.546875 
Q 53.21875 62.890625 53.21875 53.421875 
Q 53.21875 48.921875 51.53125 44.890625 
Q 49.859375 40.875 45.40625 35.40625 
Q 44.1875 33.984375 37.640625 27.21875 
Q 31.109375 20.453125 19.1875 8.296875 
z
" id="DejaVuSans-32"/>
      </defs>
      <g transform="translate(218.472208 399.078438)scale(0.1 -0.1)">
       <use xlink:href="#DejaVuSans-32"/>
       <use x="63.623047" xlink:href="#DejaVuSans-30"/>
       <use x="127.246094" xlink:href="#DejaVuSans-30"/>
      </g>
     </g>
    </g>
    <g id="xtick_6">
     <g id="line2d_6">
      <g>
       <use style="stroke:#000000;stroke-width:0.8;" x="271.519948" xlink:href="#m8e3840c0fa" y="384.48"/>
      </g>
     </g>
     <g id="text_6">
      <!-- 250 -->
      <g transform="translate(261.976198 399.078438)scale(0.1 -0.1)">
       <use xlink:href="#DejaVuSans-32"/>
       <use x="63.623047" xlink:href="#DejaVuSans-35"/>
       <use x="127.246094" xlink:href="#DejaVuSans-30"/>
      </g>
     </g>
    </g>
    <g id="xtick_7">
     <g id="line2d_7">
      <g>
       <use style="stroke:#000000;stroke-width:0.8;" x="315.023937" xlink:href="#m8e3840c0fa" y="384.48"/>
      </g>
     </g>
     <g id="text_7">
      <!-- 300 -->
      <defs>
       <path d="M 40.578125 39.3125 
Q 47.65625 37.796875 51.625 33 
Q 55.609375 28.21875 55.609375 21.1875 
Q 55.609375 10.40625 48.1875 4.484375 
Q 40.765625 -1.421875 27.09375 -1.421875 
Q 22.515625 -1.421875 17.65625 -0.515625 
Q 12.796875 0.390625 7.625 2.203125 
L 7.625 11.71875 
Q 11.71875 9.328125 16.59375 8.109375 
Q 21.484375 6.890625 26.8125 6.890625 
Q 36.078125 6.890625 40.9375 10.546875 
Q 45.796875 14.203125 45.796875 21.1875 
Q 45.796875 27.640625 41.28125 31.265625 
Q 36.765625 34.90625 28.71875 34.90625 
L 20.21875 34.90625 
L 20.21875 43.015625 
L 29.109375 43.015625 
Q 36.375 43.015625 40.234375 45.921875 
Q 44.09375 48.828125 44.09375 54.296875 
Q 44.09375 59.90625 40.109375 62.90625 
Q 36.140625 65.921875 28.71875 65.921875 
Q 24.65625 65.921875 20.015625 65.03125 
Q 15.375 64.15625 9.8125 62.3125 
L 9.8125 71.09375 
Q 15.4375 72.65625 20.34375 73.4375 
Q 25.25 74.21875 29.59375 74.21875 
Q 40.828125 74.21875 47.359375 69.109375 
Q 53.90625 64.015625 53.90625 55.328125 
Q 53.90625 49.265625 50.4375 45.09375 
Q 46.96875 40.921875 40.578125 39.3125 
z
" id="DejaVuSans-33"/>
      </defs>
      <g transform="translate(305.480187 399.078438)scale(0.1 -0.1)">
       <use xlink:href="#DejaVuSans-33"/>
       <use x="63.623047" xlink:href="#DejaVuSans-30"/>
       <use x="127.246094" xlink:href="#DejaVuSans-30"/>
      </g>
     </g>
    </g>
    <g id="xtick_8">
     <g id="line2d_8">
      <g>
       <use style="stroke:#000000;stroke-width:0.8;" x="358.527927" xlink:href="#m8e3840c0fa" y="384.48"/>
      </g>
     </g>
     <g id="text_8">
      <!-- 350 -->
      <g transform="translate(348.984177 399.078438)scale(0.1 -0.1)">
       <use xlink:href="#DejaVuSans-33"/>
       <use x="63.623047" xlink:href="#DejaVuSans-35"/>
       <use x="127.246094" xlink:href="#DejaVuSans-30"/>
      </g>
     </g>
    </g>
    <g id="text_9">
     <!-- cl_number -->
     <defs>
      <path d="M 48.78125 52.59375 
L 48.78125 44.1875 
Q 44.96875 46.296875 41.140625 47.34375 
Q 37.3125 48.390625 33.40625 48.390625 
Q 24.65625 48.390625 19.8125 42.84375 
Q 14.984375 37.3125 14.984375 27.296875 
Q 14.984375 17.28125 19.8125 11.734375 
Q 24.65625 6.203125 33.40625 6.203125 
Q 37.3125 6.203125 41.140625 7.25 
Q 44.96875 8.296875 48.78125 10.40625 
L 48.78125 2.09375 
Q 45.015625 0.34375 40.984375 -0.53125 
Q 36.96875 -1.421875 32.421875 -1.421875 
Q 20.0625 -1.421875 12.78125 6.34375 
Q 5.515625 14.109375 5.515625 27.296875 
Q 5.515625 40.671875 12.859375 48.328125 
Q 20.21875 56 33.015625 56 
Q 37.15625 56 41.109375 55.140625 
Q 45.0625 54.296875 48.78125 52.59375 
z
" id="DejaVuSans-63"/>
      <path d="M 9.421875 75.984375 
L 18.40625 75.984375 
L 18.40625 0 
L 9.421875 0 
z
" id="DejaVuSans-6c"/>
      <path d="M 50.984375 -16.609375 
L 50.984375 -23.578125 
L -0.984375 -23.578125 
L -0.984375 -16.609375 
z
" id="DejaVuSans-5f"/>
      <path d="M 54.890625 33.015625 
L 54.890625 0 
L 45.90625 0 
L 45.90625 32.71875 
Q 45.90625 40.484375 42.875 44.328125 
Q 39.84375 48.1875 33.796875 48.1875 
Q 26.515625 48.1875 22.3125 43.546875 
Q 18.109375 38.921875 18.109375 30.90625 
L 18.109375 0 
L 9.078125 0 
L 9.078125 54.6875 
L 18.109375 54.6875 
L 18.109375 46.1875 
Q 21.34375 51.125 25.703125 53.5625 
Q 30.078125 56 35.796875 56 
Q 45.21875 56 50.046875 50.171875 
Q 54.890625 44.34375 54.890625 33.015625 
z
" id="DejaVuSans-6e"/>
      <path d="M 8.5 21.578125 
L 8.5 54.6875 
L 17.484375 54.6875 
L 17.484375 21.921875 
Q 17.484375 14.15625 20.5 10.265625 
Q 23.53125 6.390625 29.59375 6.390625 
Q 36.859375 6.390625 41.078125 11.03125 
Q 45.3125 15.671875 45.3125 23.6875 
L 45.3125 54.6875 
L 54.296875 54.6875 
L 54.296875 0 
L 45.3125 0 
L 45.3125 8.40625 
Q 42.046875 3.421875 37.71875 1 
Q 33.40625 -1.421875 27.6875 -1.421875 
Q 18.265625 -1.421875 13.375 4.4375 
Q 8.5 10.296875 8.5 21.578125 
z
M 31.109375 56 
z
" id="DejaVuSans-75"/>
      <path d="M 52 44.1875 
Q 55.375 50.25 60.0625 53.125 
Q 64.75 56 71.09375 56 
Q 79.640625 56 84.28125 50.015625 
Q 88.921875 44.046875 88.921875 33.015625 
L 88.921875 0 
L 79.890625 0 
L 79.890625 32.71875 
Q 79.890625 40.578125 77.09375 44.375 
Q 74.3125 48.1875 68.609375 48.1875 
Q 61.625 48.1875 57.5625 43.546875 
Q 53.515625 38.921875 53.515625 30.90625 
L 53.515625 0 
L 44.484375 0 
L 44.484375 32.71875 
Q 44.484375 40.625 41.703125 44.40625 
Q 38.921875 48.1875 33.109375 48.1875 
Q 26.21875 48.1875 22.15625 43.53125 
Q 18.109375 38.875 18.109375 30.90625 
L 18.109375 0 
L 9.078125 0 
L 9.078125 54.6875 
L 18.109375 54.6875 
L 18.109375 46.1875 
Q 21.1875 51.21875 25.484375 53.609375 
Q 29.78125 56 35.6875 56 
Q 41.65625 56 45.828125 52.96875 
Q 50 49.953125 52 44.1875 
z
" id="DejaVuSans-6d"/>
      <path d="M 48.6875 27.296875 
Q 48.6875 37.203125 44.609375 42.84375 
Q 40.53125 48.484375 33.40625 48.484375 
Q 26.265625 48.484375 22.1875 42.84375 
Q 18.109375 37.203125 18.109375 27.296875 
Q 18.109375 17.390625 22.1875 11.75 
Q 26.265625 6.109375 33.40625 6.109375 
Q 40.53125 6.109375 44.609375 11.75 
Q 48.6875 17.390625 48.6875 27.296875 
z
M 18.109375 46.390625 
Q 20.953125 51.265625 25.265625 53.625 
Q 29.59375 56 35.59375 56 
Q 45.5625 56 51.78125 48.09375 
Q 58.015625 40.1875 58.015625 27.296875 
Q 58.015625 14.40625 51.78125 6.484375 
Q 45.5625 -1.421875 35.59375 -1.421875 
Q 29.59375 -1.421875 25.265625 0.953125 
Q 20.953125 3.328125 18.109375 8.203125 
L 18.109375 0 
L 9.078125 0 
L 9.078125 75.984375 
L 18.109375 75.984375 
z
" id="DejaVuSans-62"/>
      <path d="M 56.203125 29.59375 
L 56.203125 25.203125 
L 14.890625 25.203125 
Q 15.484375 15.921875 20.484375 11.0625 
Q 25.484375 6.203125 34.421875 6.203125 
Q 39.59375 6.203125 44.453125 7.46875 
Q 49.3125 8.734375 54.109375 11.28125 
L 54.109375 2.78125 
Q 49.265625 0.734375 44.1875 -0.34375 
Q 39.109375 -1.421875 33.890625 -1.421875 
Q 20.796875 -1.421875 13.15625 6.1875 
Q 5.515625 13.8125 5.515625 26.8125 
Q 5.515625 40.234375 12.765625 48.109375 
Q 20.015625 56 32.328125 56 
Q 43.359375 56 49.78125 48.890625 
Q 56.203125 41.796875 56.203125 29.59375 
z
M 47.21875 32.234375 
Q 47.125 39.59375 43.09375 43.984375 
Q 39.0625 48.390625 32.421875 48.390625 
Q 24.90625 48.390625 20.390625 44.140625 
Q 15.875 39.890625 15.1875 32.171875 
z
" id="DejaVuSans-65"/>
      <path d="M 41.109375 46.296875 
Q 39.59375 47.171875 37.8125 47.578125 
Q 36.03125 48 33.890625 48 
Q 26.265625 48 22.1875 43.046875 
Q 18.109375 38.09375 18.109375 28.8125 
L 18.109375 0 
L 9.078125 0 
L 9.078125 54.6875 
L 18.109375 54.6875 
L 18.109375 46.1875 
Q 20.953125 51.171875 25.484375 53.578125 
Q 30.03125 56 36.53125 56 
Q 37.453125 56 38.578125 55.875 
Q 39.703125 55.765625 41.0625 55.515625 
z
" id="DejaVuSans-72"/>
     </defs>
     <g transform="translate(195.247656 412.756563)scale(0.1 -0.1)">
      <use xlink:href="#DejaVuSans-63"/>
      <use x="54.980469" xlink:href="#DejaVuSans-6c"/>
      <use x="82.763672" xlink:href="#DejaVuSans-5f"/>
      <use x="132.763672" xlink:href="#DejaVuSans-6e"/>
      <use x="196.142578" xlink:href="#DejaVuSans-75"/>
      <use x="259.521484" xlink:href="#DejaVuSans-6d"/>
      <use x="356.933594" xlink:href="#DejaVuSans-62"/>
      <use x="420.410156" xlink:href="#DejaVuSans-65"/>
      <use x="481.933594" xlink:href="#DejaVuSans-72"/>
     </g>
    </g>
   </g>
   <g id="matplotlib.axis_2">
    <g id="ytick_1">
     <g id="line2d_9">
      <defs>
       <path d="M 0 0 
L -3.5 0 
" id="mba4d006b63" style="stroke:#000000;stroke-width:0.8;"/>
      </defs>
      <g>
       <use style="stroke:#000000;stroke-width:0.8;" x="54" xlink:href="#mba4d006b63" y="384.48"/>
      </g>
     </g>
     <g id="text_10">
      <!-- 0.00 -->
      <defs>
       <path d="M 10.6875 12.40625 
L 21 12.40625 
L 21 0 
L 10.6875 0 
z
" id="DejaVuSans-2e"/>
      </defs>
      <g transform="translate(24.734375 388.279219)scale(0.1 -0.1)">
       <use xlink:href="#DejaVuSans-30"/>
       <use x="63.623047" xlink:href="#DejaVuSans-2e"/>
       <use x="95.410156" xlink:href="#DejaVuSans-30"/>
       <use x="159.033203" xlink:href="#DejaVuSans-30"/>
      </g>
     </g>
    </g>
    <g id="ytick_2">
     <g id="line2d_10">
      <g>
       <use style="stroke:#000000;stroke-width:0.8;" x="54" xlink:href="#mba4d006b63" y="322.601191"/>
      </g>
     </g>
     <g id="text_11">
      <!-- 0.02 -->
      <g transform="translate(24.734375 326.400409)scale(0.1 -0.1)">
       <use xlink:href="#DejaVuSans-30"/>
       <use x="63.623047" xlink:href="#DejaVuSans-2e"/>
       <use x="95.410156" xlink:href="#DejaVuSans-30"/>
       <use x="159.033203" xlink:href="#DejaVuSans-32"/>
      </g>
     </g>
    </g>
    <g id="ytick_3">
     <g id="line2d_11">
      <g>
       <use style="stroke:#000000;stroke-width:0.8;" x="54" xlink:href="#mba4d006b63" y="260.722381"/>
      </g>
     </g>
     <g id="text_12">
      <!-- 0.04 -->
      <defs>
       <path d="M 37.796875 64.3125 
L 12.890625 25.390625 
L 37.796875 25.390625 
z
M 35.203125 72.90625 
L 47.609375 72.90625 
L 47.609375 25.390625 
L 58.015625 25.390625 
L 58.015625 17.1875 
L 47.609375 17.1875 
L 47.609375 0 
L 37.796875 0 
L 37.796875 17.1875 
L 4.890625 17.1875 
L 4.890625 26.703125 
z
" id="DejaVuSans-34"/>
      </defs>
      <g transform="translate(24.734375 264.5216)scale(0.1 -0.1)">
       <use xlink:href="#DejaVuSans-30"/>
       <use x="63.623047" xlink:href="#DejaVuSans-2e"/>
       <use x="95.410156" xlink:href="#DejaVuSans-30"/>
       <use x="159.033203" xlink:href="#DejaVuSans-34"/>
      </g>
     </g>
    </g>
    <g id="ytick_4">
     <g id="line2d_12">
      <g>
       <use style="stroke:#000000;stroke-width:0.8;" x="54" xlink:href="#mba4d006b63" y="198.843572"/>
      </g>
     </g>
     <g id="text_13">
      <!-- 0.06 -->
      <defs>
       <path d="M 33.015625 40.375 
Q 26.375 40.375 22.484375 35.828125 
Q 18.609375 31.296875 18.609375 23.390625 
Q 18.609375 15.53125 22.484375 10.953125 
Q 26.375 6.390625 33.015625 6.390625 
Q 39.65625 6.390625 43.53125 10.953125 
Q 47.40625 15.53125 47.40625 23.390625 
Q 47.40625 31.296875 43.53125 35.828125 
Q 39.65625 40.375 33.015625 40.375 
z
M 52.59375 71.296875 
L 52.59375 62.3125 
Q 48.875 64.0625 45.09375 64.984375 
Q 41.3125 65.921875 37.59375 65.921875 
Q 27.828125 65.921875 22.671875 59.328125 
Q 17.53125 52.734375 16.796875 39.40625 
Q 19.671875 43.65625 24.015625 45.921875 
Q 28.375 48.1875 33.59375 48.1875 
Q 44.578125 48.1875 50.953125 41.515625 
Q 57.328125 34.859375 57.328125 23.390625 
Q 57.328125 12.15625 50.6875 5.359375 
Q 44.046875 -1.421875 33.015625 -1.421875 
Q 20.359375 -1.421875 13.671875 8.265625 
Q 6.984375 17.96875 6.984375 36.375 
Q 6.984375 53.65625 15.1875 63.9375 
Q 23.390625 74.21875 37.203125 74.21875 
Q 40.921875 74.21875 44.703125 73.484375 
Q 48.484375 72.75 52.59375 71.296875 
z
" id="DejaVuSans-36"/>
      </defs>
      <g transform="translate(24.734375 202.64279)scale(0.1 -0.1)">
       <use xlink:href="#DejaVuSans-30"/>
       <use x="63.623047" xlink:href="#DejaVuSans-2e"/>
       <use x="95.410156" xlink:href="#DejaVuSans-30"/>
       <use x="159.033203" xlink:href="#DejaVuSans-36"/>
      </g>
     </g>
    </g>
    <g id="ytick_5">
     <g id="line2d_13">
      <g>
       <use style="stroke:#000000;stroke-width:0.8;" x="54" xlink:href="#mba4d006b63" y="136.964762"/>
      </g>
     </g>
     <g id="text_14">
      <!-- 0.08 -->
      <defs>
       <path d="M 31.78125 34.625 
Q 24.75 34.625 20.71875 30.859375 
Q 16.703125 27.09375 16.703125 20.515625 
Q 16.703125 13.921875 20.71875 10.15625 
Q 24.75 6.390625 31.78125 6.390625 
Q 38.8125 6.390625 42.859375 10.171875 
Q 46.921875 13.96875 46.921875 20.515625 
Q 46.921875 27.09375 42.890625 30.859375 
Q 38.875 34.625 31.78125 34.625 
z
M 21.921875 38.8125 
Q 15.578125 40.375 12.03125 44.71875 
Q 8.5 49.078125 8.5 55.328125 
Q 8.5 64.0625 14.71875 69.140625 
Q 20.953125 74.21875 31.78125 74.21875 
Q 42.671875 74.21875 48.875 69.140625 
Q 55.078125 64.0625 55.078125 55.328125 
Q 55.078125 49.078125 51.53125 44.71875 
Q 48 40.375 41.703125 38.8125 
Q 48.828125 37.15625 52.796875 32.3125 
Q 56.78125 27.484375 56.78125 20.515625 
Q 56.78125 9.90625 50.3125 4.234375 
Q 43.84375 -1.421875 31.78125 -1.421875 
Q 19.734375 -1.421875 13.25 4.234375 
Q 6.78125 9.90625 6.78125 20.515625 
Q 6.78125 27.484375 10.78125 32.3125 
Q 14.796875 37.15625 21.921875 38.8125 
z
M 18.3125 54.390625 
Q 18.3125 48.734375 21.84375 45.5625 
Q 25.390625 42.390625 31.78125 42.390625 
Q 38.140625 42.390625 41.71875 45.5625 
Q 45.3125 48.734375 45.3125 54.390625 
Q 45.3125 60.0625 41.71875 63.234375 
Q 38.140625 66.40625 31.78125 66.40625 
Q 25.390625 66.40625 21.84375 63.234375 
Q 18.3125 60.0625 18.3125 54.390625 
z
" id="DejaVuSans-38"/>
      </defs>
      <g transform="translate(24.734375 140.763981)scale(0.1 -0.1)">
       <use xlink:href="#DejaVuSans-30"/>
       <use x="63.623047" xlink:href="#DejaVuSans-2e"/>
       <use x="95.410156" xlink:href="#DejaVuSans-30"/>
       <use x="159.033203" xlink:href="#DejaVuSans-38"/>
      </g>
     </g>
    </g>
    <g id="ytick_6">
     <g id="line2d_14">
      <g>
       <use style="stroke:#000000;stroke-width:0.8;" x="54" xlink:href="#mba4d006b63" y="75.085953"/>
      </g>
     </g>
     <g id="text_15">
      <!-- 0.10 -->
      <g transform="translate(24.734375 78.885171)scale(0.1 -0.1)">
       <use xlink:href="#DejaVuSans-30"/>
       <use x="63.623047" xlink:href="#DejaVuSans-2e"/>
       <use x="95.410156" xlink:href="#DejaVuSans-31"/>
       <use x="159.033203" xlink:href="#DejaVuSans-30"/>
      </g>
     </g>
    </g>
    <g id="text_16">
     <!-- speed -->
     <defs>
      <path d="M 44.28125 53.078125 
L 44.28125 44.578125 
Q 40.484375 46.53125 36.375 47.5 
Q 32.28125 48.484375 27.875 48.484375 
Q 21.1875 48.484375 17.84375 46.4375 
Q 14.5 44.390625 14.5 40.28125 
Q 14.5 37.15625 16.890625 35.375 
Q 19.28125 33.59375 26.515625 31.984375 
L 29.59375 31.296875 
Q 39.15625 29.25 43.1875 25.515625 
Q 47.21875 21.78125 47.21875 15.09375 
Q 47.21875 7.46875 41.1875 3.015625 
Q 35.15625 -1.421875 24.609375 -1.421875 
Q 20.21875 -1.421875 15.453125 -0.5625 
Q 10.6875 0.296875 5.421875 2 
L 5.421875 11.28125 
Q 10.40625 8.6875 15.234375 7.390625 
Q 20.0625 6.109375 24.8125 6.109375 
Q 31.15625 6.109375 34.5625 8.28125 
Q 37.984375 10.453125 37.984375 14.40625 
Q 37.984375 18.0625 35.515625 20.015625 
Q 33.0625 21.96875 24.703125 23.78125 
L 21.578125 24.515625 
Q 13.234375 26.265625 9.515625 29.90625 
Q 5.8125 33.546875 5.8125 39.890625 
Q 5.8125 47.609375 11.28125 51.796875 
Q 16.75 56 26.8125 56 
Q 31.78125 56 36.171875 55.265625 
Q 40.578125 54.546875 44.28125 53.078125 
z
" id="DejaVuSans-73"/>
      <path d="M 18.109375 8.203125 
L 18.109375 -20.796875 
L 9.078125 -20.796875 
L 9.078125 54.6875 
L 18.109375 54.6875 
L 18.109375 46.390625 
Q 20.953125 51.265625 25.265625 53.625 
Q 29.59375 56 35.59375 56 
Q 45.5625 56 51.78125 48.09375 
Q 58.015625 40.1875 58.015625 27.296875 
Q 58.015625 14.40625 51.78125 6.484375 
Q 45.5625 -1.421875 35.59375 -1.421875 
Q 29.59375 -1.421875 25.265625 0.953125 
Q 20.953125 3.328125 18.109375 8.203125 
z
M 48.6875 27.296875 
Q 48.6875 37.203125 44.609375 42.84375 
Q 40.53125 48.484375 33.40625 48.484375 
Q 26.265625 48.484375 22.1875 42.84375 
Q 18.109375 37.203125 18.109375 27.296875 
Q 18.109375 17.390625 22.1875 11.75 
Q 26.265625 6.109375 33.40625 6.109375 
Q 40.53125 6.109375 44.609375 11.75 
Q 48.6875 17.390625 48.6875 27.296875 
z
" id="DejaVuSans-70"/>
      <path d="M 45.40625 46.390625 
L 45.40625 75.984375 
L 54.390625 75.984375 
L 54.390625 0 
L 45.40625 0 
L 45.40625 8.203125 
Q 42.578125 3.328125 38.25 0.953125 
Q 33.9375 -1.421875 27.875 -1.421875 
Q 17.96875 -1.421875 11.734375 6.484375 
Q 5.515625 14.40625 5.515625 27.296875 
Q 5.515625 40.1875 11.734375 48.09375 
Q 17.96875 56 27.875 56 
Q 33.9375 56 38.25 53.625 
Q 42.578125 51.265625 45.40625 46.390625 
z
M 14.796875 27.296875 
Q 14.796875 17.390625 18.875 11.75 
Q 22.953125 6.109375 30.078125 6.109375 
Q 37.203125 6.109375 41.296875 11.75 
Q 45.40625 17.390625 45.40625 27.296875 
Q 45.40625 37.203125 41.296875 42.84375 
Q 37.203125 48.484375 30.078125 48.484375 
Q 22.953125 48.484375 18.875 42.84375 
Q 14.796875 37.203125 14.796875 27.296875 
z
" id="DejaVuSans-64"/>
     </defs>
     <g transform="translate(18.654687 233.26625)rotate(-90)scale(0.1 -0.1)">
      <use xlink:href="#DejaVuSans-73"/>
      <use x="52.099609" xlink:href="#DejaVuSans-70"/>
      <use x="115.576172" xlink:href="#DejaVuSans-65"/>
      <use x="177.099609" xlink:href="#DejaVuSans-65"/>
      <use x="238.623047" xlink:href="#DejaVuSans-64"/>
     </g>
    </g>
   </g>
   <g id="line2d_15">
    <path clip-path="url(#pff0550342a)" d="M 58.350399 64.935553 
L 61.830718 71.312843 
L 65.311037 77.440564 
L 66.181117 78.935207 
L 67.921277 81.881261 
L 74.881915 93.118457 
L 77.492154 97.12019 
L 87.933112 112.085125 
L 89.673271 114.429048 
L 92.283511 117.870261 
L 93.153591 118.997926 
L 112.295346 141.59857 
L 114.035506 143.463829 
L 114.905585 144.385756 
L 132.307181 161.448417 
L 134.047341 163.02224 
L 141.878059 169.838037 
L 147.098538 174.153511 
L 147.968617 174.855942 
L 152.319016 178.298876 
L 156.669415 181.630541 
L 169.720612 191.009374 
L 173.200931 193.365708 
L 174.071011 193.94585 
L 177.55133 196.231621 
L 181.901729 199.012851 
L 182.771809 199.559264 
L 188.862368 203.295829 
L 205.393884 212.716326 
L 206.263964 213.185079 
L 212.354522 216.396058 
L 218.445081 219.488869 
L 221.9254 221.20562 
L 225.405719 222.887013 
L 237.586836 228.508665 
L 250.638033 234.113412 
L 253.248272 235.18637 
L 269.779788 241.641554 
L 275.000267 243.565621 
L 284.571145 246.961695 
L 294.142022 250.197929 
L 301.972741 252.734603 
L 313.283778 256.233984 
L 328.075134 260.539016 
L 328.945214 260.78327 
L 349.827129 266.369596 
L 361.138166 269.189876 
L 366.358645 270.446612 
L 369.838964 271.269324 
L 370.709044 271.473151 
" style="fill:none;stroke:#1f77b4;stroke-linecap:square;stroke-width:1.5;"/>
   </g>
   <g id="line2d_16">
    <path clip-path="url(#pff0550342a)" d="M 58.350399 70.092661 
L 61.830718 73.210831 
L 65.311037 76.267755 
L 66.181117 77.022627 
L 67.921277 78.521333 
L 74.881915 84.37284 
L 77.492154 86.509862 
L 87.933112 94.76203 
L 89.673271 96.093157 
L 92.283511 98.06707 
L 93.153591 98.71905 
L 112.295346 112.347444 
L 114.035506 113.522209 
L 114.905585 114.105795 
L 132.307181 125.271426 
L 134.047341 126.337476 
L 141.878059 131.028159 
L 147.098538 134.061711 
L 147.968617 134.560257 
L 152.319016 137.023505 
L 156.669415 139.43867 
L 169.720612 146.409349 
L 173.200931 148.201722 
L 174.071011 148.645606 
L 177.55133 150.404588 
L 181.901729 152.566759 
L 182.771809 152.994409 
L 188.862368 155.944358 
L 205.393884 163.585038 
L 206.263964 163.973051 
L 212.354522 166.651441 
L 218.445081 169.265545 
L 221.9254 170.731341 
L 225.405719 172.177305 
L 237.586836 177.087682 
L 250.638033 182.102834 
L 253.248272 183.076898 
L 269.779788 189.034668 
L 275.000267 190.843517 
L 284.571145 194.074232 
L 294.142022 197.19891 
L 301.972741 199.680195 
L 313.283778 203.150377 
L 328.075134 207.496374 
L 328.945214 207.745542 
L 349.827129 213.521986 
L 361.138166 216.495976 
L 366.358645 217.833966 
L 369.838964 218.71418 
L 370.709044 218.932783 
" style="fill:none;stroke:#ff7f0e;stroke-linecap:square;stroke-width:1.5;"/>
   </g>
   <g id="line2d_17">
    <path clip-path="url(#pff0550342a)" d="M 58.350399 71.774904 
L 61.830718 73.838392 
L 65.311037 75.874825 
L 66.181117 76.379769 
L 67.921277 77.384714 
L 74.881915 81.339783 
L 77.492154 82.796796 
L 87.933112 88.487429 
L 89.673271 89.415061 
L 92.283511 90.795658 
L 93.153591 91.252991 
L 112.295346 100.965886 
L 114.035506 101.817065 
L 114.905585 102.240741 
L 132.307181 110.455305 
L 134.047341 111.250538 
L 141.878059 114.772706 
L 147.098538 117.0708 
L 147.968617 117.450013 
L 152.319016 119.330061 
L 156.669415 121.183821 
L 169.720612 126.592772 
L 173.200931 127.99783 
L 174.071011 128.346706 
L 177.55133 129.732769 
L 181.901729 131.444393 
L 182.771809 131.783962 
L 188.862368 134.13566 
L 205.393884 140.303632 
L 206.263964 140.619854 
L 212.354522 142.810679 
L 218.445081 144.962491 
L 221.9254 146.17498 
L 225.405719 147.375255 
L 237.586836 151.482651 
L 250.638033 155.728395 
L 253.248272 156.559043 
L 269.779788 161.682874 
L 275.000267 163.253402 
L 284.571145 166.075929 
L 294.142022 168.827341 
L 301.972741 171.027459 
L 313.283778 174.127305 
L 328.075134 178.047631 
L 328.945214 178.273693 
L 349.827129 183.554445 
L 361.138166 186.303466 
L 366.358645 187.547033 
L 369.838964 188.367444 
L 370.709044 188.571479 
" style="fill:none;stroke:#2ca02c;stroke-linecap:square;stroke-width:1.5;"/>
   </g>
   <g id="patch_3">
    <path d="M 54 384.48 
L 54 51.84 
" style="fill:none;stroke:#000000;stroke-linecap:square;stroke-linejoin:miter;stroke-width:0.8;"/>
   </g>
   <g id="patch_4">
    <path d="M 388.8 384.48 
L 388.8 51.84 
" style="fill:none;stroke:#000000;stroke-linecap:square;stroke-linejoin:miter;stroke-width:0.8;"/>
   </g>
   <g id="patch_5">
    <path d="M 54 384.48 
L 388.8 384.48 
" style="fill:none;stroke:#000000;stroke-linecap:square;stroke-linejoin:miter;stroke-width:0.8;"/>
   </g>
   <g id="patch_6">
    <path d="M 54 51.84 
L 388.8 51.84 
" style="fill:none;stroke:#000000;stroke-linecap:square;stroke-linejoin:miter;stroke-width:0.8;"/>
   </g>
   <g id="legend_1">
    <g id="patch_7">
     <path d="M 276.207812 104.70875 
L 381.8 104.70875 
Q 383.8 104.70875 383.8 102.70875 
L 383.8 58.84 
Q 383.8 56.84 381.8 56.84 
L 276.207812 56.84 
Q 274.207812 56.84 274.207812 58.84 
L 274.207812 102.70875 
Q 274.207812 104.70875 276.207812 104.70875 
z
" style="fill:#ffffff;opacity:0.8;stroke:#cccccc;stroke-linejoin:miter;"/>
    </g>
    <g id="PathCollection_4">
     <g>
      <use style="fill:#1f77b4;stroke:#1f77b4;" x="288.207812" xlink:href="#md5ca9861d7" y="65.813438"/>
     </g>
    </g>
    <g id="text_17">
     <!-- mt_number 30 -->
     <defs>
      <path d="M 18.3125 70.21875 
L 18.3125 54.6875 
L 36.8125 54.6875 
L 36.8125 47.703125 
L 18.3125 47.703125 
L 18.3125 18.015625 
Q 18.3125 11.328125 20.140625 9.421875 
Q 21.96875 7.515625 27.59375 7.515625 
L 36.8125 7.515625 
L 36.8125 0 
L 27.59375 0 
Q 17.1875 0 13.234375 3.875 
Q 9.28125 7.765625 9.28125 18.015625 
L 9.28125 47.703125 
L 2.6875 47.703125 
L 2.6875 54.6875 
L 9.28125 54.6875 
L 9.28125 70.21875 
z
" id="DejaVuSans-74"/>
      <path id="DejaVuSans-20"/>
     </defs>
     <g transform="translate(306.207812 68.438438)scale(0.1 -0.1)">
      <use xlink:href="#DejaVuSans-6d"/>
      <use x="97.412109" xlink:href="#DejaVuSans-74"/>
      <use x="136.621094" xlink:href="#DejaVuSans-5f"/>
      <use x="186.621094" xlink:href="#DejaVuSans-6e"/>
      <use x="250" xlink:href="#DejaVuSans-75"/>
      <use x="313.378906" xlink:href="#DejaVuSans-6d"/>
      <use x="410.791016" xlink:href="#DejaVuSans-62"/>
      <use x="474.267578" xlink:href="#DejaVuSans-65"/>
      <use x="535.791016" xlink:href="#DejaVuSans-72"/>
      <use x="576.904297" xlink:href="#DejaVuSans-20"/>
      <use x="608.691406" xlink:href="#DejaVuSans-33"/>
      <use x="672.314453" xlink:href="#DejaVuSans-30"/>
     </g>
    </g>
    <g id="PathCollection_5">
     <g>
      <use style="fill:#ff7f0e;stroke:#ff7f0e;" x="288.207812" xlink:href="#m1191670ce3" y="80.769688"/>
     </g>
    </g>
    <g id="text_18">
     <!-- mt_number 60 -->
     <g transform="translate(306.207812 83.394688)scale(0.1 -0.1)">
      <use xlink:href="#DejaVuSans-6d"/>
      <use x="97.412109" xlink:href="#DejaVuSans-74"/>
      <use x="136.621094" xlink:href="#DejaVuSans-5f"/>
      <use x="186.621094" xlink:href="#DejaVuSans-6e"/>
      <use x="250" xlink:href="#DejaVuSans-75"/>
      <use x="313.378906" xlink:href="#DejaVuSans-6d"/>
      <use x="410.791016" xlink:href="#DejaVuSans-62"/>
      <use x="474.267578" xlink:href="#DejaVuSans-65"/>
      <use x="535.791016" xlink:href="#DejaVuSans-72"/>
      <use x="576.904297" xlink:href="#DejaVuSans-20"/>
      <use x="608.691406" xlink:href="#DejaVuSans-36"/>
      <use x="672.314453" xlink:href="#DejaVuSans-30"/>
     </g>
    </g>
    <g id="PathCollection_6">
     <g>
      <use style="fill:#2ca02c;stroke:#2ca02c;" x="288.207812" xlink:href="#mf425726214" y="95.725938"/>
     </g>
    </g>
    <g id="text_19">
     <!-- mt_number 90 -->
     <defs>
      <path d="M 10.984375 1.515625 
L 10.984375 10.5 
Q 14.703125 8.734375 18.5 7.8125 
Q 22.3125 6.890625 25.984375 6.890625 
Q 35.75 6.890625 40.890625 13.453125 
Q 46.046875 20.015625 46.78125 33.40625 
Q 43.953125 29.203125 39.59375 26.953125 
Q 35.25 24.703125 29.984375 24.703125 
Q 19.046875 24.703125 12.671875 31.3125 
Q 6.296875 37.9375 6.296875 49.421875 
Q 6.296875 60.640625 12.9375 67.421875 
Q 19.578125 74.21875 30.609375 74.21875 
Q 43.265625 74.21875 49.921875 64.515625 
Q 56.59375 54.828125 56.59375 36.375 
Q 56.59375 19.140625 48.40625 8.859375 
Q 40.234375 -1.421875 26.421875 -1.421875 
Q 22.703125 -1.421875 18.890625 -0.6875 
Q 15.09375 0.046875 10.984375 1.515625 
z
M 30.609375 32.421875 
Q 37.25 32.421875 41.125 36.953125 
Q 45.015625 41.5 45.015625 49.421875 
Q 45.015625 57.28125 41.125 61.84375 
Q 37.25 66.40625 30.609375 66.40625 
Q 23.96875 66.40625 20.09375 61.84375 
Q 16.21875 57.28125 16.21875 49.421875 
Q 16.21875 41.5 20.09375 36.953125 
Q 23.96875 32.421875 30.609375 32.421875 
z
" id="DejaVuSans-39"/>
     </defs>
     <g transform="translate(306.207812 98.350938)scale(0.1 -0.1)">
      <use xlink:href="#DejaVuSans-6d"/>
      <use x="97.412109" xlink:href="#DejaVuSans-74"/>
      <use x="136.621094" xlink:href="#DejaVuSans-5f"/>
      <use x="186.621094" xlink:href="#DejaVuSans-6e"/>
      <use x="250" xlink:href="#DejaVuSans-75"/>
      <use x="313.378906" xlink:href="#DejaVuSans-6d"/>
      <use x="410.791016" xlink:href="#DejaVuSans-62"/>
      <use x="474.267578" xlink:href="#DejaVuSans-65"/>
      <use x="535.791016" xlink:href="#DejaVuSans-72"/>
      <use x="576.904297" xlink:href="#DejaVuSans-20"/>
      <use x="608.691406" xlink:href="#DejaVuSans-39"/>
      <use x="672.314453" xlink:href="#DejaVuSans-30"/>
     </g>
    </g>
   </g>
  </g>
 </g>
 <defs>
  <clipPath id="pff0550342a">
   <rect height="332.64" width="334.8" x="54" y="51.84"/>
  </clipPath>
 </defs>
</svg>
