<?xml version="1.0" encoding="utf-8" standalone="no"?>
<!DOCTYPE svg PUBLIC "-//W3C//DTD SVG 1.1//EN"
  "http://www.w3.org/Graphics/SVG/1.1/DTD/svg11.dtd">
<!-- Created with matplotlib (http://matplotlib.org/) -->
<svg height="432pt" version="1.1" viewBox="0 0 432 432" width="432pt" xmlns="http://www.w3.org/2000/svg" xmlns:xlink="http://www.w3.org/1999/xlink">
 <defs>
  <style type="text/css">
*{stroke-linecap:butt;stroke-linejoin:round;}
  </style>
 </defs>
 <g id="figure_1">
  <g id="patch_1">
   <path d="M 0 432 
L 432 432 
L 432 0 
L 0 0 
z
" style="fill:#ffffff;"/>
  </g>
  <g id="axes_1">
   <g id="patch_2">
    <path d="M 54 384.48 
L 388.8 384.48 
L 388.8 51.84 
L 54 51.84 
z
" style="fill:#ffffff;"/>
   </g>
   <g id="PathCollection_1">
    <defs>
     <path d="M 0 3 
C 0.795609 3 1.55874 2.683901 2.12132 2.12132 
C 2.683901 1.55874 3 0.795609 3 0 
C 3 -0.795609 2.683901 -1.55874 2.12132 -2.12132 
C 1.55874 -2.683901 0.795609 -3 0 -3 
C -0.795609 -3 -1.55874 -2.683901 -2.12132 -2.12132 
C -2.683901 -1.55874 -3 -0.795609 -3 0 
C -3 0.795609 -2.683901 1.55874 -2.12132 2.12132 
C -1.55874 2.683901 -0.795609 3 0 3 
z
" id="m12caa14023" style="stroke:#1f77b4;"/>
    </defs>
    <g clip-path="url(#p0749489437)">
     <use style="fill:#1f77b4;stroke:#1f77b4;" x="328.075134" xlink:href="#m12caa14023" y="300.481755"/>
     <use style="fill:#1f77b4;stroke:#1f77b4;" x="361.138166" xlink:href="#m12caa14023" y="260.047817"/>
     <use style="fill:#1f77b4;stroke:#1f77b4;" x="141.878059" xlink:href="#m12caa14023" y="280.264786"/>
     <use style="fill:#1f77b4;stroke:#1f77b4;" x="225.405719" xlink:href="#m12caa14023" y="310.91632"/>
     <use style="fill:#1f77b4;stroke:#1f77b4;" x="65.311037" xlink:href="#m12caa14023" y="309.872863"/>
     <use style="fill:#1f77b4;stroke:#1f77b4;" x="87.933112" xlink:href="#m12caa14023" y="294.742744"/>
     <use style="fill:#1f77b4;stroke:#1f77b4;" x="147.098538" xlink:href="#m12caa14023" y="347.176432"/>
     <use style="fill:#1f77b4;stroke:#1f77b4;" x="66.181117" xlink:href="#m12caa14023" y="256.656584"/>
     <use style="fill:#1f77b4;stroke:#1f77b4;" x="349.827129" xlink:href="#m12caa14023" y="338.698348"/>
     <use style="fill:#1f77b4;stroke:#1f77b4;" x="269.779788" xlink:href="#m12caa14023" y="326.959463"/>
     <use style="fill:#1f77b4;stroke:#1f77b4;" x="218.445081" xlink:href="#m12caa14023" y="355.263219"/>
     <use style="fill:#1f77b4;stroke:#1f77b4;" x="206.263964" xlink:href="#m12caa14023" y="288.090709"/>
     <use style="fill:#1f77b4;stroke:#1f77b4;" x="156.669415" xlink:href="#m12caa14023" y="281.047378"/>
     <use style="fill:#1f77b4;stroke:#1f77b4;" x="112.295346" xlink:href="#m12caa14023" y="296.047065"/>
     <use style="fill:#1f77b4;stroke:#1f77b4;" x="114.035506" xlink:href="#m12caa14023" y="319.003107"/>
     <use style="fill:#1f77b4;stroke:#1f77b4;" x="301.972741" xlink:href="#m12caa14023" y="286.916821"/>
     <use style="fill:#1f77b4;stroke:#1f77b4;" x="61.830718" xlink:href="#m12caa14023" y="294.873176"/>
     <use style="fill:#1f77b4;stroke:#1f77b4;" x="328.945214" xlink:href="#m12caa14023" y="341.306989"/>
     <use style="fill:#1f77b4;stroke:#1f77b4;" x="134.047341" xlink:href="#m12caa14023" y="324.87255"/>
     <use style="fill:#1f77b4;stroke:#1f77b4;" x="275.000267" xlink:href="#m12caa14023" y="273.873615"/>
     <use style="fill:#1f77b4;stroke:#1f77b4;" x="369.838964" xlink:href="#m12caa14023" y="313.655393"/>
     <use style="fill:#1f77b4;stroke:#1f77b4;" x="169.720612" xlink:href="#m12caa14023" y="320.698724"/>
     <use style="fill:#1f77b4;stroke:#1f77b4;" x="89.673271" xlink:href="#m12caa14023" y="295.655769"/>
     <use style="fill:#1f77b4;stroke:#1f77b4;" x="284.571145" xlink:href="#m12caa14023" y="310.785887"/>
     <use style="fill:#1f77b4;stroke:#1f77b4;" x="114.905585" xlink:href="#m12caa14023" y="308.959839"/>
     <use style="fill:#1f77b4;stroke:#1f77b4;" x="250.638033" xlink:href="#m12caa14023" y="310.003295"/>
     <use style="fill:#1f77b4;stroke:#1f77b4;" x="77.492154" xlink:href="#m12caa14023" y="344.56779"/>
     <use style="fill:#1f77b4;stroke:#1f77b4;" x="370.709044" xlink:href="#m12caa14023" y="287.960277"/>
     <use style="fill:#1f77b4;stroke:#1f77b4;" x="221.9254" xlink:href="#m12caa14023" y="272.177998"/>
     <use style="fill:#1f77b4;stroke:#1f77b4;" x="181.901729" xlink:href="#m12caa14023" y="325.263846"/>
     <use style="fill:#1f77b4;stroke:#1f77b4;" x="74.881915" xlink:href="#m12caa14023" y="337.915755"/>
     <use style="fill:#1f77b4;stroke:#1f77b4;" x="188.862368" xlink:href="#m12caa14023" y="310.264159"/>
     <use style="fill:#1f77b4;stroke:#1f77b4;" x="132.307181" xlink:href="#m12caa14023" y="293.17756"/>
     <use style="fill:#1f77b4;stroke:#1f77b4;" x="177.55133" xlink:href="#m12caa14023" y="285.742932"/>
     <use style="fill:#1f77b4;stroke:#1f77b4;" x="212.354522" xlink:href="#m12caa14023" y="305.307741"/>
     <use style="fill:#1f77b4;stroke:#1f77b4;" x="182.771809" xlink:href="#m12caa14023" y="312.8728"/>
     <use style="fill:#1f77b4;stroke:#1f77b4;" x="174.071011" xlink:href="#m12caa14023" y="352.263282"/>
     <use style="fill:#1f77b4;stroke:#1f77b4;" x="313.283778" xlink:href="#m12caa14023" y="339.220076"/>
     <use style="fill:#1f77b4;stroke:#1f77b4;" x="58.350399" xlink:href="#m12caa14023" y="341.306989"/>
     <use style="fill:#1f77b4;stroke:#1f77b4;" x="173.200931" xlink:href="#m12caa14023" y="283.134291"/>
     <use style="fill:#1f77b4;stroke:#1f77b4;" x="93.153591" xlink:href="#m12caa14023" y="295.655769"/>
     <use style="fill:#1f77b4;stroke:#1f77b4;" x="67.921277" xlink:href="#m12caa14023" y="317.437922"/>
     <use style="fill:#1f77b4;stroke:#1f77b4;" x="205.393884" xlink:href="#m12caa14023" y="287.308117"/>
     <use style="fill:#1f77b4;stroke:#1f77b4;" x="237.586836" xlink:href="#m12caa14023" y="311.177184"/>
     <use style="fill:#1f77b4;stroke:#1f77b4;" x="294.142022" xlink:href="#m12caa14023" y="305.699037"/>
     <use style="fill:#1f77b4;stroke:#1f77b4;" x="253.248272" xlink:href="#m12caa14023" y="325.002982"/>
     <use style="fill:#1f77b4;stroke:#1f77b4;" x="92.283511" xlink:href="#m12caa14023" y="321.611748"/>
     <use style="fill:#1f77b4;stroke:#1f77b4;" x="366.358645" xlink:href="#m12caa14023" y="271.264974"/>
     <use style="fill:#1f77b4;stroke:#1f77b4;" x="152.319016" xlink:href="#m12caa14023" y="312.090208"/>
     <use style="fill:#1f77b4;stroke:#1f77b4;" x="147.968617" xlink:href="#m12caa14023" y="280.003922"/>
    </g>
   </g>
   <g id="PathCollection_2">
    <defs>
     <path d="M 0 3 
C 0.795609 3 1.55874 2.683901 2.12132 2.12132 
C 2.683901 1.55874 3 0.795609 3 0 
C 3 -0.795609 2.683901 -1.55874 2.12132 -2.12132 
C 1.55874 -2.683901 0.795609 -3 0 -3 
C -0.795609 -3 -1.55874 -2.683901 -2.12132 -2.12132 
C -2.683901 -1.55874 -3 -0.795609 -3 0 
C -3 0.795609 -2.683901 1.55874 -2.12132 2.12132 
C -1.55874 2.683901 -0.795609 3 0 3 
z
" id="mb3ae92eab6" style="stroke:#ff7f0e;"/>
    </defs>
    <g clip-path="url(#p0749489437)">
     <use style="fill:#ff7f0e;stroke:#ff7f0e;" x="328.075134" xlink:href="#mb3ae92eab6" y="253.004486"/>
     <use style="fill:#ff7f0e;stroke:#ff7f0e;" x="361.138166" xlink:href="#mb3ae92eab6" y="260.308681"/>
     <use style="fill:#ff7f0e;stroke:#ff7f0e;" x="141.878059" xlink:href="#mb3ae92eab6" y="254.308807"/>
     <use style="fill:#ff7f0e;stroke:#ff7f0e;" x="225.405719" xlink:href="#mb3ae92eab6" y="229.657148"/>
     <use style="fill:#ff7f0e;stroke:#ff7f0e;" x="65.311037" xlink:href="#mb3ae92eab6" y="263.308619"/>
     <use style="fill:#ff7f0e;stroke:#ff7f0e;" x="87.933112" xlink:href="#mb3ae92eab6" y="306.742494"/>
     <use style="fill:#ff7f0e;stroke:#ff7f0e;" x="147.098538" xlink:href="#mb3ae92eab6" y="202.396848"/>
     <use style="fill:#ff7f0e;stroke:#ff7f0e;" x="66.181117" xlink:href="#mb3ae92eab6" y="233.439677"/>
     <use style="fill:#ff7f0e;stroke:#ff7f0e;" x="349.827129" xlink:href="#mb3ae92eab6" y="209.048883"/>
     <use style="fill:#ff7f0e;stroke:#ff7f0e;" x="269.779788" xlink:href="#mb3ae92eab6" y="278.960465"/>
     <use style="fill:#ff7f0e;stroke:#ff7f0e;" x="218.445081" xlink:href="#mb3ae92eab6" y="283.395155"/>
     <use style="fill:#ff7f0e;stroke:#ff7f0e;" x="206.263964" xlink:href="#mb3ae92eab6" y="300.873051"/>
     <use style="fill:#ff7f0e;stroke:#ff7f0e;" x="156.669415" xlink:href="#mb3ae92eab6" y="240.352576"/>
     <use style="fill:#ff7f0e;stroke:#ff7f0e;" x="112.295346" xlink:href="#mb3ae92eab6" y="287.047253"/>
     <use style="fill:#ff7f0e;stroke:#ff7f0e;" x="114.035506" xlink:href="#mb3ae92eab6" y="219.353015"/>
     <use style="fill:#ff7f0e;stroke:#ff7f0e;" x="301.972741" xlink:href="#mb3ae92eab6" y="274.525775"/>
     <use style="fill:#ff7f0e;stroke:#ff7f0e;" x="61.830718" xlink:href="#mb3ae92eab6" y="212.04882"/>
     <use style="fill:#ff7f0e;stroke:#ff7f0e;" x="328.945214" xlink:href="#mb3ae92eab6" y="242.178625"/>
     <use style="fill:#ff7f0e;stroke:#ff7f0e;" x="134.047341" xlink:href="#mb3ae92eab6" y="277.786577"/>
     <use style="fill:#ff7f0e;stroke:#ff7f0e;" x="275.000267" xlink:href="#mb3ae92eab6" y="179.049509"/>
     <use style="fill:#ff7f0e;stroke:#ff7f0e;" x="369.838964" xlink:href="#mb3ae92eab6" y="256.787016"/>
     <use style="fill:#ff7f0e;stroke:#ff7f0e;" x="169.720612" xlink:href="#mb3ae92eab6" y="193.918764"/>
     <use style="fill:#ff7f0e;stroke:#ff7f0e;" x="89.673271" xlink:href="#mb3ae92eab6" y="209.570611"/>
     <use style="fill:#ff7f0e;stroke:#ff7f0e;" x="284.571145" xlink:href="#mb3ae92eab6" y="238.65696"/>
     <use style="fill:#ff7f0e;stroke:#ff7f0e;" x="114.905585" xlink:href="#mb3ae92eab6" y="176.962596"/>
     <use style="fill:#ff7f0e;stroke:#ff7f0e;" x="250.638033" xlink:href="#mb3ae92eab6" y="222.22252"/>
     <use style="fill:#ff7f0e;stroke:#ff7f0e;" x="77.492154" xlink:href="#mb3ae92eab6" y="250.395845"/>
     <use style="fill:#ff7f0e;stroke:#ff7f0e;" x="370.709044" xlink:href="#mb3ae92eab6" y="208.135858"/>
     <use style="fill:#ff7f0e;stroke:#ff7f0e;" x="221.9254" xlink:href="#mb3ae92eab6" y="167.571488"/>
     <use style="fill:#ff7f0e;stroke:#ff7f0e;" x="181.901729" xlink:href="#mb3ae92eab6" y="225.613754"/>
     <use style="fill:#ff7f0e;stroke:#ff7f0e;" x="74.881915" xlink:href="#mb3ae92eab6" y="262.395594"/>
     <use style="fill:#ff7f0e;stroke:#ff7f0e;" x="188.862368" xlink:href="#mb3ae92eab6" y="189.614506"/>
     <use style="fill:#ff7f0e;stroke:#ff7f0e;" x="132.307181" xlink:href="#mb3ae92eab6" y="229.135419"/>
     <use style="fill:#ff7f0e;stroke:#ff7f0e;" x="177.55133" xlink:href="#mb3ae92eab6" y="232.396221"/>
     <use style="fill:#ff7f0e;stroke:#ff7f0e;" x="212.354522" xlink:href="#mb3ae92eab6" y="237.613503"/>
     <use style="fill:#ff7f0e;stroke:#ff7f0e;" x="182.771809" xlink:href="#mb3ae92eab6" y="215.700918"/>
     <use style="fill:#ff7f0e;stroke:#ff7f0e;" x="174.071011" xlink:href="#mb3ae92eab6" y="206.048945"/>
     <use style="fill:#ff7f0e;stroke:#ff7f0e;" x="313.283778" xlink:href="#mb3ae92eab6" y="193.527468"/>
     <use style="fill:#ff7f0e;stroke:#ff7f0e;" x="58.350399" xlink:href="#mb3ae92eab6" y="218.048695"/>
     <use style="fill:#ff7f0e;stroke:#ff7f0e;" x="173.200931" xlink:href="#mb3ae92eab6" y="234.483134"/>
     <use style="fill:#ff7f0e;stroke:#ff7f0e;" x="93.153591" xlink:href="#mb3ae92eab6" y="225.613754"/>
     <use style="fill:#ff7f0e;stroke:#ff7f0e;" x="67.921277" xlink:href="#mb3ae92eab6" y="249.352388"/>
     <use style="fill:#ff7f0e;stroke:#ff7f0e;" x="205.393884" xlink:href="#mb3ae92eab6" y="218.570423"/>
     <use style="fill:#ff7f0e;stroke:#ff7f0e;" x="237.586836" xlink:href="#mb3ae92eab6" y="173.962659"/>
     <use style="fill:#ff7f0e;stroke:#ff7f0e;" x="294.142022" xlink:href="#mb3ae92eab6" y="164.571551"/>
     <use style="fill:#ff7f0e;stroke:#ff7f0e;" x="253.248272" xlink:href="#mb3ae92eab6" y="252.874054"/>
     <use style="fill:#ff7f0e;stroke:#ff7f0e;" x="92.283511" xlink:href="#mb3ae92eab6" y="186.223273"/>
     <use style="fill:#ff7f0e;stroke:#ff7f0e;" x="366.358645" xlink:href="#mb3ae92eab6" y="223.657273"/>
     <use style="fill:#ff7f0e;stroke:#ff7f0e;" x="152.319016" xlink:href="#mb3ae92eab6" y="222.22252"/>
     <use style="fill:#ff7f0e;stroke:#ff7f0e;" x="147.968617" xlink:href="#mb3ae92eab6" y="200.962095"/>
    </g>
   </g>
   <g id="PathCollection_3">
    <defs>
     <path d="M 0 3 
C 0.795609 3 1.55874 2.683901 2.12132 2.12132 
C 2.683901 1.55874 3 0.795609 3 0 
C 3 -0.795609 2.683901 -1.55874 2.12132 -2.12132 
C 1.55874 -2.683901 0.795609 -3 0 -3 
C -0.795609 -3 -1.55874 -2.683901 -2.12132 -2.12132 
C -2.683901 -1.55874 -3 -0.795609 -3 0 
C -3 0.795609 -2.683901 1.55874 -2.12132 2.12132 
C -1.55874 2.683901 -0.795609 3 0 3 
z
" id="mb58136e56c" style="stroke:#2ca02c;"/>
    </defs>
    <g clip-path="url(#p0749489437)">
     <use style="fill:#2ca02c;stroke:#2ca02c;" x="328.075134" xlink:href="#mb58136e56c" y="163.136798"/>
     <use style="fill:#2ca02c;stroke:#2ca02c;" x="361.138166" xlink:href="#mb58136e56c" y="92.964351"/>
     <use style="fill:#2ca02c;stroke:#2ca02c;" x="141.878059" xlink:href="#mb58136e56c" y="149.311"/>
     <use style="fill:#2ca02c;stroke:#2ca02c;" x="225.405719" xlink:href="#mb58136e56c" y="125.311502"/>
     <use style="fill:#2ca02c;stroke:#2ca02c;" x="65.311037" xlink:href="#mb58136e56c" y="158.571676"/>
     <use style="fill:#2ca02c;stroke:#2ca02c;" x="87.933112" xlink:href="#mb58136e56c" y="70.530038"/>
     <use style="fill:#2ca02c;stroke:#2ca02c;" x="147.098538" xlink:href="#mb58136e56c" y="109.268359"/>
     <use style="fill:#2ca02c;stroke:#2ca02c;" x="66.181117" xlink:href="#mb58136e56c" y="246.613315"/>
     <use style="fill:#2ca02c;stroke:#2ca02c;" x="349.827129" xlink:href="#mb58136e56c" y="113.833481"/>
     <use style="fill:#2ca02c;stroke:#2ca02c;" x="269.779788" xlink:href="#mb58136e56c" y="166.006304"/>
     <use style="fill:#2ca02c;stroke:#2ca02c;" x="218.445081" xlink:href="#mb58136e56c" y="177.745189"/>
     <use style="fill:#2ca02c;stroke:#2ca02c;" x="206.263964" xlink:href="#mb58136e56c" y="132.093969"/>
     <use style="fill:#2ca02c;stroke:#2ca02c;" x="156.669415" xlink:href="#mb58136e56c" y="142.528533"/>
     <use style="fill:#2ca02c;stroke:#2ca02c;" x="112.295346" xlink:href="#mb58136e56c" y="159.223837"/>
     <use style="fill:#2ca02c;stroke:#2ca02c;" x="114.035506" xlink:href="#mb58136e56c" y="157.006492"/>
     <use style="fill:#2ca02c;stroke:#2ca02c;" x="301.972741" xlink:href="#mb58136e56c" y="131.441808"/>
     <use style="fill:#2ca02c;stroke:#2ca02c;" x="61.830718" xlink:href="#mb58136e56c" y="204.744625"/>
     <use style="fill:#2ca02c;stroke:#2ca02c;" x="328.945214" xlink:href="#mb58136e56c" y="235.917886"/>
     <use style="fill:#2ca02c;stroke:#2ca02c;" x="134.047341" xlink:href="#mb58136e56c" y="150.745753"/>
     <use style="fill:#2ca02c;stroke:#2ca02c;" x="275.000267" xlink:href="#mb58136e56c" y="234.352702"/>
     <use style="fill:#2ca02c;stroke:#2ca02c;" x="369.838964" xlink:href="#mb58136e56c" y="151.267481"/>
     <use style="fill:#2ca02c;stroke:#2ca02c;" x="169.720612" xlink:href="#mb58136e56c" y="159.093405"/>
     <use style="fill:#2ca02c;stroke:#2ca02c;" x="89.673271" xlink:href="#mb58136e56c" y="176.962596"/>
     <use style="fill:#2ca02c;stroke:#2ca02c;" x="284.571145" xlink:href="#mb58136e56c" y="152.050073"/>
     <use style="fill:#2ca02c;stroke:#2ca02c;" x="114.905585" xlink:href="#mb58136e56c" y="146.050199"/>
     <use style="fill:#2ca02c;stroke:#2ca02c;" x="250.638033" xlink:href="#mb58136e56c" y="221.831224"/>
     <use style="fill:#2ca02c;stroke:#2ca02c;" x="77.492154" xlink:href="#mb58136e56c" y="212.961844"/>
     <use style="fill:#2ca02c;stroke:#2ca02c;" x="370.709044" xlink:href="#mb58136e56c" y="266.56942"/>
     <use style="fill:#2ca02c;stroke:#2ca02c;" x="221.9254" xlink:href="#mb58136e56c" y="139.528596"/>
     <use style="fill:#2ca02c;stroke:#2ca02c;" x="181.901729" xlink:href="#mb58136e56c" y="153.74569"/>
     <use style="fill:#2ca02c;stroke:#2ca02c;" x="74.881915" xlink:href="#mb58136e56c" y="170.83229"/>
     <use style="fill:#2ca02c;stroke:#2ca02c;" x="188.862368" xlink:href="#mb58136e56c" y="229.918012"/>
     <use style="fill:#2ca02c;stroke:#2ca02c;" x="132.307181" xlink:href="#mb58136e56c" y="217.13567"/>
     <use style="fill:#2ca02c;stroke:#2ca02c;" x="177.55133" xlink:href="#mb58136e56c" y="181.527718"/>
     <use style="fill:#2ca02c;stroke:#2ca02c;" x="212.354522" xlink:href="#mb58136e56c" y="139.528596"/>
     <use style="fill:#2ca02c;stroke:#2ca02c;" x="182.771809" xlink:href="#mb58136e56c" y="136.00693"/>
     <use style="fill:#2ca02c;stroke:#2ca02c;" x="174.071011" xlink:href="#mb58136e56c" y="117.355146"/>
     <use style="fill:#2ca02c;stroke:#2ca02c;" x="313.283778" xlink:href="#mb58136e56c" y="67.660532"/>
     <use style="fill:#2ca02c;stroke:#2ca02c;" x="58.350399" xlink:href="#mb58136e56c" y="155.963035"/>
     <use style="fill:#2ca02c;stroke:#2ca02c;" x="173.200931" xlink:href="#mb58136e56c" y="169.006241"/>
     <use style="fill:#2ca02c;stroke:#2ca02c;" x="93.153591" xlink:href="#mb58136e56c" y="103.268484"/>
     <use style="fill:#2ca02c;stroke:#2ca02c;" x="67.921277" xlink:href="#mb58136e56c" y="78.486393"/>
     <use style="fill:#2ca02c;stroke:#2ca02c;" x="205.393884" xlink:href="#mb58136e56c" y="211.918388"/>
     <use style="fill:#2ca02c;stroke:#2ca02c;" x="237.586836" xlink:href="#mb58136e56c" y="178.658213"/>
     <use style="fill:#2ca02c;stroke:#2ca02c;" x="294.142022" xlink:href="#mb58136e56c" y="123.485453"/>
     <use style="fill:#2ca02c;stroke:#2ca02c;" x="253.248272" xlink:href="#mb58136e56c" y="216.744374"/>
     <use style="fill:#2ca02c;stroke:#2ca02c;" x="92.283511" xlink:href="#mb58136e56c" y="121.268108"/>
     <use style="fill:#2ca02c;stroke:#2ca02c;" x="366.358645" xlink:href="#mb58136e56c" y="142.919829"/>
     <use style="fill:#2ca02c;stroke:#2ca02c;" x="152.319016" xlink:href="#mb58136e56c" y="140.311188"/>
     <use style="fill:#2ca02c;stroke:#2ca02c;" x="147.968617" xlink:href="#mb58136e56c" y="131.180944"/>
    </g>
   </g>
   <g id="matplotlib.axis_1">
    <g id="xtick_1">
     <g id="line2d_1">
      <defs>
       <path d="M 0 0 
L 0 3.5 
" id="md42c86d9e1" style="stroke:#000000;stroke-width:0.8;"/>
      </defs>
      <g>
       <use style="stroke:#000000;stroke-width:0.8;" x="54" xlink:href="#md42c86d9e1" y="384.48"/>
      </g>
     </g>
     <g id="text_1">
      <!-- 0 -->
      <defs>
       <path d="M 31.78125 66.40625 
Q 24.171875 66.40625 20.328125 58.90625 
Q 16.5 51.421875 16.5 36.375 
Q 16.5 21.390625 20.328125 13.890625 
Q 24.171875 6.390625 31.78125 6.390625 
Q 39.453125 6.390625 43.28125 13.890625 
Q 47.125 21.390625 47.125 36.375 
Q 47.125 51.421875 43.28125 58.90625 
Q 39.453125 66.40625 31.78125 66.40625 
z
M 31.78125 74.21875 
Q 44.046875 74.21875 50.515625 64.515625 
Q 56.984375 54.828125 56.984375 36.375 
Q 56.984375 17.96875 50.515625 8.265625 
Q 44.046875 -1.421875 31.78125 -1.421875 
Q 19.53125 -1.421875 13.0625 8.265625 
Q 6.59375 17.96875 6.59375 36.375 
Q 6.59375 54.828125 13.0625 64.515625 
Q 19.53125 74.21875 31.78125 74.21875 
z
" id="DejaVuSans-30"/>
      </defs>
      <g transform="translate(50.81875 399.078438)scale(0.1 -0.1)">
       <use xlink:href="#DejaVuSans-30"/>
      </g>
     </g>
    </g>
    <g id="xtick_2">
     <g id="line2d_2">
      <g>
       <use style="stroke:#000000;stroke-width:0.8;" x="97.50399" xlink:href="#md42c86d9e1" y="384.48"/>
      </g>
     </g>
     <g id="text_2">
      <!-- 50 -->
      <defs>
       <path d="M 10.796875 72.90625 
L 49.515625 72.90625 
L 49.515625 64.59375 
L 19.828125 64.59375 
L 19.828125 46.734375 
Q 21.96875 47.46875 24.109375 47.828125 
Q 26.265625 48.1875 28.421875 48.1875 
Q 40.625 48.1875 47.75 41.5 
Q 54.890625 34.8125 54.890625 23.390625 
Q 54.890625 11.625 47.5625 5.09375 
Q 40.234375 -1.421875 26.90625 -1.421875 
Q 22.3125 -1.421875 17.546875 -0.640625 
Q 12.796875 0.140625 7.71875 1.703125 
L 7.71875 11.625 
Q 12.109375 9.234375 16.796875 8.0625 
Q 21.484375 6.890625 26.703125 6.890625 
Q 35.15625 6.890625 40.078125 11.328125 
Q 45.015625 15.765625 45.015625 23.390625 
Q 45.015625 31 40.078125 35.4375 
Q 35.15625 39.890625 26.703125 39.890625 
Q 22.75 39.890625 18.8125 39.015625 
Q 14.890625 38.140625 10.796875 36.28125 
z
" id="DejaVuSans-35"/>
      </defs>
      <g transform="translate(91.14149 399.078438)scale(0.1 -0.1)">
       <use xlink:href="#DejaVuSans-35"/>
       <use x="63.623047" xlink:href="#DejaVuSans-30"/>
      </g>
     </g>
    </g>
    <g id="xtick_3">
     <g id="line2d_3">
      <g>
       <use style="stroke:#000000;stroke-width:0.8;" x="141.007979" xlink:href="#md42c86d9e1" y="384.48"/>
      </g>
     </g>
     <g id="text_3">
      <!-- 100 -->
      <defs>
       <path d="M 12.40625 8.296875 
L 28.515625 8.296875 
L 28.515625 63.921875 
L 10.984375 60.40625 
L 10.984375 69.390625 
L 28.421875 72.90625 
L 38.28125 72.90625 
L 38.28125 8.296875 
L 54.390625 8.296875 
L 54.390625 0 
L 12.40625 0 
z
" id="DejaVuSans-31"/>
      </defs>
      <g transform="translate(131.464229 399.078438)scale(0.1 -0.1)">
       <use xlink:href="#DejaVuSans-31"/>
       <use x="63.623047" xlink:href="#DejaVuSans-30"/>
       <use x="127.246094" xlink:href="#DejaVuSans-30"/>
      </g>
     </g>
    </g>
    <g id="xtick_4">
     <g id="line2d_4">
      <g>
       <use style="stroke:#000000;stroke-width:0.8;" x="184.511969" xlink:href="#md42c86d9e1" y="384.48"/>
      </g>
     </g>
     <g id="text_4">
      <!-- 150 -->
      <g transform="translate(174.968219 399.078438)scale(0.1 -0.1)">
       <use xlink:href="#DejaVuSans-31"/>
       <use x="63.623047" xlink:href="#DejaVuSans-35"/>
       <use x="127.246094" xlink:href="#DejaVuSans-30"/>
      </g>
     </g>
    </g>
    <g id="xtick_5">
     <g id="line2d_5">
      <g>
       <use style="stroke:#000000;stroke-width:0.8;" x="228.015958" xlink:href="#md42c86d9e1" y="384.48"/>
      </g>
     </g>
     <g id="text_5">
      <!-- 200 -->
      <defs>
       <path d="M 19.1875 8.296875 
L 53.609375 8.296875 
L 53.609375 0 
L 7.328125 0 
L 7.328125 8.296875 
Q 12.9375 14.109375 22.625 23.890625 
Q 32.328125 33.6875 34.8125 36.53125 
Q 39.546875 41.84375 41.421875 45.53125 
Q 43.3125 49.21875 43.3125 52.78125 
Q 43.3125 58.59375 39.234375 62.25 
Q 35.15625 65.921875 28.609375 65.921875 
Q 23.96875 65.921875 18.8125 64.3125 
Q 13.671875 62.703125 7.8125 59.421875 
L 7.8125 69.390625 
Q 13.765625 71.78125 18.9375 73 
Q 24.125 74.21875 28.421875 74.21875 
Q 39.75 74.21875 46.484375 68.546875 
Q 53.21875 62.890625 53.21875 53.421875 
Q 53.21875 48.921875 51.53125 44.890625 
Q 49.859375 40.875 45.40625 35.40625 
Q 44.1875 33.984375 37.640625 27.21875 
Q 31.109375 20.453125 19.1875 8.296875 
z
" id="DejaVuSans-32"/>
      </defs>
      <g transform="translate(218.472208 399.078438)scale(0.1 -0.1)">
       <use xlink:href="#DejaVuSans-32"/>
       <use x="63.623047" xlink:href="#DejaVuSans-30"/>
       <use x="127.246094" xlink:href="#DejaVuSans-30"/>
      </g>
     </g>
    </g>
    <g id="xtick_6">
     <g id="line2d_6">
      <g>
       <use style="stroke:#000000;stroke-width:0.8;" x="271.519948" xlink:href="#md42c86d9e1" y="384.48"/>
      </g>
     </g>
     <g id="text_6">
      <!-- 250 -->
      <g transform="translate(261.976198 399.078438)scale(0.1 -0.1)">
       <use xlink:href="#DejaVuSans-32"/>
       <use x="63.623047" xlink:href="#DejaVuSans-35"/>
       <use x="127.246094" xlink:href="#DejaVuSans-30"/>
      </g>
     </g>
    </g>
    <g id="xtick_7">
     <g id="line2d_7">
      <g>
       <use style="stroke:#000000;stroke-width:0.8;" x="315.023937" xlink:href="#md42c86d9e1" y="384.48"/>
      </g>
     </g>
     <g id="text_7">
      <!-- 300 -->
      <defs>
       <path d="M 40.578125 39.3125 
Q 47.65625 37.796875 51.625 33 
Q 55.609375 28.21875 55.609375 21.1875 
Q 55.609375 10.40625 48.1875 4.484375 
Q 40.765625 -1.421875 27.09375 -1.421875 
Q 22.515625 -1.421875 17.65625 -0.515625 
Q 12.796875 0.390625 7.625 2.203125 
L 7.625 11.71875 
Q 11.71875 9.328125 16.59375 8.109375 
Q 21.484375 6.890625 26.8125 6.890625 
Q 36.078125 6.890625 40.9375 10.546875 
Q 45.796875 14.203125 45.796875 21.1875 
Q 45.796875 27.640625 41.28125 31.265625 
Q 36.765625 34.90625 28.71875 34.90625 
L 20.21875 34.90625 
L 20.21875 43.015625 
L 29.109375 43.015625 
Q 36.375 43.015625 40.234375 45.921875 
Q 44.09375 48.828125 44.09375 54.296875 
Q 44.09375 59.90625 40.109375 62.90625 
Q 36.140625 65.921875 28.71875 65.921875 
Q 24.65625 65.921875 20.015625 65.03125 
Q 15.375 64.15625 9.8125 62.3125 
L 9.8125 71.09375 
Q 15.4375 72.65625 20.34375 73.4375 
Q 25.25 74.21875 29.59375 74.21875 
Q 40.828125 74.21875 47.359375 69.109375 
Q 53.90625 64.015625 53.90625 55.328125 
Q 53.90625 49.265625 50.4375 45.09375 
Q 46.96875 40.921875 40.578125 39.3125 
z
" id="DejaVuSans-33"/>
      </defs>
      <g transform="translate(305.480187 399.078438)scale(0.1 -0.1)">
       <use xlink:href="#DejaVuSans-33"/>
       <use x="63.623047" xlink:href="#DejaVuSans-30"/>
       <use x="127.246094" xlink:href="#DejaVuSans-30"/>
      </g>
     </g>
    </g>
    <g id="xtick_8">
     <g id="line2d_8">
      <g>
       <use style="stroke:#000000;stroke-width:0.8;" x="358.527927" xlink:href="#md42c86d9e1" y="384.48"/>
      </g>
     </g>
     <g id="text_8">
      <!-- 350 -->
      <g transform="translate(348.984177 399.078438)scale(0.1 -0.1)">
       <use xlink:href="#DejaVuSans-33"/>
       <use x="63.623047" xlink:href="#DejaVuSans-35"/>
       <use x="127.246094" xlink:href="#DejaVuSans-30"/>
      </g>
     </g>
    </g>
    <g id="text_9">
     <!-- cl_number -->
     <defs>
      <path d="M 48.78125 52.59375 
L 48.78125 44.1875 
Q 44.96875 46.296875 41.140625 47.34375 
Q 37.3125 48.390625 33.40625 48.390625 
Q 24.65625 48.390625 19.8125 42.84375 
Q 14.984375 37.3125 14.984375 27.296875 
Q 14.984375 17.28125 19.8125 11.734375 
Q 24.65625 6.203125 33.40625 6.203125 
Q 37.3125 6.203125 41.140625 7.25 
Q 44.96875 8.296875 48.78125 10.40625 
L 48.78125 2.09375 
Q 45.015625 0.34375 40.984375 -0.53125 
Q 36.96875 -1.421875 32.421875 -1.421875 
Q 20.0625 -1.421875 12.78125 6.34375 
Q 5.515625 14.109375 5.515625 27.296875 
Q 5.515625 40.671875 12.859375 48.328125 
Q 20.21875 56 33.015625 56 
Q 37.15625 56 41.109375 55.140625 
Q 45.0625 54.296875 48.78125 52.59375 
z
" id="DejaVuSans-63"/>
      <path d="M 9.421875 75.984375 
L 18.40625 75.984375 
L 18.40625 0 
L 9.421875 0 
z
" id="DejaVuSans-6c"/>
      <path d="M 50.984375 -16.609375 
L 50.984375 -23.578125 
L -0.984375 -23.578125 
L -0.984375 -16.609375 
z
" id="DejaVuSans-5f"/>
      <path d="M 54.890625 33.015625 
L 54.890625 0 
L 45.90625 0 
L 45.90625 32.71875 
Q 45.90625 40.484375 42.875 44.328125 
Q 39.84375 48.1875 33.796875 48.1875 
Q 26.515625 48.1875 22.3125 43.546875 
Q 18.109375 38.921875 18.109375 30.90625 
L 18.109375 0 
L 9.078125 0 
L 9.078125 54.6875 
L 18.109375 54.6875 
L 18.109375 46.1875 
Q 21.34375 51.125 25.703125 53.5625 
Q 30.078125 56 35.796875 56 
Q 45.21875 56 50.046875 50.171875 
Q 54.890625 44.34375 54.890625 33.015625 
z
" id="DejaVuSans-6e"/>
      <path d="M 8.5 21.578125 
L 8.5 54.6875 
L 17.484375 54.6875 
L 17.484375 21.921875 
Q 17.484375 14.15625 20.5 10.265625 
Q 23.53125 6.390625 29.59375 6.390625 
Q 36.859375 6.390625 41.078125 11.03125 
Q 45.3125 15.671875 45.3125 23.6875 
L 45.3125 54.6875 
L 54.296875 54.6875 
L 54.296875 0 
L 45.3125 0 
L 45.3125 8.40625 
Q 42.046875 3.421875 37.71875 1 
Q 33.40625 -1.421875 27.6875 -1.421875 
Q 18.265625 -1.421875 13.375 4.4375 
Q 8.5 10.296875 8.5 21.578125 
z
M 31.109375 56 
z
" id="DejaVuSans-75"/>
      <path d="M 52 44.1875 
Q 55.375 50.25 60.0625 53.125 
Q 64.75 56 71.09375 56 
Q 79.640625 56 84.28125 50.015625 
Q 88.921875 44.046875 88.921875 33.015625 
L 88.921875 0 
L 79.890625 0 
L 79.890625 32.71875 
Q 79.890625 40.578125 77.09375 44.375 
Q 74.3125 48.1875 68.609375 48.1875 
Q 61.625 48.1875 57.5625 43.546875 
Q 53.515625 38.921875 53.515625 30.90625 
L 53.515625 0 
L 44.484375 0 
L 44.484375 32.71875 
Q 44.484375 40.625 41.703125 44.40625 
Q 38.921875 48.1875 33.109375 48.1875 
Q 26.21875 48.1875 22.15625 43.53125 
Q 18.109375 38.875 18.109375 30.90625 
L 18.109375 0 
L 9.078125 0 
L 9.078125 54.6875 
L 18.109375 54.6875 
L 18.109375 46.1875 
Q 21.1875 51.21875 25.484375 53.609375 
Q 29.78125 56 35.6875 56 
Q 41.65625 56 45.828125 52.96875 
Q 50 49.953125 52 44.1875 
z
" id="DejaVuSans-6d"/>
      <path d="M 48.6875 27.296875 
Q 48.6875 37.203125 44.609375 42.84375 
Q 40.53125 48.484375 33.40625 48.484375 
Q 26.265625 48.484375 22.1875 42.84375 
Q 18.109375 37.203125 18.109375 27.296875 
Q 18.109375 17.390625 22.1875 11.75 
Q 26.265625 6.109375 33.40625 6.109375 
Q 40.53125 6.109375 44.609375 11.75 
Q 48.6875 17.390625 48.6875 27.296875 
z
M 18.109375 46.390625 
Q 20.953125 51.265625 25.265625 53.625 
Q 29.59375 56 35.59375 56 
Q 45.5625 56 51.78125 48.09375 
Q 58.015625 40.1875 58.015625 27.296875 
Q 58.015625 14.40625 51.78125 6.484375 
Q 45.5625 -1.421875 35.59375 -1.421875 
Q 29.59375 -1.421875 25.265625 0.953125 
Q 20.953125 3.328125 18.109375 8.203125 
L 18.109375 0 
L 9.078125 0 
L 9.078125 75.984375 
L 18.109375 75.984375 
z
" id="DejaVuSans-62"/>
      <path d="M 56.203125 29.59375 
L 56.203125 25.203125 
L 14.890625 25.203125 
Q 15.484375 15.921875 20.484375 11.0625 
Q 25.484375 6.203125 34.421875 6.203125 
Q 39.59375 6.203125 44.453125 7.46875 
Q 49.3125 8.734375 54.109375 11.28125 
L 54.109375 2.78125 
Q 49.265625 0.734375 44.1875 -0.34375 
Q 39.109375 -1.421875 33.890625 -1.421875 
Q 20.796875 -1.421875 13.15625 6.1875 
Q 5.515625 13.8125 5.515625 26.8125 
Q 5.515625 40.234375 12.765625 48.109375 
Q 20.015625 56 32.328125 56 
Q 43.359375 56 49.78125 48.890625 
Q 56.203125 41.796875 56.203125 29.59375 
z
M 47.21875 32.234375 
Q 47.125 39.59375 43.09375 43.984375 
Q 39.0625 48.390625 32.421875 48.390625 
Q 24.90625 48.390625 20.390625 44.140625 
Q 15.875 39.890625 15.1875 32.171875 
z
" id="DejaVuSans-65"/>
      <path d="M 41.109375 46.296875 
Q 39.59375 47.171875 37.8125 47.578125 
Q 36.03125 48 33.890625 48 
Q 26.265625 48 22.1875 43.046875 
Q 18.109375 38.09375 18.109375 28.8125 
L 18.109375 0 
L 9.078125 0 
L 9.078125 54.6875 
L 18.109375 54.6875 
L 18.109375 46.1875 
Q 20.953125 51.171875 25.484375 53.578125 
Q 30.03125 56 36.53125 56 
Q 37.453125 56 38.578125 55.875 
Q 39.703125 55.765625 41.0625 55.515625 
z
" id="DejaVuSans-72"/>
     </defs>
     <g transform="translate(195.247656 412.756563)scale(0.1 -0.1)">
      <use xlink:href="#DejaVuSans-63"/>
      <use x="54.980469" xlink:href="#DejaVuSans-6c"/>
      <use x="82.763672" xlink:href="#DejaVuSans-5f"/>
      <use x="132.763672" xlink:href="#DejaVuSans-6e"/>
      <use x="196.142578" xlink:href="#DejaVuSans-75"/>
      <use x="259.521484" xlink:href="#DejaVuSans-6d"/>
      <use x="356.933594" xlink:href="#DejaVuSans-62"/>
      <use x="420.410156" xlink:href="#DejaVuSans-65"/>
      <use x="481.933594" xlink:href="#DejaVuSans-72"/>
     </g>
    </g>
   </g>
   <g id="matplotlib.axis_2">
    <g id="ytick_1">
     <g id="line2d_9">
      <defs>
       <path d="M 0 0 
L -3.5 0 
" id="mb86d2cb03c" style="stroke:#000000;stroke-width:0.8;"/>
      </defs>
      <g>
       <use style="stroke:#000000;stroke-width:0.8;" x="54" xlink:href="#mb86d2cb03c" y="384.48"/>
      </g>
     </g>
     <g id="text_10">
      <!-- 0 -->
      <g transform="translate(40.6375 388.279219)scale(0.1 -0.1)">
       <use xlink:href="#DejaVuSans-30"/>
      </g>
     </g>
    </g>
    <g id="ytick_2">
     <g id="line2d_10">
      <g>
       <use style="stroke:#000000;stroke-width:0.8;" x="54" xlink:href="#mb86d2cb03c" y="318.611811"/>
      </g>
     </g>
     <g id="text_11">
      <!-- 5 -->
      <g transform="translate(40.6375 322.41103)scale(0.1 -0.1)">
       <use xlink:href="#DejaVuSans-35"/>
      </g>
     </g>
    </g>
    <g id="ytick_3">
     <g id="line2d_11">
      <g>
       <use style="stroke:#000000;stroke-width:0.8;" x="54" xlink:href="#mb86d2cb03c" y="252.743622"/>
      </g>
     </g>
     <g id="text_12">
      <!-- 10 -->
      <g transform="translate(34.275 256.542841)scale(0.1 -0.1)">
       <use xlink:href="#DejaVuSans-31"/>
       <use x="63.623047" xlink:href="#DejaVuSans-30"/>
      </g>
     </g>
    </g>
    <g id="ytick_4">
     <g id="line2d_12">
      <g>
       <use style="stroke:#000000;stroke-width:0.8;" x="54" xlink:href="#mb86d2cb03c" y="186.875433"/>
      </g>
     </g>
     <g id="text_13">
      <!-- 15 -->
      <g transform="translate(34.275 190.674652)scale(0.1 -0.1)">
       <use xlink:href="#DejaVuSans-31"/>
       <use x="63.623047" xlink:href="#DejaVuSans-35"/>
      </g>
     </g>
    </g>
    <g id="ytick_5">
     <g id="line2d_13">
      <g>
       <use style="stroke:#000000;stroke-width:0.8;" x="54" xlink:href="#mb86d2cb03c" y="121.007244"/>
      </g>
     </g>
     <g id="text_14">
      <!-- 20 -->
      <g transform="translate(34.275 124.806463)scale(0.1 -0.1)">
       <use xlink:href="#DejaVuSans-32"/>
       <use x="63.623047" xlink:href="#DejaVuSans-30"/>
      </g>
     </g>
    </g>
    <g id="ytick_6">
     <g id="line2d_14">
      <g>
       <use style="stroke:#000000;stroke-width:0.8;" x="54" xlink:href="#mb86d2cb03c" y="55.139055"/>
      </g>
     </g>
     <g id="text_15">
      <!-- 25 -->
      <g transform="translate(34.275 58.938273)scale(0.1 -0.1)">
       <use xlink:href="#DejaVuSans-32"/>
       <use x="63.623047" xlink:href="#DejaVuSans-35"/>
      </g>
     </g>
    </g>
    <g id="text_16">
     <!-- bound_mt -->
     <defs>
      <path d="M 30.609375 48.390625 
Q 23.390625 48.390625 19.1875 42.75 
Q 14.984375 37.109375 14.984375 27.296875 
Q 14.984375 17.484375 19.15625 11.84375 
Q 23.34375 6.203125 30.609375 6.203125 
Q 37.796875 6.203125 41.984375 11.859375 
Q 46.1875 17.53125 46.1875 27.296875 
Q 46.1875 37.015625 41.984375 42.703125 
Q 37.796875 48.390625 30.609375 48.390625 
z
M 30.609375 56 
Q 42.328125 56 49.015625 48.375 
Q 55.71875 40.765625 55.71875 27.296875 
Q 55.71875 13.875 49.015625 6.21875 
Q 42.328125 -1.421875 30.609375 -1.421875 
Q 18.84375 -1.421875 12.171875 6.21875 
Q 5.515625 13.875 5.515625 27.296875 
Q 5.515625 40.765625 12.171875 48.375 
Q 18.84375 56 30.609375 56 
z
" id="DejaVuSans-6f"/>
      <path d="M 45.40625 46.390625 
L 45.40625 75.984375 
L 54.390625 75.984375 
L 54.390625 0 
L 45.40625 0 
L 45.40625 8.203125 
Q 42.578125 3.328125 38.25 0.953125 
Q 33.9375 -1.421875 27.875 -1.421875 
Q 17.96875 -1.421875 11.734375 6.484375 
Q 5.515625 14.40625 5.515625 27.296875 
Q 5.515625 40.1875 11.734375 48.09375 
Q 17.96875 56 27.875 56 
Q 33.9375 56 38.25 53.625 
Q 42.578125 51.265625 45.40625 46.390625 
z
M 14.796875 27.296875 
Q 14.796875 17.390625 18.875 11.75 
Q 22.953125 6.109375 30.078125 6.109375 
Q 37.203125 6.109375 41.296875 11.75 
Q 45.40625 17.390625 45.40625 27.296875 
Q 45.40625 37.203125 41.296875 42.84375 
Q 37.203125 48.484375 30.078125 48.484375 
Q 22.953125 48.484375 18.875 42.84375 
Q 14.796875 37.203125 14.796875 27.296875 
z
" id="DejaVuSans-64"/>
      <path d="M 18.3125 70.21875 
L 18.3125 54.6875 
L 36.8125 54.6875 
L 36.8125 47.703125 
L 18.3125 47.703125 
L 18.3125 18.015625 
Q 18.3125 11.328125 20.140625 9.421875 
Q 21.96875 7.515625 27.59375 7.515625 
L 36.8125 7.515625 
L 36.8125 0 
L 27.59375 0 
Q 17.1875 0 13.234375 3.875 
Q 9.28125 7.765625 9.28125 18.015625 
L 9.28125 47.703125 
L 2.6875 47.703125 
L 2.6875 54.6875 
L 9.28125 54.6875 
L 9.28125 70.21875 
z
" id="DejaVuSans-74"/>
     </defs>
     <g transform="translate(27.917187 243.235781)rotate(-90)scale(0.1 -0.1)">
      <use xlink:href="#DejaVuSans-62"/>
      <use x="63.476562" xlink:href="#DejaVuSans-6f"/>
      <use x="124.658203" xlink:href="#DejaVuSans-75"/>
      <use x="188.037109" xlink:href="#DejaVuSans-6e"/>
      <use x="251.416016" xlink:href="#DejaVuSans-64"/>
      <use x="314.892578" xlink:href="#DejaVuSans-5f"/>
      <use x="364.892578" xlink:href="#DejaVuSans-6d"/>
      <use x="462.304688" xlink:href="#DejaVuSans-74"/>
     </g>
    </g>
   </g>
   <g id="line2d_15">
    <path clip-path="url(#p0749489437)" d="M 58.350399 302.712593 
L 61.830718 302.712593 
L 65.311037 302.712593 
L 66.181117 302.712593 
L 67.921277 302.712593 
L 74.881915 302.712593 
L 77.492154 302.712593 
L 87.933112 302.712593 
L 89.673271 302.712593 
L 92.283511 302.712593 
L 93.153591 302.712593 
L 112.295346 302.712593 
L 114.035506 302.712593 
L 114.905585 302.712593 
L 132.307181 302.712593 
L 134.047341 302.712593 
L 141.878059 302.712593 
L 147.098538 302.712593 
L 147.968617 302.712593 
L 152.319016 302.712593 
L 156.669415 302.712593 
L 169.720612 302.712593 
L 173.200931 302.712593 
L 174.071011 302.712593 
L 177.55133 302.712593 
L 181.901729 302.712593 
L 182.771809 302.712593 
L 188.862368 302.712593 
L 205.393884 302.712593 
L 206.263964 302.712593 
L 212.354522 302.712593 
L 218.445081 302.712593 
L 221.9254 302.712593 
L 225.405719 302.712593 
L 237.586836 302.712593 
L 250.638033 302.712593 
L 253.248272 302.712593 
L 269.779788 302.712593 
L 275.000267 302.712593 
L 284.571145 302.712593 
L 294.142022 302.712593 
L 301.972741 302.712593 
L 313.283778 302.712593 
L 328.075134 302.712593 
L 328.945214 302.712593 
L 349.827129 302.712593 
L 361.138166 302.712593 
L 366.358645 302.712593 
L 369.838964 302.712593 
L 370.709044 302.712593 
" style="fill:none;stroke:#1f77b4;stroke-linecap:square;stroke-width:1.5;"/>
   </g>
   <g id="line2d_16">
    <path clip-path="url(#p0749489437)" d="M 58.350399 220.945186 
L 61.830718 220.945186 
L 65.311037 220.945186 
L 66.181117 220.945186 
L 67.921277 220.945186 
L 74.881915 220.945186 
L 77.492154 220.945186 
L 87.933112 220.945186 
L 89.673271 220.945186 
L 92.283511 220.945186 
L 93.153591 220.945186 
L 112.295346 220.945186 
L 114.035506 220.945186 
L 114.905585 220.945186 
L 132.307181 220.945186 
L 134.047341 220.945186 
L 141.878059 220.945186 
L 147.098538 220.945186 
L 147.968617 220.945186 
L 152.319016 220.945186 
L 156.669415 220.945186 
L 169.720612 220.945186 
L 173.200931 220.945186 
L 174.071011 220.945186 
L 177.55133 220.945186 
L 181.901729 220.945186 
L 182.771809 220.945186 
L 188.862368 220.945186 
L 205.393884 220.945186 
L 206.263964 220.945186 
L 212.354522 220.945186 
L 218.445081 220.945186 
L 221.9254 220.945186 
L 225.405719 220.945186 
L 237.586836 220.945186 
L 250.638033 220.945186 
L 253.248272 220.945186 
L 269.779788 220.945186 
L 275.000267 220.945186 
L 284.571145 220.945186 
L 294.142022 220.945186 
L 301.972741 220.945186 
L 313.283778 220.945186 
L 328.075134 220.945186 
L 328.945214 220.945186 
L 349.827129 220.945186 
L 361.138166 220.945186 
L 366.358645 220.945186 
L 369.838964 220.945186 
L 370.709044 220.945186 
" style="fill:none;stroke:#ff7f0e;stroke-linecap:square;stroke-width:1.5;"/>
   </g>
   <g id="line2d_17">
    <path clip-path="url(#p0749489437)" d="M 58.350399 139.177779 
L 61.830718 139.177779 
L 65.311037 139.177779 
L 66.181117 139.177779 
L 67.921277 139.177779 
L 74.881915 139.177779 
L 77.492154 139.177779 
L 87.933112 139.177779 
L 89.673271 139.177779 
L 92.283511 139.177779 
L 93.153591 139.177779 
L 112.295346 139.177779 
L 114.035506 139.177779 
L 114.905585 139.177779 
L 132.307181 139.177779 
L 134.047341 139.177779 
L 141.878059 139.177779 
L 147.098538 139.177779 
L 147.968617 139.177779 
L 152.319016 139.177779 
L 156.669415 139.177779 
L 169.720612 139.177779 
L 173.200931 139.177779 
L 174.071011 139.177779 
L 177.55133 139.177779 
L 181.901729 139.177779 
L 182.771809 139.177779 
L 188.862368 139.177779 
L 205.393884 139.177779 
L 206.263964 139.177779 
L 212.354522 139.177779 
L 218.445081 139.177779 
L 221.9254 139.177779 
L 225.405719 139.177779 
L 237.586836 139.177779 
L 250.638033 139.177779 
L 253.248272 139.177779 
L 269.779788 139.177779 
L 275.000267 139.177779 
L 284.571145 139.177779 
L 294.142022 139.177779 
L 301.972741 139.177779 
L 313.283778 139.177779 
L 328.075134 139.177779 
L 328.945214 139.177779 
L 349.827129 139.177779 
L 361.138166 139.177779 
L 366.358645 139.177779 
L 369.838964 139.177779 
L 370.709044 139.177779 
" style="fill:none;stroke:#2ca02c;stroke-linecap:square;stroke-width:1.5;"/>
   </g>
   <g id="patch_3">
    <path d="M 54 384.48 
L 54 51.84 
" style="fill:none;stroke:#000000;stroke-linecap:square;stroke-linejoin:miter;stroke-width:0.8;"/>
   </g>
   <g id="patch_4">
    <path d="M 388.8 384.48 
L 388.8 51.84 
" style="fill:none;stroke:#000000;stroke-linecap:square;stroke-linejoin:miter;stroke-width:0.8;"/>
   </g>
   <g id="patch_5">
    <path d="M 54 384.48 
L 388.8 384.48 
" style="fill:none;stroke:#000000;stroke-linecap:square;stroke-linejoin:miter;stroke-width:0.8;"/>
   </g>
   <g id="patch_6">
    <path d="M 54 51.84 
L 388.8 51.84 
" style="fill:none;stroke:#000000;stroke-linecap:square;stroke-linejoin:miter;stroke-width:0.8;"/>
   </g>
   <g id="legend_1">
    <g id="patch_7">
     <path d="M 168.603906 104.70875 
L 274.196094 104.70875 
Q 276.196094 104.70875 276.196094 102.70875 
L 276.196094 58.84 
Q 276.196094 56.84 274.196094 56.84 
L 168.603906 56.84 
Q 166.603906 56.84 166.603906 58.84 
L 166.603906 102.70875 
Q 166.603906 104.70875 168.603906 104.70875 
z
" style="fill:#ffffff;opacity:0.8;stroke:#cccccc;stroke-linejoin:miter;"/>
    </g>
    <g id="PathCollection_4">
     <g>
      <use style="fill:#1f77b4;stroke:#1f77b4;" x="180.603906" xlink:href="#m12caa14023" y="65.813438"/>
     </g>
    </g>
    <g id="text_17">
     <!-- mt_number 30 -->
     <defs>
      <path id="DejaVuSans-20"/>
     </defs>
     <g transform="translate(198.603906 68.438438)scale(0.1 -0.1)">
      <use xlink:href="#DejaVuSans-6d"/>
      <use x="97.412109" xlink:href="#DejaVuSans-74"/>
      <use x="136.621094" xlink:href="#DejaVuSans-5f"/>
      <use x="186.621094" xlink:href="#DejaVuSans-6e"/>
      <use x="250" xlink:href="#DejaVuSans-75"/>
      <use x="313.378906" xlink:href="#DejaVuSans-6d"/>
      <use x="410.791016" xlink:href="#DejaVuSans-62"/>
      <use x="474.267578" xlink:href="#DejaVuSans-65"/>
      <use x="535.791016" xlink:href="#DejaVuSans-72"/>
      <use x="576.904297" xlink:href="#DejaVuSans-20"/>
      <use x="608.691406" xlink:href="#DejaVuSans-33"/>
      <use x="672.314453" xlink:href="#DejaVuSans-30"/>
     </g>
    </g>
    <g id="PathCollection_5">
     <g>
      <use style="fill:#ff7f0e;stroke:#ff7f0e;" x="180.603906" xlink:href="#mb3ae92eab6" y="80.769688"/>
     </g>
    </g>
    <g id="text_18">
     <!-- mt_number 60 -->
     <defs>
      <path d="M 33.015625 40.375 
Q 26.375 40.375 22.484375 35.828125 
Q 18.609375 31.296875 18.609375 23.390625 
Q 18.609375 15.53125 22.484375 10.953125 
Q 26.375 6.390625 33.015625 6.390625 
Q 39.65625 6.390625 43.53125 10.953125 
Q 47.40625 15.53125 47.40625 23.390625 
Q 47.40625 31.296875 43.53125 35.828125 
Q 39.65625 40.375 33.015625 40.375 
z
M 52.59375 71.296875 
L 52.59375 62.3125 
Q 48.875 64.0625 45.09375 64.984375 
Q 41.3125 65.921875 37.59375 65.921875 
Q 27.828125 65.921875 22.671875 59.328125 
Q 17.53125 52.734375 16.796875 39.40625 
Q 19.671875 43.65625 24.015625 45.921875 
Q 28.375 48.1875 33.59375 48.1875 
Q 44.578125 48.1875 50.953125 41.515625 
Q 57.328125 34.859375 57.328125 23.390625 
Q 57.328125 12.15625 50.6875 5.359375 
Q 44.046875 -1.421875 33.015625 -1.421875 
Q 20.359375 -1.421875 13.671875 8.265625 
Q 6.984375 17.96875 6.984375 36.375 
Q 6.984375 53.65625 15.1875 63.9375 
Q 23.390625 74.21875 37.203125 74.21875 
Q 40.921875 74.21875 44.703125 73.484375 
Q 48.484375 72.75 52.59375 71.296875 
z
" id="DejaVuSans-36"/>
     </defs>
     <g transform="translate(198.603906 83.394688)scale(0.1 -0.1)">
      <use xlink:href="#DejaVuSans-6d"/>
      <use x="97.412109" xlink:href="#DejaVuSans-74"/>
      <use x="136.621094" xlink:href="#DejaVuSans-5f"/>
      <use x="186.621094" xlink:href="#DejaVuSans-6e"/>
      <use x="250" xlink:href="#DejaVuSans-75"/>
      <use x="313.378906" xlink:href="#DejaVuSans-6d"/>
      <use x="410.791016" xlink:href="#DejaVuSans-62"/>
      <use x="474.267578" xlink:href="#DejaVuSans-65"/>
      <use x="535.791016" xlink:href="#DejaVuSans-72"/>
      <use x="576.904297" xlink:href="#DejaVuSans-20"/>
      <use x="608.691406" xlink:href="#DejaVuSans-36"/>
      <use x="672.314453" xlink:href="#DejaVuSans-30"/>
     </g>
    </g>
    <g id="PathCollection_6">
     <g>
      <use style="fill:#2ca02c;stroke:#2ca02c;" x="180.603906" xlink:href="#mb58136e56c" y="95.725938"/>
     </g>
    </g>
    <g id="text_19">
     <!-- mt_number 90 -->
     <defs>
      <path d="M 10.984375 1.515625 
L 10.984375 10.5 
Q 14.703125 8.734375 18.5 7.8125 
Q 22.3125 6.890625 25.984375 6.890625 
Q 35.75 6.890625 40.890625 13.453125 
Q 46.046875 20.015625 46.78125 33.40625 
Q 43.953125 29.203125 39.59375 26.953125 
Q 35.25 24.703125 29.984375 24.703125 
Q 19.046875 24.703125 12.671875 31.3125 
Q 6.296875 37.9375 6.296875 49.421875 
Q 6.296875 60.640625 12.9375 67.421875 
Q 19.578125 74.21875 30.609375 74.21875 
Q 43.265625 74.21875 49.921875 64.515625 
Q 56.59375 54.828125 56.59375 36.375 
Q 56.59375 19.140625 48.40625 8.859375 
Q 40.234375 -1.421875 26.421875 -1.421875 
Q 22.703125 -1.421875 18.890625 -0.6875 
Q 15.09375 0.046875 10.984375 1.515625 
z
M 30.609375 32.421875 
Q 37.25 32.421875 41.125 36.953125 
Q 45.015625 41.5 45.015625 49.421875 
Q 45.015625 57.28125 41.125 61.84375 
Q 37.25 66.40625 30.609375 66.40625 
Q 23.96875 66.40625 20.09375 61.84375 
Q 16.21875 57.28125 16.21875 49.421875 
Q 16.21875 41.5 20.09375 36.953125 
Q 23.96875 32.421875 30.609375 32.421875 
z
" id="DejaVuSans-39"/>
     </defs>
     <g transform="translate(198.603906 98.350938)scale(0.1 -0.1)">
      <use xlink:href="#DejaVuSans-6d"/>
      <use x="97.412109" xlink:href="#DejaVuSans-74"/>
      <use x="136.621094" xlink:href="#DejaVuSans-5f"/>
      <use x="186.621094" xlink:href="#DejaVuSans-6e"/>
      <use x="250" xlink:href="#DejaVuSans-75"/>
      <use x="313.378906" xlink:href="#DejaVuSans-6d"/>
      <use x="410.791016" xlink:href="#DejaVuSans-62"/>
      <use x="474.267578" xlink:href="#DejaVuSans-65"/>
      <use x="535.791016" xlink:href="#DejaVuSans-72"/>
      <use x="576.904297" xlink:href="#DejaVuSans-20"/>
      <use x="608.691406" xlink:href="#DejaVuSans-39"/>
      <use x="672.314453" xlink:href="#DejaVuSans-30"/>
     </g>
    </g>
   </g>
  </g>
 </g>
 <defs>
  <clipPath id="p0749489437">
   <rect height="332.64" width="334.8" x="54" y="51.84"/>
  </clipPath>
 </defs>
</svg>
