<?xml version="1.0" encoding="utf-8" standalone="no"?>
<!DOCTYPE svg PUBLIC "-//W3C//DTD SVG 1.1//EN"
  "http://www.w3.org/Graphics/SVG/1.1/DTD/svg11.dtd">
<!-- Created with matplotlib (http://matplotlib.org/) -->
<svg height="432pt" version="1.1" viewBox="0 0 432 432" width="432pt" xmlns="http://www.w3.org/2000/svg" xmlns:xlink="http://www.w3.org/1999/xlink">
 <defs>
  <style type="text/css">
*{stroke-linecap:butt;stroke-linejoin:round;}
  </style>
 </defs>
 <g id="figure_1">
  <g id="patch_1">
   <path d="M 0 432 
L 432 432 
L 432 0 
L 0 0 
z
" style="fill:#ffffff;"/>
  </g>
  <g id="axes_1">
   <g id="patch_2">
    <path d="M 54 384.48 
L 388.8 384.48 
L 388.8 51.84 
L 54 51.84 
z
" style="fill:#ffffff;"/>
   </g>
   <g id="PathCollection_1">
    <defs>
     <path d="M 0 3 
C 0.795609 3 1.55874 2.683901 2.12132 2.12132 
C 2.683901 1.55874 3 0.795609 3 0 
C 3 -0.795609 2.683901 -1.55874 2.12132 -2.12132 
C 1.55874 -2.683901 0.795609 -3 0 -3 
C -0.795609 -3 -1.55874 -2.683901 -2.12132 -2.12132 
C -2.683901 -1.55874 -3 -0.795609 -3 0 
C -3 0.795609 -2.683901 1.55874 -2.12132 2.12132 
C -1.55874 2.683901 -0.795609 3 0 3 
z
" id="m053928e048" style="stroke:#1f77b4;"/>
    </defs>
    <g clip-path="url(#p98b4745613)">
     <use style="fill:#1f77b4;stroke:#1f77b4;" x="328.075134" xlink:href="#m053928e048" y="114.646792"/>
     <use style="fill:#1f77b4;stroke:#1f77b4;" x="361.138166" xlink:href="#m053928e048" y="83.451633"/>
     <use style="fill:#1f77b4;stroke:#1f77b4;" x="141.878059" xlink:href="#m053928e048" y="297.094191"/>
     <use style="fill:#1f77b4;stroke:#1f77b4;" x="225.405719" xlink:href="#m053928e048" y="212.759012"/>
     <use style="fill:#1f77b4;stroke:#1f77b4;" x="65.311037" xlink:href="#m053928e048" y="373.163144"/>
     <use style="fill:#1f77b4;stroke:#1f77b4;" x="87.933112" xlink:href="#m053928e048" y="350.824655"/>
     <use style="fill:#1f77b4;stroke:#1f77b4;" x="147.098538" xlink:href="#m053928e048" y="295.618079"/>
     <use style="fill:#1f77b4;stroke:#1f77b4;" x="66.181117" xlink:href="#m053928e048" y="372.474292"/>
     <use style="fill:#1f77b4;stroke:#1f77b4;" x="349.827129" xlink:href="#m053928e048" y="89.356079"/>
     <use style="fill:#1f77b4;stroke:#1f77b4;" x="269.779788" xlink:href="#m053928e048" y="167.983626"/>
     <use style="fill:#1f77b4;stroke:#1f77b4;" x="218.445081" xlink:href="#m053928e048" y="217.580977"/>
     <use style="fill:#1f77b4;stroke:#1f77b4;" x="206.263964" xlink:href="#m053928e048" y="231.653241"/>
     <use style="fill:#1f77b4;stroke:#1f77b4;" x="156.669415" xlink:href="#m053928e048" y="284.694853"/>
     <use style="fill:#1f77b4;stroke:#1f77b4;" x="112.295346" xlink:href="#m053928e048" y="331.438388"/>
     <use style="fill:#1f77b4;stroke:#1f77b4;" x="114.035506" xlink:href="#m053928e048" y="325.829164"/>
     <use style="fill:#1f77b4;stroke:#1f77b4;" x="301.972741" xlink:href="#m053928e048" y="135.312355"/>
     <use style="fill:#1f77b4;stroke:#1f77b4;" x="61.830718" xlink:href="#m053928e048" y="376.115367"/>
     <use style="fill:#1f77b4;stroke:#1f77b4;" x="328.945214" xlink:href="#m053928e048" y="116.221311"/>
     <use style="fill:#1f77b4;stroke:#1f77b4;" x="134.047341" xlink:href="#m053928e048" y="303.195452"/>
     <use style="fill:#1f77b4;stroke:#1f77b4;" x="275.000267" xlink:href="#m053928e048" y="160.307845"/>
     <use style="fill:#1f77b4;stroke:#1f77b4;" x="369.838964" xlink:href="#m053928e048" y="73.610888"/>
     <use style="fill:#1f77b4;stroke:#1f77b4;" x="169.720612" xlink:href="#m053928e048" y="270.917811"/>
     <use style="fill:#1f77b4;stroke:#1f77b4;" x="89.673271" xlink:href="#m053928e048" y="350.23421"/>
     <use style="fill:#1f77b4;stroke:#1f77b4;" x="284.571145" xlink:href="#m053928e048" y="148.59736"/>
     <use style="fill:#1f77b4;stroke:#1f77b4;" x="114.905585" xlink:href="#m053928e048" y="319.43268"/>
     <use style="fill:#1f77b4;stroke:#1f77b4;" x="250.638033" xlink:href="#m053928e048" y="187.369892"/>
     <use style="fill:#1f77b4;stroke:#1f77b4;" x="77.492154" xlink:href="#m053928e048" y="358.30362"/>
     <use style="fill:#1f77b4;stroke:#1f77b4;" x="370.709044" xlink:href="#m053928e048" y="74.890185"/>
     <use style="fill:#1f77b4;stroke:#1f77b4;" x="221.9254" xlink:href="#m053928e048" y="223.583831"/>
     <use style="fill:#1f77b4;stroke:#1f77b4;" x="181.901729" xlink:href="#m053928e048" y="252.614027"/>
     <use style="fill:#1f77b4;stroke:#1f77b4;" x="74.881915" xlink:href="#m053928e048" y="363.027177"/>
     <use style="fill:#1f77b4;stroke:#1f77b4;" x="188.862368" xlink:href="#m053928e048" y="246.807988"/>
     <use style="fill:#1f77b4;stroke:#1f77b4;" x="132.307181" xlink:href="#m053928e048" y="306.147676"/>
     <use style="fill:#1f77b4;stroke:#1f77b4;" x="177.55133" xlink:href="#m053928e048" y="265.013364"/>
     <use style="fill:#1f77b4;stroke:#1f77b4;" x="212.354522" xlink:href="#m053928e048" y="223.879053"/>
     <use style="fill:#1f77b4;stroke:#1f77b4;" x="182.771809" xlink:href="#m053928e048" y="256.255102"/>
     <use style="fill:#1f77b4;stroke:#1f77b4;" x="174.071011" xlink:href="#m053928e048" y="264.914957"/>
     <use style="fill:#1f77b4;stroke:#1f77b4;" x="313.283778" xlink:href="#m053928e048" y="124.881166"/>
     <use style="fill:#1f77b4;stroke:#1f77b4;" x="58.350399" xlink:href="#m053928e048" y="379.756443"/>
     <use style="fill:#1f77b4;stroke:#1f77b4;" x="173.200931" xlink:href="#m053928e048" y="260.289807"/>
     <use style="fill:#1f77b4;stroke:#1f77b4;" x="93.153591" xlink:href="#m053928e048" y="344.231356"/>
     <use style="fill:#1f77b4;stroke:#1f77b4;" x="67.921277" xlink:href="#m053928e048" y="372.572699"/>
     <use style="fill:#1f77b4;stroke:#1f77b4;" x="205.393884" xlink:href="#m053928e048" y="236.967243"/>
     <use style="fill:#1f77b4;stroke:#1f77b4;" x="237.586836" xlink:href="#m053928e048" y="201.245342"/>
     <use style="fill:#1f77b4;stroke:#1f77b4;" x="294.142022" xlink:href="#m053928e048" y="152.140028"/>
     <use style="fill:#1f77b4;stroke:#1f77b4;" x="253.248272" xlink:href="#m053928e048" y="189.830078"/>
     <use style="fill:#1f77b4;stroke:#1f77b4;" x="92.283511" xlink:href="#m053928e048" y="344.821801"/>
     <use style="fill:#1f77b4;stroke:#1f77b4;" x="366.358645" xlink:href="#m053928e048" y="71.24911"/>
     <use style="fill:#1f77b4;stroke:#1f77b4;" x="152.319016" xlink:href="#m053928e048" y="288.040706"/>
     <use style="fill:#1f77b4;stroke:#1f77b4;" x="147.968617" xlink:href="#m053928e048" y="288.532743"/>
    </g>
   </g>
   <g id="PathCollection_2">
    <defs>
     <path d="M 0 3 
C 0.795609 3 1.55874 2.683901 2.12132 2.12132 
C 2.683901 1.55874 3 0.795609 3 0 
C 3 -0.795609 2.683901 -1.55874 2.12132 -2.12132 
C 1.55874 -2.683901 0.795609 -3 0 -3 
C -0.795609 -3 -1.55874 -2.683901 -2.12132 -2.12132 
C -2.683901 -1.55874 -3 -0.795609 -3 0 
C -3 0.795609 -2.683901 1.55874 -2.12132 2.12132 
C -1.55874 2.683901 -0.795609 3 0 3 
z
" id="m70575e1bac" style="stroke:#ff7f0e;"/>
    </defs>
    <g clip-path="url(#p98b4745613)">
     <use style="fill:#ff7f0e;stroke:#ff7f0e;" x="328.075134" xlink:href="#m70575e1bac" y="114.154755"/>
     <use style="fill:#ff7f0e;stroke:#ff7f0e;" x="361.138166" xlink:href="#m70575e1bac" y="85.911819"/>
     <use style="fill:#ff7f0e;stroke:#ff7f0e;" x="141.878059" xlink:href="#m70575e1bac" y="301.325711"/>
     <use style="fill:#ff7f0e;stroke:#ff7f0e;" x="225.405719" xlink:href="#m70575e1bac" y="211.184493"/>
     <use style="fill:#ff7f0e;stroke:#ff7f0e;" x="65.311037" xlink:href="#m70575e1bac" y="374.245626"/>
     <use style="fill:#ff7f0e;stroke:#ff7f0e;" x="87.933112" xlink:href="#m70575e1bac" y="349.938988"/>
     <use style="fill:#ff7f0e;stroke:#ff7f0e;" x="147.098538" xlink:href="#m70575e1bac" y="295.224449"/>
     <use style="fill:#ff7f0e;stroke:#ff7f0e;" x="66.181117" xlink:href="#m70575e1bac" y="370.99818"/>
     <use style="fill:#ff7f0e;stroke:#ff7f0e;" x="349.827129" xlink:href="#m70575e1bac" y="85.222967"/>
     <use style="fill:#ff7f0e;stroke:#ff7f0e;" x="269.779788" xlink:href="#m70575e1bac" y="166.999552"/>
     <use style="fill:#ff7f0e;stroke:#ff7f0e;" x="218.445081" xlink:href="#m70575e1bac" y="211.381308"/>
     <use style="fill:#ff7f0e;stroke:#ff7f0e;" x="206.263964" xlink:href="#m70575e1bac" y="238.049725"/>
     <use style="fill:#ff7f0e;stroke:#ff7f0e;" x="156.669415" xlink:href="#m70575e1bac" y="278.495184"/>
     <use style="fill:#ff7f0e;stroke:#ff7f0e;" x="112.295346" xlink:href="#m70575e1bac" y="323.6642"/>
     <use style="fill:#ff7f0e;stroke:#ff7f0e;" x="114.035506" xlink:href="#m70575e1bac" y="326.321201"/>
     <use style="fill:#ff7f0e;stroke:#ff7f0e;" x="301.972741" xlink:href="#m70575e1bac" y="130.785613"/>
     <use style="fill:#ff7f0e;stroke:#ff7f0e;" x="61.830718" xlink:href="#m70575e1bac" y="376.508997"/>
     <use style="fill:#ff7f0e;stroke:#ff7f0e;" x="328.945214" xlink:href="#m70575e1bac" y="112.777051"/>
     <use style="fill:#ff7f0e;stroke:#ff7f0e;" x="134.047341" xlink:href="#m70575e1bac" y="304.376342"/>
     <use style="fill:#ff7f0e;stroke:#ff7f0e;" x="275.000267" xlink:href="#m70575e1bac" y="166.999552"/>
     <use style="fill:#ff7f0e;stroke:#ff7f0e;" x="369.838964" xlink:href="#m70575e1bac" y="73.118851"/>
     <use style="fill:#ff7f0e;stroke:#ff7f0e;" x="169.720612" xlink:href="#m70575e1bac" y="264.521327"/>
     <use style="fill:#ff7f0e;stroke:#ff7f0e;" x="89.673271" xlink:href="#m70575e1bac" y="347.380394"/>
     <use style="fill:#ff7f0e;stroke:#ff7f0e;" x="284.571145" xlink:href="#m70575e1bac" y="152.43525"/>
     <use style="fill:#ff7f0e;stroke:#ff7f0e;" x="114.905585" xlink:href="#m70575e1bac" y="322.680126"/>
     <use style="fill:#ff7f0e;stroke:#ff7f0e;" x="250.638033" xlink:href="#m70575e1bac" y="191.404597"/>
     <use style="fill:#ff7f0e;stroke:#ff7f0e;" x="77.492154" xlink:href="#m70575e1bac" y="362.92877"/>
     <use style="fill:#ff7f0e;stroke:#ff7f0e;" x="370.709044" xlink:href="#m70575e1bac" y="74.890185"/>
     <use style="fill:#ff7f0e;stroke:#ff7f0e;" x="221.9254" xlink:href="#m70575e1bac" y="218.466644"/>
     <use style="fill:#ff7f0e;stroke:#ff7f0e;" x="181.901729" xlink:href="#m70575e1bac" y="255.17262"/>
     <use style="fill:#ff7f0e;stroke:#ff7f0e;" x="74.881915" xlink:href="#m70575e1bac" y="363.420807"/>
     <use style="fill:#ff7f0e;stroke:#ff7f0e;" x="188.862368" xlink:href="#m70575e1bac" y="247.693655"/>
     <use style="fill:#ff7f0e;stroke:#ff7f0e;" x="132.307181" xlink:href="#m70575e1bac" y="308.804677"/>
     <use style="fill:#ff7f0e;stroke:#ff7f0e;" x="177.55133" xlink:href="#m70575e1bac" y="258.420066"/>
     <use style="fill:#ff7f0e;stroke:#ff7f0e;" x="212.354522" xlink:href="#m70575e1bac" y="236.770428"/>
     <use style="fill:#ff7f0e;stroke:#ff7f0e;" x="182.771809" xlink:href="#m70575e1bac" y="252.909249"/>
     <use style="fill:#ff7f0e;stroke:#ff7f0e;" x="174.071011" xlink:href="#m70575e1bac" y="267.473551"/>
     <use style="fill:#ff7f0e;stroke:#ff7f0e;" x="313.283778" xlink:href="#m70575e1bac" y="117.894238"/>
     <use style="fill:#ff7f0e;stroke:#ff7f0e;" x="58.350399" xlink:href="#m70575e1bac" y="381.03574"/>
     <use style="fill:#ff7f0e;stroke:#ff7f0e;" x="173.200931" xlink:href="#m70575e1bac" y="267.86718"/>
     <use style="fill:#ff7f0e;stroke:#ff7f0e;" x="93.153591" xlink:href="#m70575e1bac" y="347.774024"/>
     <use style="fill:#ff7f0e;stroke:#ff7f0e;" x="67.921277" xlink:href="#m70575e1bac" y="371.588625"/>
     <use style="fill:#ff7f0e;stroke:#ff7f0e;" x="205.393884" xlink:href="#m70575e1bac" y="231.456427"/>
     <use style="fill:#ff7f0e;stroke:#ff7f0e;" x="237.586836" xlink:href="#m70575e1bac" y="212.365383"/>
     <use style="fill:#ff7f0e;stroke:#ff7f0e;" x="294.142022" xlink:href="#m70575e1bac" y="142.692913"/>
     <use style="fill:#ff7f0e;stroke:#ff7f0e;" x="253.248272" xlink:href="#m70575e1bac" y="189.239634"/>
     <use style="fill:#ff7f0e;stroke:#ff7f0e;" x="92.283511" xlink:href="#m70575e1bac" y="344.428171"/>
     <use style="fill:#ff7f0e;stroke:#ff7f0e;" x="366.358645" xlink:href="#m70575e1bac" y="82.959595"/>
     <use style="fill:#ff7f0e;stroke:#ff7f0e;" x="152.319016" xlink:href="#m70575e1bac" y="284.891668"/>
     <use style="fill:#ff7f0e;stroke:#ff7f0e;" x="147.968617" xlink:href="#m70575e1bac" y="289.81204"/>
    </g>
   </g>
   <g id="PathCollection_3">
    <defs>
     <path d="M 0 3 
C 0.795609 3 1.55874 2.683901 2.12132 2.12132 
C 2.683901 1.55874 3 0.795609 3 0 
C 3 -0.795609 2.683901 -1.55874 2.12132 -2.12132 
C 1.55874 -2.683901 0.795609 -3 0 -3 
C -0.795609 -3 -1.55874 -2.683901 -2.12132 -2.12132 
C -2.683901 -1.55874 -3 -0.795609 -3 0 
C -3 0.795609 -2.683901 1.55874 -2.12132 2.12132 
C -1.55874 2.683901 -0.795609 3 0 3 
z
" id="m47c31856d1" style="stroke:#2ca02c;"/>
    </defs>
    <g clip-path="url(#p98b4745613)">
     <use style="fill:#2ca02c;stroke:#2ca02c;" x="328.075134" xlink:href="#m47c31856d1" y="111.989791"/>
     <use style="fill:#2ca02c;stroke:#2ca02c;" x="361.138166" xlink:href="#m47c31856d1" y="78.236038"/>
     <use style="fill:#2ca02c;stroke:#2ca02c;" x="141.878059" xlink:href="#m47c31856d1" y="289.320003"/>
     <use style="fill:#2ca02c;stroke:#2ca02c;" x="225.405719" xlink:href="#m47c31856d1" y="217.285755"/>
     <use style="fill:#2ca02c;stroke:#2ca02c;" x="65.311037" xlink:href="#m47c31856d1" y="374.442441"/>
     <use style="fill:#2ca02c;stroke:#2ca02c;" x="87.933112" xlink:href="#m47c31856d1" y="351.513507"/>
     <use style="fill:#2ca02c;stroke:#2ca02c;" x="147.098538" xlink:href="#m47c31856d1" y="296.011709"/>
     <use style="fill:#2ca02c;stroke:#2ca02c;" x="66.181117" xlink:href="#m47c31856d1" y="372.966329"/>
     <use style="fill:#2ca02c;stroke:#2ca02c;" x="349.827129" xlink:href="#m47c31856d1" y="86.108634"/>
     <use style="fill:#2ca02c;stroke:#2ca02c;" x="269.779788" xlink:href="#m47c31856d1" y="182.252705"/>
     <use style="fill:#2ca02c;stroke:#2ca02c;" x="218.445081" xlink:href="#m47c31856d1" y="223.387016"/>
     <use style="fill:#2ca02c;stroke:#2ca02c;" x="206.263964" xlink:href="#m47c31856d1" y="241.690801"/>
     <use style="fill:#2ca02c;stroke:#2ca02c;" x="156.669415" xlink:href="#m47c31856d1" y="280.266518"/>
     <use style="fill:#2ca02c;stroke:#2ca02c;" x="112.295346" xlink:href="#m47c31856d1" y="324.254645"/>
     <use style="fill:#2ca02c;stroke:#2ca02c;" x="114.035506" xlink:href="#m47c31856d1" y="322.384904"/>
     <use style="fill:#2ca02c;stroke:#2ca02c;" x="301.972741" xlink:href="#m47c31856d1" y="137.674134"/>
     <use style="fill:#2ca02c;stroke:#2ca02c;" x="61.830718" xlink:href="#m47c31856d1" y="377.591479"/>
     <use style="fill:#2ca02c;stroke:#2ca02c;" x="328.945214" xlink:href="#m47c31856d1" y="118.779905"/>
     <use style="fill:#2ca02c;stroke:#2ca02c;" x="134.047341" xlink:href="#m47c31856d1" y="305.163601"/>
     <use style="fill:#2ca02c;stroke:#2ca02c;" x="275.000267" xlink:href="#m47c31856d1" y="164.145736"/>
     <use style="fill:#2ca02c;stroke:#2ca02c;" x="369.838964" xlink:href="#m47c31856d1" y="81.188261"/>
     <use style="fill:#2ca02c;stroke:#2ca02c;" x="169.720612" xlink:href="#m47c31856d1" y="270.622589"/>
     <use style="fill:#2ca02c;stroke:#2ca02c;" x="89.673271" xlink:href="#m47c31856d1" y="349.348543"/>
     <use style="fill:#2ca02c;stroke:#2ca02c;" x="284.571145" xlink:href="#m47c31856d1" y="157.0604"/>
     <use style="fill:#2ca02c;stroke:#2ca02c;" x="114.905585" xlink:href="#m47c31856d1" y="325.238719"/>
     <use style="fill:#2ca02c;stroke:#2ca02c;" x="250.638033" xlink:href="#m47c31856d1" y="183.532002"/>
     <use style="fill:#2ca02c;stroke:#2ca02c;" x="77.492154" xlink:href="#m47c31856d1" y="360.173362"/>
     <use style="fill:#2ca02c;stroke:#2ca02c;" x="370.709044" xlink:href="#m47c31856d1" y="69.871406"/>
     <use style="fill:#2ca02c;stroke:#2ca02c;" x="221.9254" xlink:href="#m47c31856d1" y="221.222052"/>
     <use style="fill:#2ca02c;stroke:#2ca02c;" x="181.901729" xlink:href="#m47c31856d1" y="257.239177"/>
     <use style="fill:#2ca02c;stroke:#2ca02c;" x="74.881915" xlink:href="#m47c31856d1" y="365.290549"/>
     <use style="fill:#2ca02c;stroke:#2ca02c;" x="188.862368" xlink:href="#m47c31856d1" y="252.810842"/>
     <use style="fill:#2ca02c;stroke:#2ca02c;" x="132.307181" xlink:href="#m47c31856d1" y="304.277934"/>
     <use style="fill:#2ca02c;stroke:#2ca02c;" x="177.55133" xlink:href="#m47c31856d1" y="263.045216"/>
     <use style="fill:#2ca02c;stroke:#2ca02c;" x="212.354522" xlink:href="#m47c31856d1" y="226.732869"/>
     <use style="fill:#2ca02c;stroke:#2ca02c;" x="182.771809" xlink:href="#m47c31856d1" y="253.696509"/>
     <use style="fill:#2ca02c;stroke:#2ca02c;" x="174.071011" xlink:href="#m47c31856d1" y="270.425774"/>
     <use style="fill:#2ca02c;stroke:#2ca02c;" x="313.283778" xlink:href="#m47c31856d1" y="138.461393"/>
     <use style="fill:#2ca02c;stroke:#2ca02c;" x="58.350399" xlink:href="#m47c31856d1" y="380.150073"/>
     <use style="fill:#2ca02c;stroke:#2ca02c;" x="173.200931" xlink:href="#m47c31856d1" y="261.962734"/>
     <use style="fill:#2ca02c;stroke:#2ca02c;" x="93.153591" xlink:href="#m47c31856d1" y="345.805875"/>
     <use style="fill:#2ca02c;stroke:#2ca02c;" x="67.921277" xlink:href="#m47c31856d1" y="369.128439"/>
     <use style="fill:#2ca02c;stroke:#2ca02c;" x="205.393884" xlink:href="#m47c31856d1" y="234.605465"/>
     <use style="fill:#2ca02c;stroke:#2ca02c;" x="237.586836" xlink:href="#m47c31856d1" y="207.740233"/>
     <use style="fill:#2ca02c;stroke:#2ca02c;" x="294.142022" xlink:href="#m47c31856d1" y="150.171879"/>
     <use style="fill:#2ca02c;stroke:#2ca02c;" x="253.248272" xlink:href="#m47c31856d1" y="183.039965"/>
     <use style="fill:#2ca02c;stroke:#2ca02c;" x="92.283511" xlink:href="#m47c31856d1" y="346.101097"/>
     <use style="fill:#2ca02c;stroke:#2ca02c;" x="366.358645" xlink:href="#m47c31856d1" y="75.382222"/>
     <use style="fill:#2ca02c;stroke:#2ca02c;" x="152.319016" xlink:href="#m47c31856d1" y="282.726704"/>
     <use style="fill:#2ca02c;stroke:#2ca02c;" x="147.968617" xlink:href="#m47c31856d1" y="294.04356"/>
    </g>
   </g>
   <g id="matplotlib.axis_1">
    <g id="xtick_1">
     <g id="line2d_1">
      <defs>
       <path d="M 0 0 
L 0 3.5 
" id="m4b3028d47b" style="stroke:#000000;stroke-width:0.8;"/>
      </defs>
      <g>
       <use style="stroke:#000000;stroke-width:0.8;" x="54" xlink:href="#m4b3028d47b" y="384.48"/>
      </g>
     </g>
     <g id="text_1">
      <!-- 0 -->
      <defs>
       <path d="M 31.78125 66.40625 
Q 24.171875 66.40625 20.328125 58.90625 
Q 16.5 51.421875 16.5 36.375 
Q 16.5 21.390625 20.328125 13.890625 
Q 24.171875 6.390625 31.78125 6.390625 
Q 39.453125 6.390625 43.28125 13.890625 
Q 47.125 21.390625 47.125 36.375 
Q 47.125 51.421875 43.28125 58.90625 
Q 39.453125 66.40625 31.78125 66.40625 
z
M 31.78125 74.21875 
Q 44.046875 74.21875 50.515625 64.515625 
Q 56.984375 54.828125 56.984375 36.375 
Q 56.984375 17.96875 50.515625 8.265625 
Q 44.046875 -1.421875 31.78125 -1.421875 
Q 19.53125 -1.421875 13.0625 8.265625 
Q 6.59375 17.96875 6.59375 36.375 
Q 6.59375 54.828125 13.0625 64.515625 
Q 19.53125 74.21875 31.78125 74.21875 
z
" id="DejaVuSans-30"/>
      </defs>
      <g transform="translate(50.81875 399.078438)scale(0.1 -0.1)">
       <use xlink:href="#DejaVuSans-30"/>
      </g>
     </g>
    </g>
    <g id="xtick_2">
     <g id="line2d_2">
      <g>
       <use style="stroke:#000000;stroke-width:0.8;" x="97.50399" xlink:href="#m4b3028d47b" y="384.48"/>
      </g>
     </g>
     <g id="text_2">
      <!-- 50 -->
      <defs>
       <path d="M 10.796875 72.90625 
L 49.515625 72.90625 
L 49.515625 64.59375 
L 19.828125 64.59375 
L 19.828125 46.734375 
Q 21.96875 47.46875 24.109375 47.828125 
Q 26.265625 48.1875 28.421875 48.1875 
Q 40.625 48.1875 47.75 41.5 
Q 54.890625 34.8125 54.890625 23.390625 
Q 54.890625 11.625 47.5625 5.09375 
Q 40.234375 -1.421875 26.90625 -1.421875 
Q 22.3125 -1.421875 17.546875 -0.640625 
Q 12.796875 0.140625 7.71875 1.703125 
L 7.71875 11.625 
Q 12.109375 9.234375 16.796875 8.0625 
Q 21.484375 6.890625 26.703125 6.890625 
Q 35.15625 6.890625 40.078125 11.328125 
Q 45.015625 15.765625 45.015625 23.390625 
Q 45.015625 31 40.078125 35.4375 
Q 35.15625 39.890625 26.703125 39.890625 
Q 22.75 39.890625 18.8125 39.015625 
Q 14.890625 38.140625 10.796875 36.28125 
z
" id="DejaVuSans-35"/>
      </defs>
      <g transform="translate(91.14149 399.078438)scale(0.1 -0.1)">
       <use xlink:href="#DejaVuSans-35"/>
       <use x="63.623047" xlink:href="#DejaVuSans-30"/>
      </g>
     </g>
    </g>
    <g id="xtick_3">
     <g id="line2d_3">
      <g>
       <use style="stroke:#000000;stroke-width:0.8;" x="141.007979" xlink:href="#m4b3028d47b" y="384.48"/>
      </g>
     </g>
     <g id="text_3">
      <!-- 100 -->
      <defs>
       <path d="M 12.40625 8.296875 
L 28.515625 8.296875 
L 28.515625 63.921875 
L 10.984375 60.40625 
L 10.984375 69.390625 
L 28.421875 72.90625 
L 38.28125 72.90625 
L 38.28125 8.296875 
L 54.390625 8.296875 
L 54.390625 0 
L 12.40625 0 
z
" id="DejaVuSans-31"/>
      </defs>
      <g transform="translate(131.464229 399.078438)scale(0.1 -0.1)">
       <use xlink:href="#DejaVuSans-31"/>
       <use x="63.623047" xlink:href="#DejaVuSans-30"/>
       <use x="127.246094" xlink:href="#DejaVuSans-30"/>
      </g>
     </g>
    </g>
    <g id="xtick_4">
     <g id="line2d_4">
      <g>
       <use style="stroke:#000000;stroke-width:0.8;" x="184.511969" xlink:href="#m4b3028d47b" y="384.48"/>
      </g>
     </g>
     <g id="text_4">
      <!-- 150 -->
      <g transform="translate(174.968219 399.078438)scale(0.1 -0.1)">
       <use xlink:href="#DejaVuSans-31"/>
       <use x="63.623047" xlink:href="#DejaVuSans-35"/>
       <use x="127.246094" xlink:href="#DejaVuSans-30"/>
      </g>
     </g>
    </g>
    <g id="xtick_5">
     <g id="line2d_5">
      <g>
       <use style="stroke:#000000;stroke-width:0.8;" x="228.015958" xlink:href="#m4b3028d47b" y="384.48"/>
      </g>
     </g>
     <g id="text_5">
      <!-- 200 -->
      <defs>
       <path d="M 19.1875 8.296875 
L 53.609375 8.296875 
L 53.609375 0 
L 7.328125 0 
L 7.328125 8.296875 
Q 12.9375 14.109375 22.625 23.890625 
Q 32.328125 33.6875 34.8125 36.53125 
Q 39.546875 41.84375 41.421875 45.53125 
Q 43.3125 49.21875 43.3125 52.78125 
Q 43.3125 58.59375 39.234375 62.25 
Q 35.15625 65.921875 28.609375 65.921875 
Q 23.96875 65.921875 18.8125 64.3125 
Q 13.671875 62.703125 7.8125 59.421875 
L 7.8125 69.390625 
Q 13.765625 71.78125 18.9375 73 
Q 24.125 74.21875 28.421875 74.21875 
Q 39.75 74.21875 46.484375 68.546875 
Q 53.21875 62.890625 53.21875 53.421875 
Q 53.21875 48.921875 51.53125 44.890625 
Q 49.859375 40.875 45.40625 35.40625 
Q 44.1875 33.984375 37.640625 27.21875 
Q 31.109375 20.453125 19.1875 8.296875 
z
" id="DejaVuSans-32"/>
      </defs>
      <g transform="translate(218.472208 399.078438)scale(0.1 -0.1)">
       <use xlink:href="#DejaVuSans-32"/>
       <use x="63.623047" xlink:href="#DejaVuSans-30"/>
       <use x="127.246094" xlink:href="#DejaVuSans-30"/>
      </g>
     </g>
    </g>
    <g id="xtick_6">
     <g id="line2d_6">
      <g>
       <use style="stroke:#000000;stroke-width:0.8;" x="271.519948" xlink:href="#m4b3028d47b" y="384.48"/>
      </g>
     </g>
     <g id="text_6">
      <!-- 250 -->
      <g transform="translate(261.976198 399.078438)scale(0.1 -0.1)">
       <use xlink:href="#DejaVuSans-32"/>
       <use x="63.623047" xlink:href="#DejaVuSans-35"/>
       <use x="127.246094" xlink:href="#DejaVuSans-30"/>
      </g>
     </g>
    </g>
    <g id="xtick_7">
     <g id="line2d_7">
      <g>
       <use style="stroke:#000000;stroke-width:0.8;" x="315.023937" xlink:href="#m4b3028d47b" y="384.48"/>
      </g>
     </g>
     <g id="text_7">
      <!-- 300 -->
      <defs>
       <path d="M 40.578125 39.3125 
Q 47.65625 37.796875 51.625 33 
Q 55.609375 28.21875 55.609375 21.1875 
Q 55.609375 10.40625 48.1875 4.484375 
Q 40.765625 -1.421875 27.09375 -1.421875 
Q 22.515625 -1.421875 17.65625 -0.515625 
Q 12.796875 0.390625 7.625 2.203125 
L 7.625 11.71875 
Q 11.71875 9.328125 16.59375 8.109375 
Q 21.484375 6.890625 26.8125 6.890625 
Q 36.078125 6.890625 40.9375 10.546875 
Q 45.796875 14.203125 45.796875 21.1875 
Q 45.796875 27.640625 41.28125 31.265625 
Q 36.765625 34.90625 28.71875 34.90625 
L 20.21875 34.90625 
L 20.21875 43.015625 
L 29.109375 43.015625 
Q 36.375 43.015625 40.234375 45.921875 
Q 44.09375 48.828125 44.09375 54.296875 
Q 44.09375 59.90625 40.109375 62.90625 
Q 36.140625 65.921875 28.71875 65.921875 
Q 24.65625 65.921875 20.015625 65.03125 
Q 15.375 64.15625 9.8125 62.3125 
L 9.8125 71.09375 
Q 15.4375 72.65625 20.34375 73.4375 
Q 25.25 74.21875 29.59375 74.21875 
Q 40.828125 74.21875 47.359375 69.109375 
Q 53.90625 64.015625 53.90625 55.328125 
Q 53.90625 49.265625 50.4375 45.09375 
Q 46.96875 40.921875 40.578125 39.3125 
z
" id="DejaVuSans-33"/>
      </defs>
      <g transform="translate(305.480187 399.078438)scale(0.1 -0.1)">
       <use xlink:href="#DejaVuSans-33"/>
       <use x="63.623047" xlink:href="#DejaVuSans-30"/>
       <use x="127.246094" xlink:href="#DejaVuSans-30"/>
      </g>
     </g>
    </g>
    <g id="xtick_8">
     <g id="line2d_8">
      <g>
       <use style="stroke:#000000;stroke-width:0.8;" x="358.527927" xlink:href="#m4b3028d47b" y="384.48"/>
      </g>
     </g>
     <g id="text_8">
      <!-- 350 -->
      <g transform="translate(348.984177 399.078438)scale(0.1 -0.1)">
       <use xlink:href="#DejaVuSans-33"/>
       <use x="63.623047" xlink:href="#DejaVuSans-35"/>
       <use x="127.246094" xlink:href="#DejaVuSans-30"/>
      </g>
     </g>
    </g>
    <g id="text_9">
     <!-- cl_number -->
     <defs>
      <path d="M 48.78125 52.59375 
L 48.78125 44.1875 
Q 44.96875 46.296875 41.140625 47.34375 
Q 37.3125 48.390625 33.40625 48.390625 
Q 24.65625 48.390625 19.8125 42.84375 
Q 14.984375 37.3125 14.984375 27.296875 
Q 14.984375 17.28125 19.8125 11.734375 
Q 24.65625 6.203125 33.40625 6.203125 
Q 37.3125 6.203125 41.140625 7.25 
Q 44.96875 8.296875 48.78125 10.40625 
L 48.78125 2.09375 
Q 45.015625 0.34375 40.984375 -0.53125 
Q 36.96875 -1.421875 32.421875 -1.421875 
Q 20.0625 -1.421875 12.78125 6.34375 
Q 5.515625 14.109375 5.515625 27.296875 
Q 5.515625 40.671875 12.859375 48.328125 
Q 20.21875 56 33.015625 56 
Q 37.15625 56 41.109375 55.140625 
Q 45.0625 54.296875 48.78125 52.59375 
z
" id="DejaVuSans-63"/>
      <path d="M 9.421875 75.984375 
L 18.40625 75.984375 
L 18.40625 0 
L 9.421875 0 
z
" id="DejaVuSans-6c"/>
      <path d="M 50.984375 -16.609375 
L 50.984375 -23.578125 
L -0.984375 -23.578125 
L -0.984375 -16.609375 
z
" id="DejaVuSans-5f"/>
      <path d="M 54.890625 33.015625 
L 54.890625 0 
L 45.90625 0 
L 45.90625 32.71875 
Q 45.90625 40.484375 42.875 44.328125 
Q 39.84375 48.1875 33.796875 48.1875 
Q 26.515625 48.1875 22.3125 43.546875 
Q 18.109375 38.921875 18.109375 30.90625 
L 18.109375 0 
L 9.078125 0 
L 9.078125 54.6875 
L 18.109375 54.6875 
L 18.109375 46.1875 
Q 21.34375 51.125 25.703125 53.5625 
Q 30.078125 56 35.796875 56 
Q 45.21875 56 50.046875 50.171875 
Q 54.890625 44.34375 54.890625 33.015625 
z
" id="DejaVuSans-6e"/>
      <path d="M 8.5 21.578125 
L 8.5 54.6875 
L 17.484375 54.6875 
L 17.484375 21.921875 
Q 17.484375 14.15625 20.5 10.265625 
Q 23.53125 6.390625 29.59375 6.390625 
Q 36.859375 6.390625 41.078125 11.03125 
Q 45.3125 15.671875 45.3125 23.6875 
L 45.3125 54.6875 
L 54.296875 54.6875 
L 54.296875 0 
L 45.3125 0 
L 45.3125 8.40625 
Q 42.046875 3.421875 37.71875 1 
Q 33.40625 -1.421875 27.6875 -1.421875 
Q 18.265625 -1.421875 13.375 4.4375 
Q 8.5 10.296875 8.5 21.578125 
z
M 31.109375 56 
z
" id="DejaVuSans-75"/>
      <path d="M 52 44.1875 
Q 55.375 50.25 60.0625 53.125 
Q 64.75 56 71.09375 56 
Q 79.640625 56 84.28125 50.015625 
Q 88.921875 44.046875 88.921875 33.015625 
L 88.921875 0 
L 79.890625 0 
L 79.890625 32.71875 
Q 79.890625 40.578125 77.09375 44.375 
Q 74.3125 48.1875 68.609375 48.1875 
Q 61.625 48.1875 57.5625 43.546875 
Q 53.515625 38.921875 53.515625 30.90625 
L 53.515625 0 
L 44.484375 0 
L 44.484375 32.71875 
Q 44.484375 40.625 41.703125 44.40625 
Q 38.921875 48.1875 33.109375 48.1875 
Q 26.21875 48.1875 22.15625 43.53125 
Q 18.109375 38.875 18.109375 30.90625 
L 18.109375 0 
L 9.078125 0 
L 9.078125 54.6875 
L 18.109375 54.6875 
L 18.109375 46.1875 
Q 21.1875 51.21875 25.484375 53.609375 
Q 29.78125 56 35.6875 56 
Q 41.65625 56 45.828125 52.96875 
Q 50 49.953125 52 44.1875 
z
" id="DejaVuSans-6d"/>
      <path d="M 48.6875 27.296875 
Q 48.6875 37.203125 44.609375 42.84375 
Q 40.53125 48.484375 33.40625 48.484375 
Q 26.265625 48.484375 22.1875 42.84375 
Q 18.109375 37.203125 18.109375 27.296875 
Q 18.109375 17.390625 22.1875 11.75 
Q 26.265625 6.109375 33.40625 6.109375 
Q 40.53125 6.109375 44.609375 11.75 
Q 48.6875 17.390625 48.6875 27.296875 
z
M 18.109375 46.390625 
Q 20.953125 51.265625 25.265625 53.625 
Q 29.59375 56 35.59375 56 
Q 45.5625 56 51.78125 48.09375 
Q 58.015625 40.1875 58.015625 27.296875 
Q 58.015625 14.40625 51.78125 6.484375 
Q 45.5625 -1.421875 35.59375 -1.421875 
Q 29.59375 -1.421875 25.265625 0.953125 
Q 20.953125 3.328125 18.109375 8.203125 
L 18.109375 0 
L 9.078125 0 
L 9.078125 75.984375 
L 18.109375 75.984375 
z
" id="DejaVuSans-62"/>
      <path d="M 56.203125 29.59375 
L 56.203125 25.203125 
L 14.890625 25.203125 
Q 15.484375 15.921875 20.484375 11.0625 
Q 25.484375 6.203125 34.421875 6.203125 
Q 39.59375 6.203125 44.453125 7.46875 
Q 49.3125 8.734375 54.109375 11.28125 
L 54.109375 2.78125 
Q 49.265625 0.734375 44.1875 -0.34375 
Q 39.109375 -1.421875 33.890625 -1.421875 
Q 20.796875 -1.421875 13.15625 6.1875 
Q 5.515625 13.8125 5.515625 26.8125 
Q 5.515625 40.234375 12.765625 48.109375 
Q 20.015625 56 32.328125 56 
Q 43.359375 56 49.78125 48.890625 
Q 56.203125 41.796875 56.203125 29.59375 
z
M 47.21875 32.234375 
Q 47.125 39.59375 43.09375 43.984375 
Q 39.0625 48.390625 32.421875 48.390625 
Q 24.90625 48.390625 20.390625 44.140625 
Q 15.875 39.890625 15.1875 32.171875 
z
" id="DejaVuSans-65"/>
      <path d="M 41.109375 46.296875 
Q 39.59375 47.171875 37.8125 47.578125 
Q 36.03125 48 33.890625 48 
Q 26.265625 48 22.1875 43.046875 
Q 18.109375 38.09375 18.109375 28.8125 
L 18.109375 0 
L 9.078125 0 
L 9.078125 54.6875 
L 18.109375 54.6875 
L 18.109375 46.1875 
Q 20.953125 51.171875 25.484375 53.578125 
Q 30.03125 56 36.53125 56 
Q 37.453125 56 38.578125 55.875 
Q 39.703125 55.765625 41.0625 55.515625 
z
" id="DejaVuSans-72"/>
     </defs>
     <g transform="translate(195.247656 412.756563)scale(0.1 -0.1)">
      <use xlink:href="#DejaVuSans-63"/>
      <use x="54.980469" xlink:href="#DejaVuSans-6c"/>
      <use x="82.763672" xlink:href="#DejaVuSans-5f"/>
      <use x="132.763672" xlink:href="#DejaVuSans-6e"/>
      <use x="196.142578" xlink:href="#DejaVuSans-75"/>
      <use x="259.521484" xlink:href="#DejaVuSans-6d"/>
      <use x="356.933594" xlink:href="#DejaVuSans-62"/>
      <use x="420.410156" xlink:href="#DejaVuSans-65"/>
      <use x="481.933594" xlink:href="#DejaVuSans-72"/>
     </g>
    </g>
   </g>
   <g id="matplotlib.axis_2">
    <g id="ytick_1">
     <g id="line2d_9">
      <defs>
       <path d="M 0 0 
L -3.5 0 
" id="ma71de5784f" style="stroke:#000000;stroke-width:0.8;"/>
      </defs>
      <g>
       <use style="stroke:#000000;stroke-width:0.8;" x="54" xlink:href="#ma71de5784f" y="384.48"/>
      </g>
     </g>
     <g id="text_10">
      <!-- 0 -->
      <g transform="translate(40.6375 388.279219)scale(0.1 -0.1)">
       <use xlink:href="#DejaVuSans-30"/>
      </g>
     </g>
    </g>
    <g id="ytick_2">
     <g id="line2d_10">
      <g>
       <use style="stroke:#000000;stroke-width:0.8;" x="54" xlink:href="#ma71de5784f" y="334.784241"/>
      </g>
     </g>
     <g id="text_11">
      <!-- 5 -->
      <g transform="translate(40.6375 338.58346)scale(0.1 -0.1)">
       <use xlink:href="#DejaVuSans-35"/>
      </g>
     </g>
    </g>
    <g id="ytick_3">
     <g id="line2d_11">
      <g>
       <use style="stroke:#000000;stroke-width:0.8;" x="54" xlink:href="#ma71de5784f" y="285.088483"/>
      </g>
     </g>
     <g id="text_12">
      <!-- 10 -->
      <g transform="translate(34.275 288.887702)scale(0.1 -0.1)">
       <use xlink:href="#DejaVuSans-31"/>
       <use x="63.623047" xlink:href="#DejaVuSans-30"/>
      </g>
     </g>
    </g>
    <g id="ytick_4">
     <g id="line2d_12">
      <g>
       <use style="stroke:#000000;stroke-width:0.8;" x="54" xlink:href="#ma71de5784f" y="235.392724"/>
      </g>
     </g>
     <g id="text_13">
      <!-- 15 -->
      <g transform="translate(34.275 239.191943)scale(0.1 -0.1)">
       <use xlink:href="#DejaVuSans-31"/>
       <use x="63.623047" xlink:href="#DejaVuSans-35"/>
      </g>
     </g>
    </g>
    <g id="ytick_5">
     <g id="line2d_13">
      <g>
       <use style="stroke:#000000;stroke-width:0.8;" x="54" xlink:href="#ma71de5784f" y="185.696966"/>
      </g>
     </g>
     <g id="text_14">
      <!-- 20 -->
      <g transform="translate(34.275 189.496184)scale(0.1 -0.1)">
       <use xlink:href="#DejaVuSans-32"/>
       <use x="63.623047" xlink:href="#DejaVuSans-30"/>
      </g>
     </g>
    </g>
    <g id="ytick_6">
     <g id="line2d_14">
      <g>
       <use style="stroke:#000000;stroke-width:0.8;" x="54" xlink:href="#ma71de5784f" y="136.001207"/>
      </g>
     </g>
     <g id="text_15">
      <!-- 25 -->
      <g transform="translate(34.275 139.800426)scale(0.1 -0.1)">
       <use xlink:href="#DejaVuSans-32"/>
       <use x="63.623047" xlink:href="#DejaVuSans-35"/>
      </g>
     </g>
    </g>
    <g id="ytick_7">
     <g id="line2d_15">
      <g>
       <use style="stroke:#000000;stroke-width:0.8;" x="54" xlink:href="#ma71de5784f" y="86.305448"/>
      </g>
     </g>
     <g id="text_16">
      <!-- 30 -->
      <g transform="translate(34.275 90.104667)scale(0.1 -0.1)">
       <use xlink:href="#DejaVuSans-33"/>
       <use x="63.623047" xlink:href="#DejaVuSans-30"/>
      </g>
     </g>
    </g>
    <g id="text_17">
     <!-- bound_cl -->
     <defs>
      <path d="M 30.609375 48.390625 
Q 23.390625 48.390625 19.1875 42.75 
Q 14.984375 37.109375 14.984375 27.296875 
Q 14.984375 17.484375 19.15625 11.84375 
Q 23.34375 6.203125 30.609375 6.203125 
Q 37.796875 6.203125 41.984375 11.859375 
Q 46.1875 17.53125 46.1875 27.296875 
Q 46.1875 37.015625 41.984375 42.703125 
Q 37.796875 48.390625 30.609375 48.390625 
z
M 30.609375 56 
Q 42.328125 56 49.015625 48.375 
Q 55.71875 40.765625 55.71875 27.296875 
Q 55.71875 13.875 49.015625 6.21875 
Q 42.328125 -1.421875 30.609375 -1.421875 
Q 18.84375 -1.421875 12.171875 6.21875 
Q 5.515625 13.875 5.515625 27.296875 
Q 5.515625 40.765625 12.171875 48.375 
Q 18.84375 56 30.609375 56 
z
" id="DejaVuSans-6f"/>
      <path d="M 45.40625 46.390625 
L 45.40625 75.984375 
L 54.390625 75.984375 
L 54.390625 0 
L 45.40625 0 
L 45.40625 8.203125 
Q 42.578125 3.328125 38.25 0.953125 
Q 33.9375 -1.421875 27.875 -1.421875 
Q 17.96875 -1.421875 11.734375 6.484375 
Q 5.515625 14.40625 5.515625 27.296875 
Q 5.515625 40.1875 11.734375 48.09375 
Q 17.96875 56 27.875 56 
Q 33.9375 56 38.25 53.625 
Q 42.578125 51.265625 45.40625 46.390625 
z
M 14.796875 27.296875 
Q 14.796875 17.390625 18.875 11.75 
Q 22.953125 6.109375 30.078125 6.109375 
Q 37.203125 6.109375 41.296875 11.75 
Q 45.40625 17.390625 45.40625 27.296875 
Q 45.40625 37.203125 41.296875 42.84375 
Q 37.203125 48.484375 30.078125 48.484375 
Q 22.953125 48.484375 18.875 42.84375 
Q 14.796875 37.203125 14.796875 27.296875 
z
" id="DejaVuSans-64"/>
     </defs>
     <g transform="translate(27.917187 240.543594)rotate(-90)scale(0.1 -0.1)">
      <use xlink:href="#DejaVuSans-62"/>
      <use x="63.476562" xlink:href="#DejaVuSans-6f"/>
      <use x="124.658203" xlink:href="#DejaVuSans-75"/>
      <use x="188.037109" xlink:href="#DejaVuSans-6e"/>
      <use x="251.416016" xlink:href="#DejaVuSans-64"/>
      <use x="314.892578" xlink:href="#DejaVuSans-5f"/>
      <use x="364.892578" xlink:href="#DejaVuSans-63"/>
      <use x="419.873047" xlink:href="#DejaVuSans-6c"/>
     </g>
    </g>
   </g>
   <g id="line2d_16">
    <path clip-path="url(#p98b4745613)" d="M 58.350399 380.137572 
L 61.830718 376.66363 
L 65.311037 373.189687 
L 66.181117 372.321202 
L 67.921277 370.584231 
L 74.881915 363.636346 
L 77.492154 361.030889 
L 87.933112 350.609062 
L 89.673271 348.872091 
L 92.283511 346.266634 
L 93.153591 345.398149 
L 112.295346 326.291466 
L 114.035506 324.554494 
L 114.905585 323.686009 
L 132.307181 306.316297 
L 134.047341 304.579326 
L 141.878059 296.762956 
L 147.098538 291.552042 
L 147.968617 290.683556 
L 152.319016 286.341129 
L 156.669415 281.998701 
L 169.720612 268.971417 
L 173.200931 265.497474 
L 174.071011 264.628989 
L 177.55133 261.155046 
L 181.901729 256.812619 
L 182.771809 255.944133 
L 188.862368 249.864734 
L 205.393884 233.363508 
L 206.263964 232.495022 
L 212.354522 226.415623 
L 218.445081 220.336224 
L 221.9254 216.862281 
L 225.405719 213.388339 
L 237.586836 201.229541 
L 250.638033 188.202257 
L 253.248272 185.5968 
L 269.779788 169.095574 
L 275.000267 163.884661 
L 284.571145 154.331319 
L 294.142022 144.777978 
L 301.972741 136.961607 
L 313.283778 125.671295 
L 328.075134 110.90704 
L 328.945214 110.038554 
L 349.827129 89.1949 
L 361.138166 77.904587 
L 366.358645 72.693674 
L 369.838964 69.219731 
L 370.709044 68.351246 
" style="fill:none;stroke:#1f77b4;stroke-linecap:square;stroke-width:1.5;"/>
   </g>
   <g id="line2d_17">
    <path clip-path="url(#p98b4745613)" d="M 58.350399 380.137572 
L 61.830718 376.66363 
L 65.311037 373.189687 
L 66.181117 372.321202 
L 67.921277 370.584231 
L 74.881915 363.636346 
L 77.492154 361.030889 
L 87.933112 350.609062 
L 89.673271 348.872091 
L 92.283511 346.266634 
L 93.153591 345.398149 
L 112.295346 326.291466 
L 114.035506 324.554494 
L 114.905585 323.686009 
L 132.307181 306.316297 
L 134.047341 304.579326 
L 141.878059 296.762956 
L 147.098538 291.552042 
L 147.968617 290.683556 
L 152.319016 286.341129 
L 156.669415 281.998701 
L 169.720612 268.971417 
L 173.200931 265.497474 
L 174.071011 264.628989 
L 177.55133 261.155046 
L 181.901729 256.812619 
L 182.771809 255.944133 
L 188.862368 249.864734 
L 205.393884 233.363508 
L 206.263964 232.495022 
L 212.354522 226.415623 
L 218.445081 220.336224 
L 221.9254 216.862281 
L 225.405719 213.388339 
L 237.586836 201.229541 
L 250.638033 188.202257 
L 253.248272 185.5968 
L 269.779788 169.095574 
L 275.000267 163.884661 
L 284.571145 154.331319 
L 294.142022 144.777978 
L 301.972741 136.961607 
L 313.283778 125.671295 
L 328.075134 110.90704 
L 328.945214 110.038554 
L 349.827129 89.1949 
L 361.138166 77.904587 
L 366.358645 72.693674 
L 369.838964 69.219731 
L 370.709044 68.351246 
" style="fill:none;stroke:#ff7f0e;stroke-linecap:square;stroke-width:1.5;"/>
   </g>
   <g id="line2d_18">
    <path clip-path="url(#p98b4745613)" d="M 58.350399 380.137572 
L 61.830718 376.66363 
L 65.311037 373.189687 
L 66.181117 372.321202 
L 67.921277 370.584231 
L 74.881915 363.636346 
L 77.492154 361.030889 
L 87.933112 350.609062 
L 89.673271 348.872091 
L 92.283511 346.266634 
L 93.153591 345.398149 
L 112.295346 326.291466 
L 114.035506 324.554494 
L 114.905585 323.686009 
L 132.307181 306.316297 
L 134.047341 304.579326 
L 141.878059 296.762956 
L 147.098538 291.552042 
L 147.968617 290.683556 
L 152.319016 286.341129 
L 156.669415 281.998701 
L 169.720612 268.971417 
L 173.200931 265.497474 
L 174.071011 264.628989 
L 177.55133 261.155046 
L 181.901729 256.812619 
L 182.771809 255.944133 
L 188.862368 249.864734 
L 205.393884 233.363508 
L 206.263964 232.495022 
L 212.354522 226.415623 
L 218.445081 220.336224 
L 221.9254 216.862281 
L 225.405719 213.388339 
L 237.586836 201.229541 
L 250.638033 188.202257 
L 253.248272 185.5968 
L 269.779788 169.095574 
L 275.000267 163.884661 
L 284.571145 154.331319 
L 294.142022 144.777978 
L 301.972741 136.961607 
L 313.283778 125.671295 
L 328.075134 110.90704 
L 328.945214 110.038554 
L 349.827129 89.1949 
L 361.138166 77.904587 
L 366.358645 72.693674 
L 369.838964 69.219731 
L 370.709044 68.351246 
" style="fill:none;stroke:#2ca02c;stroke-linecap:square;stroke-width:1.5;"/>
   </g>
   <g id="patch_3">
    <path d="M 54 384.48 
L 54 51.84 
" style="fill:none;stroke:#000000;stroke-linecap:square;stroke-linejoin:miter;stroke-width:0.8;"/>
   </g>
   <g id="patch_4">
    <path d="M 388.8 384.48 
L 388.8 51.84 
" style="fill:none;stroke:#000000;stroke-linecap:square;stroke-linejoin:miter;stroke-width:0.8;"/>
   </g>
   <g id="patch_5">
    <path d="M 54 384.48 
L 388.8 384.48 
" style="fill:none;stroke:#000000;stroke-linecap:square;stroke-linejoin:miter;stroke-width:0.8;"/>
   </g>
   <g id="patch_6">
    <path d="M 54 51.84 
L 388.8 51.84 
" style="fill:none;stroke:#000000;stroke-linecap:square;stroke-linejoin:miter;stroke-width:0.8;"/>
   </g>
   <g id="legend_1">
    <g id="patch_7">
     <path d="M 61 104.70875 
L 166.592188 104.70875 
Q 168.592188 104.70875 168.592188 102.70875 
L 168.592188 58.84 
Q 168.592188 56.84 166.592188 56.84 
L 61 56.84 
Q 59 56.84 59 58.84 
L 59 102.70875 
Q 59 104.70875 61 104.70875 
z
" style="fill:#ffffff;opacity:0.8;stroke:#cccccc;stroke-linejoin:miter;"/>
    </g>
    <g id="PathCollection_4">
     <g>
      <use style="fill:#1f77b4;stroke:#1f77b4;" x="73" xlink:href="#m053928e048" y="65.813438"/>
     </g>
    </g>
    <g id="text_18">
     <!-- mt_number 30 -->
     <defs>
      <path d="M 18.3125 70.21875 
L 18.3125 54.6875 
L 36.8125 54.6875 
L 36.8125 47.703125 
L 18.3125 47.703125 
L 18.3125 18.015625 
Q 18.3125 11.328125 20.140625 9.421875 
Q 21.96875 7.515625 27.59375 7.515625 
L 36.8125 7.515625 
L 36.8125 0 
L 27.59375 0 
Q 17.1875 0 13.234375 3.875 
Q 9.28125 7.765625 9.28125 18.015625 
L 9.28125 47.703125 
L 2.6875 47.703125 
L 2.6875 54.6875 
L 9.28125 54.6875 
L 9.28125 70.21875 
z
" id="DejaVuSans-74"/>
      <path id="DejaVuSans-20"/>
     </defs>
     <g transform="translate(91 68.438438)scale(0.1 -0.1)">
      <use xlink:href="#DejaVuSans-6d"/>
      <use x="97.412109" xlink:href="#DejaVuSans-74"/>
      <use x="136.621094" xlink:href="#DejaVuSans-5f"/>
      <use x="186.621094" xlink:href="#DejaVuSans-6e"/>
      <use x="250" xlink:href="#DejaVuSans-75"/>
      <use x="313.378906" xlink:href="#DejaVuSans-6d"/>
      <use x="410.791016" xlink:href="#DejaVuSans-62"/>
      <use x="474.267578" xlink:href="#DejaVuSans-65"/>
      <use x="535.791016" xlink:href="#DejaVuSans-72"/>
      <use x="576.904297" xlink:href="#DejaVuSans-20"/>
      <use x="608.691406" xlink:href="#DejaVuSans-33"/>
      <use x="672.314453" xlink:href="#DejaVuSans-30"/>
     </g>
    </g>
    <g id="PathCollection_5">
     <g>
      <use style="fill:#ff7f0e;stroke:#ff7f0e;" x="73" xlink:href="#m70575e1bac" y="80.769688"/>
     </g>
    </g>
    <g id="text_19">
     <!-- mt_number 60 -->
     <defs>
      <path d="M 33.015625 40.375 
Q 26.375 40.375 22.484375 35.828125 
Q 18.609375 31.296875 18.609375 23.390625 
Q 18.609375 15.53125 22.484375 10.953125 
Q 26.375 6.390625 33.015625 6.390625 
Q 39.65625 6.390625 43.53125 10.953125 
Q 47.40625 15.53125 47.40625 23.390625 
Q 47.40625 31.296875 43.53125 35.828125 
Q 39.65625 40.375 33.015625 40.375 
z
M 52.59375 71.296875 
L 52.59375 62.3125 
Q 48.875 64.0625 45.09375 64.984375 
Q 41.3125 65.921875 37.59375 65.921875 
Q 27.828125 65.921875 22.671875 59.328125 
Q 17.53125 52.734375 16.796875 39.40625 
Q 19.671875 43.65625 24.015625 45.921875 
Q 28.375 48.1875 33.59375 48.1875 
Q 44.578125 48.1875 50.953125 41.515625 
Q 57.328125 34.859375 57.328125 23.390625 
Q 57.328125 12.15625 50.6875 5.359375 
Q 44.046875 -1.421875 33.015625 -1.421875 
Q 20.359375 -1.421875 13.671875 8.265625 
Q 6.984375 17.96875 6.984375 36.375 
Q 6.984375 53.65625 15.1875 63.9375 
Q 23.390625 74.21875 37.203125 74.21875 
Q 40.921875 74.21875 44.703125 73.484375 
Q 48.484375 72.75 52.59375 71.296875 
z
" id="DejaVuSans-36"/>
     </defs>
     <g transform="translate(91 83.394688)scale(0.1 -0.1)">
      <use xlink:href="#DejaVuSans-6d"/>
      <use x="97.412109" xlink:href="#DejaVuSans-74"/>
      <use x="136.621094" xlink:href="#DejaVuSans-5f"/>
      <use x="186.621094" xlink:href="#DejaVuSans-6e"/>
      <use x="250" xlink:href="#DejaVuSans-75"/>
      <use x="313.378906" xlink:href="#DejaVuSans-6d"/>
      <use x="410.791016" xlink:href="#DejaVuSans-62"/>
      <use x="474.267578" xlink:href="#DejaVuSans-65"/>
      <use x="535.791016" xlink:href="#DejaVuSans-72"/>
      <use x="576.904297" xlink:href="#DejaVuSans-20"/>
      <use x="608.691406" xlink:href="#DejaVuSans-36"/>
      <use x="672.314453" xlink:href="#DejaVuSans-30"/>
     </g>
    </g>
    <g id="PathCollection_6">
     <g>
      <use style="fill:#2ca02c;stroke:#2ca02c;" x="73" xlink:href="#m47c31856d1" y="95.725938"/>
     </g>
    </g>
    <g id="text_20">
     <!-- mt_number 90 -->
     <defs>
      <path d="M 10.984375 1.515625 
L 10.984375 10.5 
Q 14.703125 8.734375 18.5 7.8125 
Q 22.3125 6.890625 25.984375 6.890625 
Q 35.75 6.890625 40.890625 13.453125 
Q 46.046875 20.015625 46.78125 33.40625 
Q 43.953125 29.203125 39.59375 26.953125 
Q 35.25 24.703125 29.984375 24.703125 
Q 19.046875 24.703125 12.671875 31.3125 
Q 6.296875 37.9375 6.296875 49.421875 
Q 6.296875 60.640625 12.9375 67.421875 
Q 19.578125 74.21875 30.609375 74.21875 
Q 43.265625 74.21875 49.921875 64.515625 
Q 56.59375 54.828125 56.59375 36.375 
Q 56.59375 19.140625 48.40625 8.859375 
Q 40.234375 -1.421875 26.421875 -1.421875 
Q 22.703125 -1.421875 18.890625 -0.6875 
Q 15.09375 0.046875 10.984375 1.515625 
z
M 30.609375 32.421875 
Q 37.25 32.421875 41.125 36.953125 
Q 45.015625 41.5 45.015625 49.421875 
Q 45.015625 57.28125 41.125 61.84375 
Q 37.25 66.40625 30.609375 66.40625 
Q 23.96875 66.40625 20.09375 61.84375 
Q 16.21875 57.28125 16.21875 49.421875 
Q 16.21875 41.5 20.09375 36.953125 
Q 23.96875 32.421875 30.609375 32.421875 
z
" id="DejaVuSans-39"/>
     </defs>
     <g transform="translate(91 98.350938)scale(0.1 -0.1)">
      <use xlink:href="#DejaVuSans-6d"/>
      <use x="97.412109" xlink:href="#DejaVuSans-74"/>
      <use x="136.621094" xlink:href="#DejaVuSans-5f"/>
      <use x="186.621094" xlink:href="#DejaVuSans-6e"/>
      <use x="250" xlink:href="#DejaVuSans-75"/>
      <use x="313.378906" xlink:href="#DejaVuSans-6d"/>
      <use x="410.791016" xlink:href="#DejaVuSans-62"/>
      <use x="474.267578" xlink:href="#DejaVuSans-65"/>
      <use x="535.791016" xlink:href="#DejaVuSans-72"/>
      <use x="576.904297" xlink:href="#DejaVuSans-20"/>
      <use x="608.691406" xlink:href="#DejaVuSans-39"/>
      <use x="672.314453" xlink:href="#DejaVuSans-30"/>
     </g>
    </g>
   </g>
  </g>
 </g>
 <defs>
  <clipPath id="p98b4745613">
   <rect height="332.64" width="334.8" x="54" y="51.84"/>
  </clipPath>
 </defs>
</svg>
